<?xml version="1.0" encoding="utf-8" standalone="no"?>
<!DOCTYPE svg PUBLIC "-//W3C//DTD SVG 1.1//EN"
  "http://www.w3.org/Graphics/SVG/1.1/DTD/svg11.dtd">
<svg xmlns:xlink="http://www.w3.org/1999/xlink" width="371.13pt" height="309.6pt" viewBox="0 0 371.13 309.6" xmlns="http://www.w3.org/2000/svg" version="1.1">
 <metadata>
  <rdf:RDF xmlns:dc="http://purl.org/dc/elements/1.1/" xmlns:cc="http://creativecommons.org/ns#" xmlns:rdf="http://www.w3.org/1999/02/22-rdf-syntax-ns#">
   <cc:Work>
    <dc:type rdf:resource="http://purl.org/dc/dcmitype/StillImage"/>
    <dc:date>2026-07-02T22:51:33.250195</dc:date>
    <dc:format>image/svg+xml</dc:format>
    <dc:creator>
     <cc:Agent>
      <dc:title>Matplotlib v3.11.0, https://matplotlib.org/</dc:title>
     </cc:Agent>
    </dc:creator>
   </cc:Work>
  </rdf:RDF>
 </metadata>
 <defs>
  <style type="text/css">*{stroke-linejoin: round; stroke-linecap: butt}</style>
 </defs>
 <g id="figure_1">
  <g id="patch_1">
   <path d="M 0 309.6 
L 371.13 309.6 
L 371.13 0 
L 0 0 
z
" style="fill: #ffffff"/>
  </g>
  <g id="axes_1">
   <g id="text_1">
    <!-- X (chord) -->
    <g style="fill: #2ca02c" transform="translate(48.916549 224.589092) scale(0.1 -0.1)">
     <defs>
      <path id="DejaVuSans-Bold-3b" d="M 3188 2381 
L 4806 0 
L 3553 0 
L 2463 1594 
L 1381 0 
L 122 0 
L 1741 2381 
L 184 4666 
L 1441 4666 
L 2463 3163 
L 3481 4666 
L 4744 4666 
L 3188 2381 
z
" transform="scale(0.015625)"/>
      <path id="DejaVuSans-Bold-3" transform="scale(0.015625)"/>
      <path id="DejaVuSans-Bold-b" d="M 2413 -844 
L 1484 -844 
Q 1006 -72 778 623 
Q 550 1319 550 2003 
Q 550 2688 779 3389 
Q 1009 4091 1484 4856 
L 2413 4856 
Q 2013 4116 1813 3408 
Q 1613 2700 1613 2009 
Q 1613 1319 1811 609 
Q 2009 -100 2413 -844 
z
" transform="scale(0.015625)"/>
      <path id="DejaVuSans-Bold-46" d="M 3366 3391 
L 3366 2478 
Q 3138 2634 2908 2709 
Q 2678 2784 2431 2784 
Q 1963 2784 1702 2511 
Q 1441 2238 1441 1747 
Q 1441 1256 1702 982 
Q 1963 709 2431 709 
Q 2694 709 2930 787 
Q 3166 866 3366 1019 
L 3366 103 
Q 3103 6 2833 -42 
Q 2563 -91 2291 -91 
Q 1344 -91 809 395 
Q 275 881 275 1747 
Q 275 2613 809 3098 
Q 1344 3584 2291 3584 
Q 2566 3584 2833 3536 
Q 3100 3488 3366 3391 
z
" transform="scale(0.015625)"/>
      <path id="DejaVuSans-Bold-4b" d="M 4056 2131 
L 4056 0 
L 2931 0 
L 2931 347 
L 2931 1625 
Q 2931 2084 2911 2256 
Q 2891 2428 2841 2509 
Q 2775 2619 2662 2680 
Q 2550 2741 2406 2741 
Q 2056 2741 1856 2470 
Q 1656 2200 1656 1722 
L 1656 0 
L 538 0 
L 538 4863 
L 1656 4863 
L 1656 2988 
Q 1909 3294 2193 3439 
Q 2478 3584 2822 3584 
Q 3428 3584 3742 3212 
Q 4056 2841 4056 2131 
z
" transform="scale(0.015625)"/>
      <path id="DejaVuSans-Bold-52" d="M 2203 2784 
Q 1831 2784 1636 2517 
Q 1441 2250 1441 1747 
Q 1441 1244 1636 976 
Q 1831 709 2203 709 
Q 2569 709 2762 976 
Q 2956 1244 2956 1747 
Q 2956 2250 2762 2517 
Q 2569 2784 2203 2784 
z
M 2203 3584 
Q 3106 3584 3614 3096 
Q 4122 2609 4122 1747 
Q 4122 884 3614 396 
Q 3106 -91 2203 -91 
Q 1297 -91 786 396 
Q 275 884 275 1747 
Q 275 2609 786 3096 
Q 1297 3584 2203 3584 
z
" transform="scale(0.015625)"/>
      <path id="DejaVuSans-Bold-55" d="M 3138 2547 
Q 2991 2616 2845 2648 
Q 2700 2681 2553 2681 
Q 2122 2681 1889 2404 
Q 1656 2128 1656 1613 
L 1656 0 
L 538 0 
L 538 3500 
L 1656 3500 
L 1656 2925 
Q 1872 3269 2151 3426 
Q 2431 3584 2822 3584 
Q 2878 3584 2943 3579 
Q 3009 3575 3134 3559 
L 3138 2547 
z
" transform="scale(0.015625)"/>
      <path id="DejaVuSans-Bold-47" d="M 2919 2988 
L 2919 4863 
L 4044 4863 
L 4044 0 
L 2919 0 
L 2919 506 
Q 2688 197 2409 53 
Q 2131 -91 1766 -91 
Q 1119 -91 703 423 
Q 288 938 288 1747 
Q 288 2556 703 3070 
Q 1119 3584 1766 3584 
Q 2128 3584 2408 3439 
Q 2688 3294 2919 2988 
z
M 2181 722 
Q 2541 722 2730 984 
Q 2919 1247 2919 1747 
Q 2919 2247 2730 2509 
Q 2541 2772 2181 2772 
Q 1825 2772 1636 2509 
Q 1447 2247 1447 1747 
Q 1447 1247 1636 984 
Q 1825 722 2181 722 
z
" transform="scale(0.015625)"/>
      <path id="DejaVuSans-Bold-c" d="M 513 -844 
Q 913 -100 1113 609 
Q 1313 1319 1313 2009 
Q 1313 2700 1113 3408 
Q 913 4116 513 4856 
L 1441 4856 
Q 1916 4091 2145 3389 
Q 2375 2688 2375 2003 
Q 2375 1319 2147 623 
Q 1919 -72 1441 -844 
L 513 -844 
z
" transform="scale(0.015625)"/>
     </defs>
     <use xlink:href="#DejaVuSans-Bold-3b"/>
     <use xlink:href="#DejaVuSans-Bold-3" transform="translate(77.09375 0)"/>
     <use xlink:href="#DejaVuSans-Bold-b" transform="translate(111.90625 0)"/>
     <use xlink:href="#DejaVuSans-Bold-46" transform="translate(157.609375 0)"/>
     <use xlink:href="#DejaVuSans-Bold-4b" transform="translate(216.890625 0)"/>
     <use xlink:href="#DejaVuSans-Bold-52" transform="translate(288.078125 0)"/>
     <use xlink:href="#DejaVuSans-Bold-55" transform="translate(356.78125 0)"/>
     <use xlink:href="#DejaVuSans-Bold-47" transform="translate(406.09375 0)"/>
     <use xlink:href="#DejaVuSans-Bold-c" transform="translate(477.671875 0)"/>
    </g>
   </g>
   <g id="text_2">
    <!-- Y (span) -->
    <g style="fill: #1f77b4" transform="translate(292.121588 159.600641) scale(0.1 -0.1)">
     <defs>
      <path id="DejaVuSans-Bold-3c" d="M -63 4666 
L 1253 4666 
L 2316 3003 
L 3378 4666 
L 4697 4666 
L 2919 1966 
L 2919 0 
L 1716 0 
L 1716 1966 
L -63 4666 
z
" transform="scale(0.015625)"/>
      <path id="DejaVuSans-Bold-56" d="M 3272 3391 
L 3272 2541 
Q 2913 2691 2578 2766 
Q 2244 2841 1947 2841 
Q 1628 2841 1473 2761 
Q 1319 2681 1319 2516 
Q 1319 2381 1436 2309 
Q 1553 2238 1856 2203 
L 2053 2175 
Q 2913 2066 3209 1816 
Q 3506 1566 3506 1031 
Q 3506 472 3093 190 
Q 2681 -91 1863 -91 
Q 1516 -91 1145 -36 
Q 775 19 384 128 
L 384 978 
Q 719 816 1070 734 
Q 1422 653 1784 653 
Q 2113 653 2278 743 
Q 2444 834 2444 1013 
Q 2444 1163 2330 1236 
Q 2216 1309 1875 1350 
L 1678 1375 
Q 931 1469 631 1722 
Q 331 1975 331 2491 
Q 331 3047 712 3315 
Q 1094 3584 1881 3584 
Q 2191 3584 2531 3537 
Q 2872 3491 3272 3391 
z
" transform="scale(0.015625)"/>
      <path id="DejaVuSans-Bold-53" d="M 1656 506 
L 1656 -1331 
L 538 -1331 
L 538 3500 
L 1656 3500 
L 1656 2988 
Q 1888 3294 2169 3439 
Q 2450 3584 2816 3584 
Q 3463 3584 3878 3070 
Q 4294 2556 4294 1747 
Q 4294 938 3878 423 
Q 3463 -91 2816 -91 
Q 2450 -91 2169 54 
Q 1888 200 1656 506 
z
M 2400 2772 
Q 2041 2772 1848 2508 
Q 1656 2244 1656 1747 
Q 1656 1250 1848 986 
Q 2041 722 2400 722 
Q 2759 722 2948 984 
Q 3138 1247 3138 1747 
Q 3138 2247 2948 2509 
Q 2759 2772 2400 2772 
z
" transform="scale(0.015625)"/>
      <path id="DejaVuSans-Bold-44" d="M 2106 1575 
Q 1756 1575 1579 1456 
Q 1403 1338 1403 1106 
Q 1403 894 1545 773 
Q 1688 653 1941 653 
Q 2256 653 2472 879 
Q 2688 1106 2688 1447 
L 2688 1575 
L 2106 1575 
z
M 3816 1997 
L 3816 0 
L 2688 0 
L 2688 519 
Q 2463 200 2181 54 
Q 1900 -91 1497 -91 
Q 953 -91 614 226 
Q 275 544 275 1050 
Q 275 1666 698 1953 
Q 1122 2241 2028 2241 
L 2688 2241 
L 2688 2328 
Q 2688 2594 2478 2717 
Q 2269 2841 1825 2841 
Q 1466 2841 1156 2769 
Q 847 2697 581 2553 
L 581 3406 
Q 941 3494 1303 3539 
Q 1666 3584 2028 3584 
Q 2975 3584 3395 3211 
Q 3816 2838 3816 1997 
z
" transform="scale(0.015625)"/>
      <path id="DejaVuSans-Bold-51" d="M 4056 2131 
L 4056 0 
L 2931 0 
L 2931 347 
L 2931 1631 
Q 2931 2084 2911 2256 
Q 2891 2428 2841 2509 
Q 2775 2619 2662 2680 
Q 2550 2741 2406 2741 
Q 2056 2741 1856 2470 
Q 1656 2200 1656 1722 
L 1656 0 
L 538 0 
L 538 3500 
L 1656 3500 
L 1656 2988 
Q 1909 3294 2193 3439 
Q 2478 3584 2822 3584 
Q 3428 3584 3742 3212 
Q 4056 2841 4056 2131 
z
" transform="scale(0.015625)"/>
     </defs>
     <use xlink:href="#DejaVuSans-Bold-3c"/>
     <use xlink:href="#DejaVuSans-Bold-3" transform="translate(72.40625 0)"/>
     <use xlink:href="#DejaVuSans-Bold-b" transform="translate(107.21875 0)"/>
     <use xlink:href="#DejaVuSans-Bold-56" transform="translate(152.921875 0)"/>
     <use xlink:href="#DejaVuSans-Bold-53" transform="translate(212.4375 0)"/>
     <use xlink:href="#DejaVuSans-Bold-44" transform="translate(284.015625 0)"/>
     <use xlink:href="#DejaVuSans-Bold-51" transform="translate(351.5 0)"/>
     <use xlink:href="#DejaVuSans-Bold-c" transform="translate(422.6875 0)"/>
    </g>
   </g>
   <g id="text_3">
    <!-- Z (lift) -->
    <g style="fill: #d62728" transform="translate(167.635312 29.624913) scale(0.1 -0.1)">
     <defs>
      <path id="DejaVuSans-Bold-3d" d="M 359 4666 
L 4281 4666 
L 4281 3938 
L 1778 909 
L 4353 909 
L 4353 0 
L 288 0 
L 288 728 
L 2791 3756 
L 359 3756 
L 359 4666 
z
" transform="scale(0.015625)"/>
      <path id="DejaVuSans-Bold-4f" d="M 538 4863 
L 1656 4863 
L 1656 0 
L 538 0 
L 538 4863 
z
" transform="scale(0.015625)"/>
      <path id="DejaVuSans-Bold-4c" d="M 538 3500 
L 1656 3500 
L 1656 0 
L 538 0 
L 538 3500 
z
M 538 4863 
L 1656 4863 
L 1656 3950 
L 538 3950 
L 538 4863 
z
" transform="scale(0.015625)"/>
      <path id="DejaVuSans-Bold-49" d="M 2841 4863 
L 2841 4128 
L 2222 4128 
Q 1984 4128 1890 4042 
Q 1797 3956 1797 3744 
L 1797 3500 
L 2753 3500 
L 2753 2700 
L 1797 2700 
L 1797 0 
L 678 0 
L 678 2700 
L 122 2700 
L 122 3500 
L 678 3500 
L 678 3744 
Q 678 4316 997 4589 
Q 1316 4863 1984 4863 
L 2841 4863 
z
" transform="scale(0.015625)"/>
      <path id="DejaVuSans-Bold-57" d="M 1759 4494 
L 1759 3500 
L 2913 3500 
L 2913 2700 
L 1759 2700 
L 1759 1216 
Q 1759 972 1856 886 
Q 1953 800 2241 800 
L 2816 800 
L 2816 0 
L 1856 0 
Q 1194 0 917 276 
Q 641 553 641 1216 
L 641 2700 
L 84 2700 
L 84 3500 
L 641 3500 
L 641 4494 
L 1759 4494 
z
" transform="scale(0.015625)"/>
     </defs>
     <use xlink:href="#DejaVuSans-Bold-3d"/>
     <use xlink:href="#DejaVuSans-Bold-3" transform="translate(72.515625 0)"/>
     <use xlink:href="#DejaVuSans-Bold-b" transform="translate(107.328125 0)"/>
     <use xlink:href="#DejaVuSans-Bold-4f" transform="translate(153.03125 0)"/>
     <use xlink:href="#DejaVuSans-Bold-4c" transform="translate(187.3125 0)"/>
     <use xlink:href="#DejaVuSans-Bold-49" transform="translate(221.59375 0)"/>
     <use xlink:href="#DejaVuSans-Bold-57" transform="translate(265.09375 0)"/>
     <use xlink:href="#DejaVuSans-Bold-c" transform="translate(312.890625 0)"/>
    </g>
   </g>
   <g id="text_4">
    <!-- node -->
    <g transform="translate(190.852164 169.339701) scale(0.1 -0.1)">
     <defs>
      <path id="DejaVuSans-51" d="M 3513 2113 
L 3513 0 
L 2938 0 
L 2938 2094 
Q 2938 2591 2744 2837 
Q 2550 3084 2163 3084 
Q 1697 3084 1428 2787 
Q 1159 2491 1159 1978 
L 1159 0 
L 581 0 
L 581 3500 
L 1159 3500 
L 1159 2956 
Q 1366 3272 1645 3428 
Q 1925 3584 2291 3584 
Q 2894 3584 3203 3211 
Q 3513 2838 3513 2113 
z
" transform="scale(0.015625)"/>
      <path id="DejaVuSans-52" d="M 1959 3097 
Q 1497 3097 1228 2736 
Q 959 2375 959 1747 
Q 959 1119 1226 758 
Q 1494 397 1959 397 
Q 2419 397 2687 759 
Q 2956 1122 2956 1747 
Q 2956 2369 2687 2733 
Q 2419 3097 1959 3097 
z
M 1959 3584 
Q 2709 3584 3137 3096 
Q 3566 2609 3566 1747 
Q 3566 888 3137 398 
Q 2709 -91 1959 -91 
Q 1206 -91 779 398 
Q 353 888 353 1747 
Q 353 2609 779 3096 
Q 1206 3584 1959 3584 
z
" transform="scale(0.015625)"/>
      <path id="DejaVuSans-47" d="M 2906 2969 
L 2906 4863 
L 3481 4863 
L 3481 0 
L 2906 0 
L 2906 525 
Q 2725 213 2448 61 
Q 2172 -91 1784 -91 
Q 1150 -91 751 415 
Q 353 922 353 1747 
Q 353 2572 751 3078 
Q 1150 3584 1784 3584 
Q 2172 3584 2448 3432 
Q 2725 3281 2906 2969 
z
M 947 1747 
Q 947 1113 1208 752 
Q 1469 391 1925 391 
Q 2381 391 2643 752 
Q 2906 1113 2906 1747 
Q 2906 2381 2643 2742 
Q 2381 3103 1925 3103 
Q 1469 3103 1208 2742 
Q 947 2381 947 1747 
z
" transform="scale(0.015625)"/>
      <path id="DejaVuSans-48" d="M 3597 1894 
L 3597 1613 
L 953 1613 
Q 991 1019 1311 708 
Q 1631 397 2203 397 
Q 2534 397 2845 478 
Q 3156 559 3463 722 
L 3463 178 
Q 3153 47 2828 -22 
Q 2503 -91 2169 -91 
Q 1331 -91 842 396 
Q 353 884 353 1716 
Q 353 2575 817 3079 
Q 1281 3584 2069 3584 
Q 2775 3584 3186 3129 
Q 3597 2675 3597 1894 
z
M 3022 2063 
Q 3016 2534 2758 2815 
Q 2500 3097 2075 3097 
Q 1594 3097 1305 2825 
Q 1016 2553 972 2059 
L 3022 2063 
z
" transform="scale(0.015625)"/>
     </defs>
     <use xlink:href="#DejaVuSans-51"/>
     <use xlink:href="#DejaVuSans-52" transform="translate(63.375 0)"/>
     <use xlink:href="#DejaVuSans-47" transform="translate(124.5625 0)"/>
     <use xlink:href="#DejaVuSans-48" transform="translate(188.046875 0)"/>
    </g>
   </g>
   <g id="text_5">
    <!-- 6 DOF per node:  3 translations $[t_x,t_y,t_z]$  +  3 rotations $[r_x,r_y,r_z]$ -->
    <g transform="translate(7.2 18.214925) scale(0.11 -0.11)">
     <defs>
      <path id="DejaVuSans-19" d="M 2113 2584 
Q 1688 2584 1439 2293 
Q 1191 2003 1191 1497 
Q 1191 994 1439 701 
Q 1688 409 2113 409 
Q 2538 409 2786 701 
Q 3034 994 3034 1497 
Q 3034 2003 2786 2293 
Q 2538 2584 2113 2584 
z
M 3366 4563 
L 3366 3988 
Q 3128 4100 2886 4159 
Q 2644 4219 2406 4219 
Q 1781 4219 1451 3797 
Q 1122 3375 1075 2522 
Q 1259 2794 1537 2939 
Q 1816 3084 2150 3084 
Q 2853 3084 3261 2657 
Q 3669 2231 3669 1497 
Q 3669 778 3244 343 
Q 2819 -91 2113 -91 
Q 1303 -91 875 529 
Q 447 1150 447 2328 
Q 447 3434 972 4092 
Q 1497 4750 2381 4750 
Q 2619 4750 2861 4703 
Q 3103 4656 3366 4563 
z
" transform="scale(0.015625)"/>
      <path id="DejaVuSans-3" transform="scale(0.015625)"/>
      <path id="DejaVuSans-27" d="M 1259 4147 
L 1259 519 
L 2022 519 
Q 2988 519 3436 956 
Q 3884 1394 3884 2338 
Q 3884 3275 3436 3711 
Q 2988 4147 2022 4147 
L 1259 4147 
z
M 628 4666 
L 1925 4666 
Q 3281 4666 3915 4102 
Q 4550 3538 4550 2338 
Q 4550 1131 3912 565 
Q 3275 0 1925 0 
L 628 0 
L 628 4666 
z
" transform="scale(0.015625)"/>
      <path id="DejaVuSans-32" d="M 2522 4238 
Q 1834 4238 1429 3725 
Q 1025 3213 1025 2328 
Q 1025 1447 1429 934 
Q 1834 422 2522 422 
Q 3209 422 3611 934 
Q 4013 1447 4013 2328 
Q 4013 3213 3611 3725 
Q 3209 4238 2522 4238 
z
M 2522 4750 
Q 3503 4750 4090 4092 
Q 4678 3434 4678 2328 
Q 4678 1225 4090 567 
Q 3503 -91 2522 -91 
Q 1538 -91 948 565 
Q 359 1222 359 2328 
Q 359 3434 948 4092 
Q 1538 4750 2522 4750 
z
" transform="scale(0.015625)"/>
      <path id="DejaVuSans-29" d="M 628 4666 
L 3309 4666 
L 3309 4134 
L 1259 4134 
L 1259 2759 
L 3109 2759 
L 3109 2228 
L 1259 2228 
L 1259 0 
L 628 0 
L 628 4666 
z
" transform="scale(0.015625)"/>
      <path id="DejaVuSans-53" d="M 1159 525 
L 1159 -1331 
L 581 -1331 
L 581 3500 
L 1159 3500 
L 1159 2969 
Q 1341 3281 1617 3432 
Q 1894 3584 2278 3584 
Q 2916 3584 3314 3078 
Q 3713 2572 3713 1747 
Q 3713 922 3314 415 
Q 2916 -91 2278 -91 
Q 1894 -91 1617 61 
Q 1341 213 1159 525 
z
M 3116 1747 
Q 3116 2381 2855 2742 
Q 2594 3103 2138 3103 
Q 1681 3103 1420 2742 
Q 1159 2381 1159 1747 
Q 1159 1113 1420 752 
Q 1681 391 2138 391 
Q 2594 391 2855 752 
Q 3116 1113 3116 1747 
z
" transform="scale(0.015625)"/>
      <path id="DejaVuSans-55" d="M 2631 2963 
Q 2534 3019 2420 3045 
Q 2306 3072 2169 3072 
Q 1681 3072 1420 2755 
Q 1159 2438 1159 1844 
L 1159 0 
L 581 0 
L 581 3500 
L 1159 3500 
L 1159 2956 
Q 1341 3275 1631 3429 
Q 1922 3584 2338 3584 
Q 2397 3584 2469 3576 
Q 2541 3569 2628 3553 
L 2631 2963 
z
" transform="scale(0.015625)"/>
      <path id="DejaVuSans-1d" d="M 750 794 
L 1409 794 
L 1409 0 
L 750 0 
L 750 794 
z
M 750 3309 
L 1409 3309 
L 1409 2516 
L 750 2516 
L 750 3309 
z
" transform="scale(0.015625)"/>
      <path id="DejaVuSans-16" d="M 2597 2516 
Q 3050 2419 3304 2112 
Q 3559 1806 3559 1356 
Q 3559 666 3084 287 
Q 2609 -91 1734 -91 
Q 1441 -91 1130 -33 
Q 819 25 488 141 
L 488 750 
Q 750 597 1062 519 
Q 1375 441 1716 441 
Q 2309 441 2620 675 
Q 2931 909 2931 1356 
Q 2931 1769 2642 2001 
Q 2353 2234 1838 2234 
L 1294 2234 
L 1294 2753 
L 1863 2753 
Q 2328 2753 2575 2939 
Q 2822 3125 2822 3475 
Q 2822 3834 2567 4026 
Q 2313 4219 1838 4219 
Q 1578 4219 1281 4162 
Q 984 4106 628 3988 
L 628 4550 
Q 988 4650 1302 4700 
Q 1616 4750 1894 4750 
Q 2613 4750 3031 4423 
Q 3450 4097 3450 3541 
Q 3450 3153 3228 2886 
Q 3006 2619 2597 2516 
z
" transform="scale(0.015625)"/>
      <path id="DejaVuSans-57" d="M 1172 4494 
L 1172 3500 
L 2356 3500 
L 2356 3053 
L 1172 3053 
L 1172 1153 
Q 1172 725 1289 603 
Q 1406 481 1766 481 
L 2356 481 
L 2356 0 
L 1766 0 
Q 1100 0 847 248 
Q 594 497 594 1153 
L 594 3053 
L 172 3053 
L 172 3500 
L 594 3500 
L 594 4494 
L 1172 4494 
z
" transform="scale(0.015625)"/>
      <path id="DejaVuSans-44" d="M 2194 1759 
Q 1497 1759 1228 1600 
Q 959 1441 959 1056 
Q 959 750 1161 570 
Q 1363 391 1709 391 
Q 2188 391 2477 730 
Q 2766 1069 2766 1631 
L 2766 1759 
L 2194 1759 
z
M 3341 1997 
L 3341 0 
L 2766 0 
L 2766 531 
Q 2569 213 2275 61 
Q 1981 -91 1556 -91 
Q 1019 -91 701 211 
Q 384 513 384 1019 
Q 384 1609 779 1909 
Q 1175 2209 1959 2209 
L 2766 2209 
L 2766 2266 
Q 2766 2663 2505 2880 
Q 2244 3097 1772 3097 
Q 1472 3097 1187 3025 
Q 903 2953 641 2809 
L 641 3341 
Q 956 3463 1253 3523 
Q 1550 3584 1831 3584 
Q 2591 3584 2966 3190 
Q 3341 2797 3341 1997 
z
" transform="scale(0.015625)"/>
      <path id="DejaVuSans-56" d="M 2834 3397 
L 2834 2853 
Q 2591 2978 2328 3040 
Q 2066 3103 1784 3103 
Q 1356 3103 1142 2972 
Q 928 2841 928 2578 
Q 928 2378 1081 2264 
Q 1234 2150 1697 2047 
L 1894 2003 
Q 2506 1872 2764 1633 
Q 3022 1394 3022 966 
Q 3022 478 2636 193 
Q 2250 -91 1575 -91 
Q 1294 -91 989 -36 
Q 684 19 347 128 
L 347 722 
Q 666 556 975 473 
Q 1284 391 1588 391 
Q 1994 391 2212 530 
Q 2431 669 2431 922 
Q 2431 1156 2273 1281 
Q 2116 1406 1581 1522 
L 1381 1569 
Q 847 1681 609 1914 
Q 372 2147 372 2553 
Q 372 3047 722 3315 
Q 1072 3584 1716 3584 
Q 2034 3584 2315 3537 
Q 2597 3491 2834 3397 
z
" transform="scale(0.015625)"/>
      <path id="DejaVuSans-4f" d="M 603 4863 
L 1178 4863 
L 1178 0 
L 603 0 
L 603 4863 
z
" transform="scale(0.015625)"/>
      <path id="DejaVuSans-4c" d="M 603 3500 
L 1178 3500 
L 1178 0 
L 603 0 
L 603 3500 
z
M 603 4863 
L 1178 4863 
L 1178 4134 
L 603 4134 
L 603 4863 
z
" transform="scale(0.015625)"/>
      <path id="DejaVuSans-3e" d="M 550 4863 
L 1875 4863 
L 1875 4416 
L 1125 4416 
L 1125 -397 
L 1875 -397 
L 1875 -844 
L 550 -844 
L 550 4863 
z
" transform="scale(0.015625)"/>
      <path id="DejaVuSans-Oblique-57" d="M 2706 3500 
L 2619 3053 
L 1472 3053 
L 1100 1153 
Q 1081 1047 1072 975 
Q 1063 903 1063 863 
Q 1063 663 1183 572 
Q 1303 481 1569 481 
L 2150 481 
L 2053 0 
L 1503 0 
Q 991 0 739 200 
Q 488 400 488 806 
Q 488 878 497 964 
Q 506 1050 525 1153 
L 897 3053 
L 409 3053 
L 500 3500 
L 978 3500 
L 1172 4494 
L 1747 4494 
L 1556 3500 
L 2706 3500 
z
" transform="scale(0.015625)"/>
      <path id="DejaVuSans-Oblique-5b" d="M 3841 3500 
L 2234 1784 
L 3219 0 
L 2559 0 
L 1819 1388 
L 531 0 
L -166 0 
L 1556 1844 
L 641 3500 
L 1300 3500 
L 1972 2234 
L 3144 3500 
L 3841 3500 
z
" transform="scale(0.015625)"/>
      <path id="DejaVuSans-f" d="M 750 794 
L 1409 794 
L 1409 256 
L 897 -744 
L 494 -744 
L 750 256 
L 750 794 
z
" transform="scale(0.015625)"/>
      <path id="DejaVuSans-Oblique-5c" d="M 1588 -325 
Q 1188 -997 936 -1164 
Q 684 -1331 294 -1331 
L -159 -1331 
L -63 -850 
L 269 -850 
Q 509 -850 678 -719 
Q 847 -588 1056 -206 
L 1234 128 
L 459 3500 
L 1069 3500 
L 1650 819 
L 3256 3500 
L 3859 3500 
L 1588 -325 
z
" transform="scale(0.015625)"/>
      <path id="DejaVuSans-Oblique-5d" d="M 744 3500 
L 3475 3500 
L 3372 2975 
L 738 459 
L 2913 459 
L 2822 0 
L -19 0 
L 84 525 
L 2719 3041 
L 653 3041 
L 744 3500 
z
" transform="scale(0.015625)"/>
      <path id="DejaVuSans-40" d="M 1947 4863 
L 1947 -844 
L 622 -844 
L 622 -397 
L 1369 -397 
L 1369 4416 
L 622 4416 
L 622 4863 
L 1947 4863 
z
" transform="scale(0.015625)"/>
      <path id="DejaVuSans-e" d="M 2944 4013 
L 2944 2272 
L 4684 2272 
L 4684 1741 
L 2944 1741 
L 2944 0 
L 2419 0 
L 2419 1741 
L 678 1741 
L 678 2272 
L 2419 2272 
L 2419 4013 
L 2944 4013 
z
" transform="scale(0.015625)"/>
      <path id="DejaVuSans-Oblique-55" d="M 2853 2969 
Q 2766 3016 2653 3041 
Q 2541 3066 2413 3066 
Q 1953 3066 1609 2717 
Q 1266 2369 1153 1784 
L 800 0 
L 225 0 
L 909 3500 
L 1484 3500 
L 1375 2956 
Q 1603 3259 1920 3421 
Q 2238 3584 2597 3584 
Q 2691 3584 2781 3573 
Q 2872 3563 2963 3538 
L 2853 2969 
z
" transform="scale(0.015625)"/>
     </defs>
     <use xlink:href="#DejaVuSans-19" transform="translate(0 0.015625)"/>
     <use xlink:href="#DejaVuSans-3" transform="translate(63.623047 0.015625)"/>
     <use xlink:href="#DejaVuSans-27" transform="translate(95.410156 0.015625)"/>
     <use xlink:href="#DejaVuSans-32" transform="translate(172.412109 0.015625)"/>
     <use xlink:href="#DejaVuSans-29" transform="translate(251.123047 0.015625)"/>
     <use xlink:href="#DejaVuSans-3" transform="translate(308.642578 0.015625)"/>
     <use xlink:href="#DejaVuSans-53" transform="translate(340.429688 0.015625)"/>
     <use xlink:href="#DejaVuSans-48" transform="translate(403.90625 0.015625)"/>
     <use xlink:href="#DejaVuSans-55" transform="translate(465.429688 0.015625)"/>
     <use xlink:href="#DejaVuSans-3" transform="translate(506.542969 0.015625)"/>
     <use xlink:href="#DejaVuSans-51" transform="translate(538.330078 0.015625)"/>
     <use xlink:href="#DejaVuSans-52" transform="translate(601.708984 0.015625)"/>
     <use xlink:href="#DejaVuSans-47" transform="translate(662.890625 0.015625)"/>
     <use xlink:href="#DejaVuSans-48" transform="translate(726.367188 0.015625)"/>
     <use xlink:href="#DejaVuSans-1d" transform="translate(787.890625 0.015625)"/>
     <use xlink:href="#DejaVuSans-3" transform="translate(821.582031 0.015625)"/>
     <use xlink:href="#DejaVuSans-3" transform="translate(853.369141 0.015625)"/>
     <use xlink:href="#DejaVuSans-16" transform="translate(885.15625 0.015625)"/>
     <use xlink:href="#DejaVuSans-3" transform="translate(948.779297 0.015625)"/>
     <use xlink:href="#DejaVuSans-57" transform="translate(980.566406 0.015625)"/>
     <use xlink:href="#DejaVuSans-55" transform="translate(1019.775391 0.015625)"/>
     <use xlink:href="#DejaVuSans-44" transform="translate(1060.888672 0.015625)"/>
     <use xlink:href="#DejaVuSans-51" transform="translate(1122.167969 0.015625)"/>
     <use xlink:href="#DejaVuSans-56" transform="translate(1185.546875 0.015625)"/>
     <use xlink:href="#DejaVuSans-4f" transform="translate(1237.646484 0.015625)"/>
     <use xlink:href="#DejaVuSans-44" transform="translate(1265.429688 0.015625)"/>
     <use xlink:href="#DejaVuSans-57" transform="translate(1326.708984 0.015625)"/>
     <use xlink:href="#DejaVuSans-4c" transform="translate(1365.917969 0.015625)"/>
     <use xlink:href="#DejaVuSans-52" transform="translate(1393.701172 0.015625)"/>
     <use xlink:href="#DejaVuSans-51" transform="translate(1454.882812 0.015625)"/>
     <use xlink:href="#DejaVuSans-56" transform="translate(1518.261719 0.015625)"/>
     <use xlink:href="#DejaVuSans-3" transform="translate(1570.361328 0.015625)"/>
     <use xlink:href="#DejaVuSans-3e" transform="translate(1602.148438 0.015625)"/>
     <use xlink:href="#DejaVuSans-Oblique-57" transform="translate(1641.162109 0.015625)"/>
     <use xlink:href="#DejaVuSans-Oblique-5b" transform="translate(1680.371094 -14.984326) scale(0.7)"/>
     <use xlink:href="#DejaVuSans-f" transform="translate(1724.53125 0.015625)"/>
     <use xlink:href="#DejaVuSans-Oblique-57" transform="translate(1775.800781 0.015625)"/>
     <use xlink:href="#DejaVuSans-Oblique-5c" transform="translate(1815.009766 -14.984326) scale(0.7)"/>
     <use xlink:href="#DejaVuSans-f" transform="translate(1859.169922 0.015625)"/>
     <use xlink:href="#DejaVuSans-Oblique-57" transform="translate(1910.439453 0.015625)"/>
     <use xlink:href="#DejaVuSans-Oblique-5d" transform="translate(1949.648438 -14.984326) scale(0.7)"/>
     <use xlink:href="#DejaVuSans-40" transform="translate(1989.125977 0.015625)"/>
     <use xlink:href="#DejaVuSans-3" transform="translate(2028.139648 0.015625)"/>
     <use xlink:href="#DejaVuSans-3" transform="translate(2059.926758 0.015625)"/>
     <use xlink:href="#DejaVuSans-e" transform="translate(2091.713867 0.015625)"/>
     <use xlink:href="#DejaVuSans-3" transform="translate(2175.50293 0.015625)"/>
     <use xlink:href="#DejaVuSans-3" transform="translate(2207.290039 0.015625)"/>
     <use xlink:href="#DejaVuSans-16" transform="translate(2239.077148 0.015625)"/>
     <use xlink:href="#DejaVuSans-3" transform="translate(2302.700195 0.015625)"/>
     <use xlink:href="#DejaVuSans-55" transform="translate(2334.487305 0.015625)"/>
     <use xlink:href="#DejaVuSans-52" transform="translate(2373.600586 0.015625)"/>
     <use xlink:href="#DejaVuSans-57" transform="translate(2434.782227 0.015625)"/>
     <use xlink:href="#DejaVuSans-44" transform="translate(2473.991211 0.015625)"/>
     <use xlink:href="#DejaVuSans-57" transform="translate(2535.270508 0.015625)"/>
     <use xlink:href="#DejaVuSans-4c" transform="translate(2574.479492 0.015625)"/>
     <use xlink:href="#DejaVuSans-52" transform="translate(2602.262695 0.015625)"/>
     <use xlink:href="#DejaVuSans-51" transform="translate(2663.444336 0.015625)"/>
     <use xlink:href="#DejaVuSans-56" transform="translate(2726.823242 0.015625)"/>
     <use xlink:href="#DejaVuSans-3" transform="translate(2778.922852 0.015625)"/>
     <use xlink:href="#DejaVuSans-3e" transform="translate(2810.709961 0.015625)"/>
     <use xlink:href="#DejaVuSans-Oblique-55" transform="translate(2849.723633 0.015625)"/>
     <use xlink:href="#DejaVuSans-Oblique-5b" transform="translate(2890.836914 -14.984326) scale(0.7)"/>
     <use xlink:href="#DejaVuSans-f" transform="translate(2934.99707 0.015625)"/>
     <use xlink:href="#DejaVuSans-Oblique-55" transform="translate(2986.266602 0.015625)"/>
     <use xlink:href="#DejaVuSans-Oblique-5c" transform="translate(3027.379883 -14.984326) scale(0.7)"/>
     <use xlink:href="#DejaVuSans-f" transform="translate(3071.540039 0.015625)"/>
     <use xlink:href="#DejaVuSans-Oblique-55" transform="translate(3122.80957 0.015625)"/>
     <use xlink:href="#DejaVuSans-Oblique-5d" transform="translate(3163.922852 -14.984326) scale(0.7)"/>
     <use xlink:href="#DejaVuSans-40" transform="translate(3203.400391 0.015625)"/>
    </g>
   </g>
   <g id="text_6">
    <!-- straight arrows = translations   •   curved arrows = rotations -->
    <g style="fill: #666666" transform="translate(48.658828 289.18209) scale(0.09 -0.09)">
     <defs>
      <path id="DejaVuSans-4a" d="M 2906 1791 
Q 2906 2416 2648 2759 
Q 2391 3103 1925 3103 
Q 1463 3103 1205 2759 
Q 947 2416 947 1791 
Q 947 1169 1205 825 
Q 1463 481 1925 481 
Q 2391 481 2648 825 
Q 2906 1169 2906 1791 
z
M 3481 434 
Q 3481 -459 3084 -895 
Q 2688 -1331 1869 -1331 
Q 1566 -1331 1297 -1286 
Q 1028 -1241 775 -1147 
L 775 -588 
Q 1028 -725 1275 -790 
Q 1522 -856 1778 -856 
Q 2344 -856 2625 -561 
Q 2906 -266 2906 331 
L 2906 616 
Q 2728 306 2450 153 
Q 2172 0 1784 0 
Q 1141 0 747 490 
Q 353 981 353 1791 
Q 353 2603 747 3093 
Q 1141 3584 1784 3584 
Q 2172 3584 2450 3431 
Q 2728 3278 2906 2969 
L 2906 3500 
L 3481 3500 
L 3481 434 
z
" transform="scale(0.015625)"/>
      <path id="DejaVuSans-4b" d="M 3513 2113 
L 3513 0 
L 2938 0 
L 2938 2094 
Q 2938 2591 2744 2837 
Q 2550 3084 2163 3084 
Q 1697 3084 1428 2787 
Q 1159 2491 1159 1978 
L 1159 0 
L 581 0 
L 581 4863 
L 1159 4863 
L 1159 2956 
Q 1366 3272 1645 3428 
Q 1925 3584 2291 3584 
Q 2894 3584 3203 3211 
Q 3513 2838 3513 2113 
z
" transform="scale(0.015625)"/>
      <path id="DejaVuSans-5a" d="M 269 3500 
L 844 3500 
L 1563 769 
L 2278 3500 
L 2956 3500 
L 3675 769 
L 4391 3500 
L 4966 3500 
L 4050 0 
L 3372 0 
L 2619 2869 
L 1863 0 
L 1184 0 
L 269 3500 
z
" transform="scale(0.015625)"/>
      <path id="DejaVuSans-20" d="M 678 2906 
L 4684 2906 
L 4684 2381 
L 678 2381 
L 678 2906 
z
M 678 1631 
L 4684 1631 
L 4684 1100 
L 678 1100 
L 678 1631 
z
" transform="scale(0.015625)"/>
      <path id="DejaVuSans-b04" d="M 959 2381 
Q 959 2769 1229 3036 
Q 1500 3303 1894 3303 
Q 2281 3303 2548 3036 
Q 2816 2769 2816 2381 
Q 2816 1991 2547 1722 
Q 2278 1453 1888 1453 
Q 1497 1453 1228 1722 
Q 959 1991 959 2381 
z
" transform="scale(0.015625)"/>
      <path id="DejaVuSans-46" d="M 3122 3366 
L 3122 2828 
Q 2878 2963 2633 3030 
Q 2388 3097 2138 3097 
Q 1578 3097 1268 2742 
Q 959 2388 959 1747 
Q 959 1106 1268 751 
Q 1578 397 2138 397 
Q 2388 397 2633 464 
Q 2878 531 3122 666 
L 3122 134 
Q 2881 22 2623 -34 
Q 2366 -91 2075 -91 
Q 1284 -91 818 406 
Q 353 903 353 1747 
Q 353 2603 823 3093 
Q 1294 3584 2113 3584 
Q 2378 3584 2631 3529 
Q 2884 3475 3122 3366 
z
" transform="scale(0.015625)"/>
      <path id="DejaVuSans-58" d="M 544 1381 
L 544 3500 
L 1119 3500 
L 1119 1403 
Q 1119 906 1312 657 
Q 1506 409 1894 409 
Q 2359 409 2629 706 
Q 2900 1003 2900 1516 
L 2900 3500 
L 3475 3500 
L 3475 0 
L 2900 0 
L 2900 538 
Q 2691 219 2414 64 
Q 2138 -91 1772 -91 
Q 1169 -91 856 284 
Q 544 659 544 1381 
z
M 1991 3584 
L 1991 3584 
z
" transform="scale(0.015625)"/>
      <path id="DejaVuSans-59" d="M 191 3500 
L 800 3500 
L 1894 563 
L 2988 3500 
L 3597 3500 
L 2284 0 
L 1503 0 
L 191 3500 
z
" transform="scale(0.015625)"/>
     </defs>
     <use xlink:href="#DejaVuSans-56"/>
     <use xlink:href="#DejaVuSans-57" transform="translate(52.09375 0)"/>
     <use xlink:href="#DejaVuSans-55" transform="translate(91.296875 0)"/>
     <use xlink:href="#DejaVuSans-44" transform="translate(132.40625 0)"/>
     <use xlink:href="#DejaVuSans-4c" transform="translate(193.6875 0)"/>
     <use xlink:href="#DejaVuSans-4a" transform="translate(221.46875 0)"/>
     <use xlink:href="#DejaVuSans-4b" transform="translate(284.953125 0)"/>
     <use xlink:href="#DejaVuSans-57" transform="translate(348.328125 0)"/>
     <use xlink:href="#DejaVuSans-3" transform="translate(387.53125 0)"/>
     <use xlink:href="#DejaVuSans-44" transform="translate(419.3125 0)"/>
     <use xlink:href="#DejaVuSans-55" transform="translate(480.59375 0)"/>
     <use xlink:href="#DejaVuSans-55" transform="translate(519.953125 0)"/>
     <use xlink:href="#DejaVuSans-52" transform="translate(558.859375 0)"/>
     <use xlink:href="#DejaVuSans-5a" transform="translate(620.046875 0)"/>
     <use xlink:href="#DejaVuSans-56" transform="translate(701.828125 0)"/>
     <use xlink:href="#DejaVuSans-3" transform="translate(753.921875 0)"/>
     <use xlink:href="#DejaVuSans-20" transform="translate(785.703125 0)"/>
     <use xlink:href="#DejaVuSans-3" transform="translate(869.5 0)"/>
     <use xlink:href="#DejaVuSans-57" transform="translate(901.28125 0)"/>
     <use xlink:href="#DejaVuSans-55" transform="translate(940.484375 0)"/>
     <use xlink:href="#DejaVuSans-44" transform="translate(981.59375 0)"/>
     <use xlink:href="#DejaVuSans-51" transform="translate(1042.875 0)"/>
     <use xlink:href="#DejaVuSans-56" transform="translate(1106.25 0)"/>
     <use xlink:href="#DejaVuSans-4f" transform="translate(1158.34375 0)"/>
     <use xlink:href="#DejaVuSans-44" transform="translate(1186.125 0)"/>
     <use xlink:href="#DejaVuSans-57" transform="translate(1247.40625 0)"/>
     <use xlink:href="#DejaVuSans-4c" transform="translate(1286.609375 0)"/>
     <use xlink:href="#DejaVuSans-52" transform="translate(1314.390625 0)"/>
     <use xlink:href="#DejaVuSans-51" transform="translate(1375.578125 0)"/>
     <use xlink:href="#DejaVuSans-56" transform="translate(1438.953125 0)"/>
     <use xlink:href="#DejaVuSans-3" transform="translate(1491.046875 0)"/>
     <use xlink:href="#DejaVuSans-3" transform="translate(1522.828125 0)"/>
     <use xlink:href="#DejaVuSans-3" transform="translate(1554.609375 0)"/>
     <use xlink:href="#DejaVuSans-b04" transform="translate(1586.390625 0)"/>
     <use xlink:href="#DejaVuSans-3" transform="translate(1645.375 0)"/>
     <use xlink:href="#DejaVuSans-3" transform="translate(1677.15625 0)"/>
     <use xlink:href="#DejaVuSans-3" transform="translate(1708.9375 0)"/>
     <use xlink:href="#DejaVuSans-46" transform="translate(1740.71875 0)"/>
     <use xlink:href="#DejaVuSans-58" transform="translate(1795.703125 0)"/>
     <use xlink:href="#DejaVuSans-55" transform="translate(1859.078125 0)"/>
     <use xlink:href="#DejaVuSans-59" transform="translate(1900.1875 0)"/>
     <use xlink:href="#DejaVuSans-48" transform="translate(1959.375 0)"/>
     <use xlink:href="#DejaVuSans-47" transform="translate(2020.90625 0)"/>
     <use xlink:href="#DejaVuSans-3" transform="translate(2084.390625 0)"/>
     <use xlink:href="#DejaVuSans-44" transform="translate(2116.171875 0)"/>
     <use xlink:href="#DejaVuSans-55" transform="translate(2177.453125 0)"/>
     <use xlink:href="#DejaVuSans-55" transform="translate(2216.8125 0)"/>
     <use xlink:href="#DejaVuSans-52" transform="translate(2255.71875 0)"/>
     <use xlink:href="#DejaVuSans-5a" transform="translate(2316.90625 0)"/>
     <use xlink:href="#DejaVuSans-56" transform="translate(2398.6875 0)"/>
     <use xlink:href="#DejaVuSans-3" transform="translate(2450.78125 0)"/>
     <use xlink:href="#DejaVuSans-20" transform="translate(2482.5625 0)"/>
     <use xlink:href="#DejaVuSans-3" transform="translate(2566.359375 0)"/>
     <use xlink:href="#DejaVuSans-55" transform="translate(2598.140625 0)"/>
     <use xlink:href="#DejaVuSans-52" transform="translate(2637.046875 0)"/>
     <use xlink:href="#DejaVuSans-57" transform="translate(2698.234375 0)"/>
     <use xlink:href="#DejaVuSans-44" transform="translate(2737.4375 0)"/>
     <use xlink:href="#DejaVuSans-57" transform="translate(2798.71875 0)"/>
     <use xlink:href="#DejaVuSans-4c" transform="translate(2837.921875 0)"/>
     <use xlink:href="#DejaVuSans-52" transform="translate(2865.703125 0)"/>
     <use xlink:href="#DejaVuSans-51" transform="translate(2926.890625 0)"/>
     <use xlink:href="#DejaVuSans-56" transform="translate(2990.265625 0)"/>
    </g>
   </g>
   <g id="patch_2">
    <path d="M 185.565 157.002985 
Q 140.624104 183.438806 97.803287 208.627522 
" clip-path="url(#p89e2c518ed)" style="fill: none; stroke: #2ca02c; stroke-width: 2.2; stroke-linecap: round"/>
    <path d="M 104.049775 208.201625 
L 97.803287 208.627522 
L 101.210462 203.374794 
z
" clip-path="url(#p89e2c518ed)" style="fill: #2ca02c; stroke: #2ca02c; stroke-width: 2.2; stroke-linecap: round"/>
   </g>
   <g id="patch_3">
    <path d="M 123.201271 207.487695 
C 125.876225 208.436756 128.734015 208.757786 131.552868 208.425872 
C 134.37172 208.093957 137.076782 207.117912 139.458132 205.573481 
C 141.839482 204.029049 143.833884 201.957243 145.286568 199.51884 
C 146.739251 197.080437 147.61164 194.340189 147.836034 191.510746 
C 148.060428 188.681304 147.630869 185.837802 146.580691 183.200905 
C 145.530514 180.564009 143.887605 178.203739 141.77946 176.303259 
C 139.671315 174.40278 137.153914 173.012558 134.422616 172.240479 
C 131.691317 171.4684 128.81865 171.334966 126.027541 171.850531 
" clip-path="url(#p89e2c518ed)" style="fill: none; stroke: #2ca02c; stroke-width: 1.4; stroke-linejoin: miter"/>
   </g>
   <g id="patch_4">
    <path d="M 132.396572 170.674062 
Q 129.212056 171.262297 127.56675 171.566213 
" clip-path="url(#p89e2c518ed)" style="fill: none; stroke: #2ca02c; stroke-width: 1.4; stroke-linecap: round"/>
    <path d="M 132.722844 173.054395 
L 127.56675 171.566213 
L 131.850952 168.334246 
z
" clip-path="url(#p89e2c518ed)" style="fill: #2ca02c; stroke: #2ca02c; stroke-width: 1.4; stroke-linecap: round"/>
   </g>
   <g id="patch_5">
    <path d="M 185.565 157.002985 
Q 238.436642 157.002985 288.848609 157.002985 
" clip-path="url(#p89e2c518ed)" style="fill: none; stroke: #1f77b4; stroke-width: 2.2; stroke-linecap: round"/>
    <path d="M 283.248609 154.202985 
L 288.848609 157.002985 
L 283.248609 159.802985 
z
" clip-path="url(#p89e2c518ed)" style="fill: #1f77b4; stroke: #1f77b4; stroke-width: 2.2; stroke-linecap: round"/>
   </g>
   <g id="patch_6">
    <path d="M 265.830262 145.108152 
C 264.005821 142.933868 261.705363 141.208204 259.10741 140.065078 
C 256.509457 138.921951 253.682997 138.391717 250.847372 138.515523 
C 248.011747 138.639329 245.242256 139.413888 242.753819 140.779091 
C 240.265382 142.144294 238.12408 144.063889 236.496083 146.38891 
C 234.868085 148.713931 233.796625 151.382638 233.364849 154.18793 
C 232.933073 156.993223 233.152448 159.860608 234.005949 162.567568 
C 234.85945 165.274528 236.324413 167.749181 238.287153 169.799486 
C 240.249893 171.849791 242.65829 173.421302 245.325444 174.392067 
" clip-path="url(#p89e2c518ed)" style="fill: none; stroke: #1f77b4; stroke-width: 1.4; stroke-linejoin: miter"/>
   </g>
   <g id="patch_7">
    <path d="M 239.239265 172.176879 
Q 242.282355 173.284473 243.854592 173.856721 
" clip-path="url(#p89e2c518ed)" style="fill: none; stroke: #1f77b4; stroke-width: 1.4; stroke-linecap: round"/>
    <path d="M 240.164916 169.959762 
L 243.854592 173.856721 
L 238.523219 174.470287 
z
" clip-path="url(#p89e2c518ed)" style="fill: #1f77b4; stroke: #1f77b4; stroke-width: 1.4; stroke-linecap: round"/>
   </g>
   <g id="patch_8">
    <path d="M 185.565 157.002985 
Q 185.565 104.131343 185.565 53.719376 
" clip-path="url(#p89e2c518ed)" style="fill: none; stroke: #d62728; stroke-width: 2.2; stroke-linecap: round"/>
    <path d="M 182.765 59.319376 
L 185.565 53.719376 
L 188.365 59.319376 
z
" clip-path="url(#p89e2c518ed)" style="fill: #d62728; stroke: #d62728; stroke-width: 2.2; stroke-linecap: round"/>
   </g>
   <g id="patch_9">
    <path d="M 173.670167 76.737723 
C 171.495883 78.562164 169.770219 80.862623 168.627093 83.460575 
C 167.483966 86.058528 166.953732 88.884988 167.077538 91.720613 
C 167.201344 94.556238 167.975903 97.325729 169.341106 99.814166 
C 170.706309 102.302603 172.625904 104.443905 174.950925 106.071903 
C 177.275946 107.6999 179.944653 108.771361 182.749945 109.203136 
C 185.555238 109.634912 188.422623 109.415537 191.129583 108.562036 
C 193.836543 107.708535 196.311196 106.243572 198.361501 104.280832 
C 200.411805 102.318092 201.983317 99.909696 202.954082 97.242541 
" clip-path="url(#p89e2c518ed)" style="fill: none; stroke: #d62728; stroke-width: 1.4; stroke-linejoin: miter"/>
   </g>
   <g id="patch_10">
    <path d="M 200.738894 103.32872 
Q 201.846488 100.28563 202.418736 98.713393 
" clip-path="url(#p89e2c518ed)" style="fill: none; stroke: #d62728; stroke-width: 1.4; stroke-linecap: round"/>
    <path d="M 198.521777 102.403069 
L 202.418736 98.713393 
L 203.032301 104.044766 
z
" clip-path="url(#p89e2c518ed)" style="fill: #d62728; stroke: #d62728; stroke-width: 1.4; stroke-linecap: round"/>
   </g>
   <g id="line2d_1">
    <defs>
     <path id="m6c8005daf5" d="M 0 5 
C 1.326016 5 2.597899 4.473168 3.535534 3.535534 
C 4.473168 2.597899 5 1.326016 5 0 
C 5 -1.326016 4.473168 -2.597899 3.535534 -3.535534 
C 2.597899 -4.473168 1.326016 -5 0 -5 
C -1.326016 -5 -2.597899 -4.473168 -3.535534 -3.535534 
C -4.473168 -2.597899 -5 -1.326016 -5 0 
C -5 1.326016 -4.473168 2.597899 -3.535534 3.535534 
C -2.597899 4.473168 -1.326016 5 0 5 
z
" style="stroke: #000000"/>
    </defs>
    <g clip-path="url(#p89e2c518ed)">
     <use xlink:href="#m6c8005daf5" x="185.565" y="157.002985" style="stroke: #000000"/>
    </g>
   </g>
  </g>
 </g>
 <defs>
  <clipPath id="p89e2c518ed">
   <rect x="35.762015" y="7.2" width="299.60597" height="295.2"/>
  </clipPath>
 </defs>
</svg>
