<?xml version="1.0" encoding="utf-8" standalone="no"?>
<!DOCTYPE svg PUBLIC "-//W3C//DTD SVG 1.1//EN"
  "http://www.w3.org/Graphics/SVG/1.1/DTD/svg11.dtd">
<svg xmlns:xlink="http://www.w3.org/1999/xlink" width="878.889854pt" height="274.530524pt" viewBox="0 0 878.889854 274.530524" xmlns="http://www.w3.org/2000/svg" version="1.1">
 <metadata>
  <rdf:RDF xmlns:dc="http://purl.org/dc/elements/1.1/" xmlns:cc="http://creativecommons.org/ns#" xmlns:rdf="http://www.w3.org/1999/02/22-rdf-syntax-ns#">
   <cc:Work>
    <dc:type rdf:resource="http://purl.org/dc/dcmitype/StillImage"/>
    <dc:date>2026-07-03T00:00:43.958529</dc:date>
    <dc:format>image/svg+xml</dc:format>
    <dc:creator>
     <cc:Agent>
      <dc:title>Matplotlib v3.11.0, https://matplotlib.org/</dc:title>
     </cc:Agent>
    </dc:creator>
   </cc:Work>
  </rdf:RDF>
 </metadata>
 <defs>
  <style type="text/css">*{stroke-linejoin: round; stroke-linecap: butt}</style>
 </defs>
 <g id="figure_1">
  <g id="patch_1">
   <path d="M 0 274.530524 
L 878.889854 274.530524 
L 878.889854 0 
L 0 0 
z
" style="fill: #ffffff"/>
  </g>
  <g id="axes_1">
   <g id="line2d_1">
    <path d="M 54.233647 161.786721 
L 374.634477 161.786721 
" clip-path="url(#p1c55810fd7)" style="fill: none; stroke-dasharray: 4.44,1.92; stroke-dashoffset: 0; stroke: #999999; stroke-width: 1.2"/>
   </g>
   <g id="patch_2">
    <path d="M 20.308853 237.175152 
L 54.233647 237.175152 
L 54.233647 86.398291 
L 20.308853 86.398291 
z
" clip-path="url(#p1c55810fd7)" style="fill: url(#hb851fc0156); stroke: #000000; stroke-linejoin: miter"/>
   </g>
   <g id="line2d_2">
    <path d="M 54.233647 225.866887 
L 94.283751 225.36429 
L 134.333854 223.832075 
L 174.383958 221.190625 
L 214.434062 217.281773 
L 254.484165 211.809285 
L 294.534269 204.171767 
L 334.584373 192.809398 
L 374.634477 161.786721 
" clip-path="url(#p1c55810fd7)" style="fill: none; stroke-dasharray: 4.44,1.92; stroke-dashoffset: 0; stroke: #1f77b4; stroke-width: 1.2"/>
   </g>
   <g id="line2d_3">
    <defs>
     <path id="mb4171309fe" d="M 0 2 
C 0.530406 2 1.03916 1.789267 1.414214 1.414214 
C 1.789267 1.03916 2 0.530406 2 0 
C 2 -0.530406 1.789267 -1.03916 1.414214 -1.414214 
C 1.03916 -1.789267 0.530406 -2 0 -2 
C -0.530406 -2 -1.03916 -1.789267 -1.414214 -1.414214 
C -1.789267 -1.03916 -2 -0.530406 -2 0 
C -2 0.530406 -1.789267 1.03916 -1.414214 1.414214 
C -1.03916 1.789267 -0.530406 2 0 2 
z
" style="stroke: #999999"/>
    </defs>
    <g clip-path="url(#p1c55810fd7)">
     <use xlink:href="#mb4171309fe" x="54.233647" y="161.786721" style="fill: #999999; stroke: #999999"/>
     <use xlink:href="#mb4171309fe" x="94.283751" y="161.786721" style="fill: #999999; stroke: #999999"/>
     <use xlink:href="#mb4171309fe" x="134.333854" y="161.786721" style="fill: #999999; stroke: #999999"/>
     <use xlink:href="#mb4171309fe" x="174.383958" y="161.786721" style="fill: #999999; stroke: #999999"/>
     <use xlink:href="#mb4171309fe" x="214.434062" y="161.786721" style="fill: #999999; stroke: #999999"/>
     <use xlink:href="#mb4171309fe" x="254.484165" y="161.786721" style="fill: #999999; stroke: #999999"/>
     <use xlink:href="#mb4171309fe" x="294.534269" y="161.786721" style="fill: #999999; stroke: #999999"/>
     <use xlink:href="#mb4171309fe" x="334.584373" y="161.786721" style="fill: #999999; stroke: #999999"/>
     <use xlink:href="#mb4171309fe" x="374.634477" y="161.786721" style="fill: #999999; stroke: #999999"/>
    </g>
   </g>
   <g id="text_1">
    <!-- deformed -->
    <g style="fill: #404040" transform="translate(333.032312 93.26466) scale(0.09 -0.09)">
     <defs>
      <path id="DejaVuSans-47" d="M 2906 2969 
L 2906 4863 
L 3481 4863 
L 3481 0 
L 2906 0 
L 2906 525 
Q 2725 213 2448 61 
Q 2172 -91 1784 -91 
Q 1150 -91 751 415 
Q 353 922 353 1747 
Q 353 2572 751 3078 
Q 1150 3584 1784 3584 
Q 2172 3584 2448 3432 
Q 2725 3281 2906 2969 
z
M 947 1747 
Q 947 1113 1208 752 
Q 1469 391 1925 391 
Q 2381 391 2643 752 
Q 2906 1113 2906 1747 
Q 2906 2381 2643 2742 
Q 2381 3103 1925 3103 
Q 1469 3103 1208 2742 
Q 947 2381 947 1747 
z
" transform="scale(0.015625)"/>
      <path id="DejaVuSans-48" d="M 3597 1894 
L 3597 1613 
L 953 1613 
Q 991 1019 1311 708 
Q 1631 397 2203 397 
Q 2534 397 2845 478 
Q 3156 559 3463 722 
L 3463 178 
Q 3153 47 2828 -22 
Q 2503 -91 2169 -91 
Q 1331 -91 842 396 
Q 353 884 353 1716 
Q 353 2575 817 3079 
Q 1281 3584 2069 3584 
Q 2775 3584 3186 3129 
Q 3597 2675 3597 1894 
z
M 3022 2063 
Q 3016 2534 2758 2815 
Q 2500 3097 2075 3097 
Q 1594 3097 1305 2825 
Q 1016 2553 972 2059 
L 3022 2063 
z
" transform="scale(0.015625)"/>
      <path id="DejaVuSans-49" d="M 2375 4863 
L 2375 4384 
L 1825 4384 
Q 1516 4384 1395 4259 
Q 1275 4134 1275 3809 
L 1275 3500 
L 2222 3500 
L 2222 3053 
L 1275 3053 
L 1275 0 
L 697 0 
L 697 3053 
L 147 3053 
L 147 3500 
L 697 3500 
L 697 3744 
Q 697 4328 969 4595 
Q 1241 4863 1831 4863 
L 2375 4863 
z
" transform="scale(0.015625)"/>
      <path id="DejaVuSans-52" d="M 1959 3097 
Q 1497 3097 1228 2736 
Q 959 2375 959 1747 
Q 959 1119 1226 758 
Q 1494 397 1959 397 
Q 2419 397 2687 759 
Q 2956 1122 2956 1747 
Q 2956 2369 2687 2733 
Q 2419 3097 1959 3097 
z
M 1959 3584 
Q 2709 3584 3137 3096 
Q 3566 2609 3566 1747 
Q 3566 888 3137 398 
Q 2709 -91 1959 -91 
Q 1206 -91 779 398 
Q 353 888 353 1747 
Q 353 2609 779 3096 
Q 1206 3584 1959 3584 
z
" transform="scale(0.015625)"/>
      <path id="DejaVuSans-55" d="M 2631 2963 
Q 2534 3019 2420 3045 
Q 2306 3072 2169 3072 
Q 1681 3072 1420 2755 
Q 1159 2438 1159 1844 
L 1159 0 
L 581 0 
L 581 3500 
L 1159 3500 
L 1159 2956 
Q 1341 3275 1631 3429 
Q 1922 3584 2338 3584 
Q 2397 3584 2469 3576 
Q 2541 3569 2628 3553 
L 2631 2963 
z
" transform="scale(0.015625)"/>
      <path id="DejaVuSans-50" d="M 3328 2828 
Q 3544 3216 3844 3400 
Q 4144 3584 4550 3584 
Q 5097 3584 5394 3201 
Q 5691 2819 5691 2113 
L 5691 0 
L 5113 0 
L 5113 2094 
Q 5113 2597 4934 2840 
Q 4756 3084 4391 3084 
Q 3944 3084 3684 2787 
Q 3425 2491 3425 1978 
L 3425 0 
L 2847 0 
L 2847 2094 
Q 2847 2600 2669 2842 
Q 2491 3084 2119 3084 
Q 1678 3084 1418 2786 
Q 1159 2488 1159 1978 
L 1159 0 
L 581 0 
L 581 3500 
L 1159 3500 
L 1159 2956 
Q 1356 3278 1631 3431 
Q 1906 3584 2284 3584 
Q 2666 3584 2933 3390 
Q 3200 3197 3328 2828 
z
" transform="scale(0.015625)"/>
     </defs>
     <use xlink:href="#DejaVuSans-47"/>
     <use xlink:href="#DejaVuSans-48" transform="translate(63.484375 0)"/>
     <use xlink:href="#DejaVuSans-49" transform="translate(125.015625 0)"/>
     <use xlink:href="#DejaVuSans-52" transform="translate(160.21875 0)"/>
     <use xlink:href="#DejaVuSans-55" transform="translate(221.40625 0)"/>
     <use xlink:href="#DejaVuSans-50" transform="translate(260.765625 0)"/>
     <use xlink:href="#DejaVuSans-48" transform="translate(358.171875 0)"/>
     <use xlink:href="#DejaVuSans-47" transform="translate(419.703125 0)"/>
    </g>
    <!-- (bends up) -->
    <g style="fill: #404040" transform="translate(327.861531 104.067121) scale(0.09 -0.09)">
     <defs>
      <path id="DejaVuSans-b" d="M 1984 4856 
Q 1566 4138 1362 3434 
Q 1159 2731 1159 2009 
Q 1159 1288 1364 580 
Q 1569 -128 1984 -844 
L 1484 -844 
Q 1016 -109 783 600 
Q 550 1309 550 2009 
Q 550 2706 781 3412 
Q 1013 4119 1484 4856 
L 1984 4856 
z
" transform="scale(0.015625)"/>
      <path id="DejaVuSans-45" d="M 3116 1747 
Q 3116 2381 2855 2742 
Q 2594 3103 2138 3103 
Q 1681 3103 1420 2742 
Q 1159 2381 1159 1747 
Q 1159 1113 1420 752 
Q 1681 391 2138 391 
Q 2594 391 2855 752 
Q 3116 1113 3116 1747 
z
M 1159 2969 
Q 1341 3281 1617 3432 
Q 1894 3584 2278 3584 
Q 2916 3584 3314 3078 
Q 3713 2572 3713 1747 
Q 3713 922 3314 415 
Q 2916 -91 2278 -91 
Q 1894 -91 1617 61 
Q 1341 213 1159 525 
L 1159 0 
L 581 0 
L 581 4863 
L 1159 4863 
L 1159 2969 
z
" transform="scale(0.015625)"/>
      <path id="DejaVuSans-51" d="M 3513 2113 
L 3513 0 
L 2938 0 
L 2938 2094 
Q 2938 2591 2744 2837 
Q 2550 3084 2163 3084 
Q 1697 3084 1428 2787 
Q 1159 2491 1159 1978 
L 1159 0 
L 581 0 
L 581 3500 
L 1159 3500 
L 1159 2956 
Q 1366 3272 1645 3428 
Q 1925 3584 2291 3584 
Q 2894 3584 3203 3211 
Q 3513 2838 3513 2113 
z
" transform="scale(0.015625)"/>
      <path id="DejaVuSans-56" d="M 2834 3397 
L 2834 2853 
Q 2591 2978 2328 3040 
Q 2066 3103 1784 3103 
Q 1356 3103 1142 2972 
Q 928 2841 928 2578 
Q 928 2378 1081 2264 
Q 1234 2150 1697 2047 
L 1894 2003 
Q 2506 1872 2764 1633 
Q 3022 1394 3022 966 
Q 3022 478 2636 193 
Q 2250 -91 1575 -91 
Q 1294 -91 989 -36 
Q 684 19 347 128 
L 347 722 
Q 666 556 975 473 
Q 1284 391 1588 391 
Q 1994 391 2212 530 
Q 2431 669 2431 922 
Q 2431 1156 2273 1281 
Q 2116 1406 1581 1522 
L 1381 1569 
Q 847 1681 609 1914 
Q 372 2147 372 2553 
Q 372 3047 722 3315 
Q 1072 3584 1716 3584 
Q 2034 3584 2315 3537 
Q 2597 3491 2834 3397 
z
" transform="scale(0.015625)"/>
      <path id="DejaVuSans-3" transform="scale(0.015625)"/>
      <path id="DejaVuSans-58" d="M 544 1381 
L 544 3500 
L 1119 3500 
L 1119 1403 
Q 1119 906 1312 657 
Q 1506 409 1894 409 
Q 2359 409 2629 706 
Q 2900 1003 2900 1516 
L 2900 3500 
L 3475 3500 
L 3475 0 
L 2900 0 
L 2900 538 
Q 2691 219 2414 64 
Q 2138 -91 1772 -91 
Q 1169 -91 856 284 
Q 544 659 544 1381 
z
M 1991 3584 
L 1991 3584 
z
" transform="scale(0.015625)"/>
      <path id="DejaVuSans-53" d="M 1159 525 
L 1159 -1331 
L 581 -1331 
L 581 3500 
L 1159 3500 
L 1159 2969 
Q 1341 3281 1617 3432 
Q 1894 3584 2278 3584 
Q 2916 3584 3314 3078 
Q 3713 2572 3713 1747 
Q 3713 922 3314 415 
Q 2916 -91 2278 -91 
Q 1894 -91 1617 61 
Q 1341 213 1159 525 
z
M 3116 1747 
Q 3116 2381 2855 2742 
Q 2594 3103 2138 3103 
Q 1681 3103 1420 2742 
Q 1159 2381 1159 1747 
Q 1159 1113 1420 752 
Q 1681 391 2138 391 
Q 2594 391 2855 752 
Q 3116 1113 3116 1747 
z
" transform="scale(0.015625)"/>
      <path id="DejaVuSans-c" d="M 513 4856 
L 1013 4856 
Q 1481 4119 1714 3412 
Q 1947 2706 1947 2009 
Q 1947 1309 1714 600 
Q 1481 -109 1013 -844 
L 513 -844 
Q 928 -128 1133 580 
Q 1338 1288 1338 2009 
Q 1338 2731 1133 3434 
Q 928 4138 513 4856 
z
" transform="scale(0.015625)"/>
     </defs>
     <use xlink:href="#DejaVuSans-b"/>
     <use xlink:href="#DejaVuSans-45" transform="translate(39.015625 0)"/>
     <use xlink:href="#DejaVuSans-48" transform="translate(102.5 0)"/>
     <use xlink:href="#DejaVuSans-51" transform="translate(164.03125 0)"/>
     <use xlink:href="#DejaVuSans-47" transform="translate(227.40625 0)"/>
     <use xlink:href="#DejaVuSans-56" transform="translate(290.890625 0)"/>
     <use xlink:href="#DejaVuSans-3" transform="translate(342.984375 0)"/>
     <use xlink:href="#DejaVuSans-58" transform="translate(374.765625 0)"/>
     <use xlink:href="#DejaVuSans-53" transform="translate(438.140625 0)"/>
     <use xlink:href="#DejaVuSans-c" transform="translate(501.625 0)"/>
    </g>
   </g>
   <g id="text_2">
    <!-- clamped root -->
    <g transform="translate(7.471406 66.878709) scale(0.09 -0.09)">
     <defs>
      <path id="DejaVuSans-46" d="M 3122 3366 
L 3122 2828 
Q 2878 2963 2633 3030 
Q 2388 3097 2138 3097 
Q 1578 3097 1268 2742 
Q 959 2388 959 1747 
Q 959 1106 1268 751 
Q 1578 397 2138 397 
Q 2388 397 2633 464 
Q 2878 531 3122 666 
L 3122 134 
Q 2881 22 2623 -34 
Q 2366 -91 2075 -91 
Q 1284 -91 818 406 
Q 353 903 353 1747 
Q 353 2603 823 3093 
Q 1294 3584 2113 3584 
Q 2378 3584 2631 3529 
Q 2884 3475 3122 3366 
z
" transform="scale(0.015625)"/>
      <path id="DejaVuSans-4f" d="M 603 4863 
L 1178 4863 
L 1178 0 
L 603 0 
L 603 4863 
z
" transform="scale(0.015625)"/>
      <path id="DejaVuSans-44" d="M 2194 1759 
Q 1497 1759 1228 1600 
Q 959 1441 959 1056 
Q 959 750 1161 570 
Q 1363 391 1709 391 
Q 2188 391 2477 730 
Q 2766 1069 2766 1631 
L 2766 1759 
L 2194 1759 
z
M 3341 1997 
L 3341 0 
L 2766 0 
L 2766 531 
Q 2569 213 2275 61 
Q 1981 -91 1556 -91 
Q 1019 -91 701 211 
Q 384 513 384 1019 
Q 384 1609 779 1909 
Q 1175 2209 1959 2209 
L 2766 2209 
L 2766 2266 
Q 2766 2663 2505 2880 
Q 2244 3097 1772 3097 
Q 1472 3097 1187 3025 
Q 903 2953 641 2809 
L 641 3341 
Q 956 3463 1253 3523 
Q 1550 3584 1831 3584 
Q 2591 3584 2966 3190 
Q 3341 2797 3341 1997 
z
" transform="scale(0.015625)"/>
      <path id="DejaVuSans-57" d="M 1172 4494 
L 1172 3500 
L 2356 3500 
L 2356 3053 
L 1172 3053 
L 1172 1153 
Q 1172 725 1289 603 
Q 1406 481 1766 481 
L 2356 481 
L 2356 0 
L 1766 0 
Q 1100 0 847 248 
Q 594 497 594 1153 
L 594 3053 
L 172 3053 
L 172 3500 
L 594 3500 
L 594 4494 
L 1172 4494 
z
" transform="scale(0.015625)"/>
     </defs>
     <use xlink:href="#DejaVuSans-46"/>
     <use xlink:href="#DejaVuSans-4f" transform="translate(54.984375 0)"/>
     <use xlink:href="#DejaVuSans-44" transform="translate(82.765625 0)"/>
     <use xlink:href="#DejaVuSans-50" transform="translate(144.046875 0)"/>
     <use xlink:href="#DejaVuSans-53" transform="translate(241.453125 0)"/>
     <use xlink:href="#DejaVuSans-48" transform="translate(304.9375 0)"/>
     <use xlink:href="#DejaVuSans-47" transform="translate(366.46875 0)"/>
     <use xlink:href="#DejaVuSans-3" transform="translate(429.953125 0)"/>
     <use xlink:href="#DejaVuSans-55" transform="translate(461.734375 0)"/>
     <use xlink:href="#DejaVuSans-52" transform="translate(500.640625 0)"/>
     <use xlink:href="#DejaVuSans-52" transform="translate(561.828125 0)"/>
     <use xlink:href="#DejaVuSans-57" transform="translate(623.015625 0)"/>
    </g>
    <!-- all 6 DOF = 0 -->
    <g transform="translate(7.2 77.68117) scale(0.09 -0.09)">
     <defs>
      <path id="DejaVuSans-19" d="M 2113 2584 
Q 1688 2584 1439 2293 
Q 1191 2003 1191 1497 
Q 1191 994 1439 701 
Q 1688 409 2113 409 
Q 2538 409 2786 701 
Q 3034 994 3034 1497 
Q 3034 2003 2786 2293 
Q 2538 2584 2113 2584 
z
M 3366 4563 
L 3366 3988 
Q 3128 4100 2886 4159 
Q 2644 4219 2406 4219 
Q 1781 4219 1451 3797 
Q 1122 3375 1075 2522 
Q 1259 2794 1537 2939 
Q 1816 3084 2150 3084 
Q 2853 3084 3261 2657 
Q 3669 2231 3669 1497 
Q 3669 778 3244 343 
Q 2819 -91 2113 -91 
Q 1303 -91 875 529 
Q 447 1150 447 2328 
Q 447 3434 972 4092 
Q 1497 4750 2381 4750 
Q 2619 4750 2861 4703 
Q 3103 4656 3366 4563 
z
" transform="scale(0.015625)"/>
      <path id="DejaVuSans-27" d="M 1259 4147 
L 1259 519 
L 2022 519 
Q 2988 519 3436 956 
Q 3884 1394 3884 2338 
Q 3884 3275 3436 3711 
Q 2988 4147 2022 4147 
L 1259 4147 
z
M 628 4666 
L 1925 4666 
Q 3281 4666 3915 4102 
Q 4550 3538 4550 2338 
Q 4550 1131 3912 565 
Q 3275 0 1925 0 
L 628 0 
L 628 4666 
z
" transform="scale(0.015625)"/>
      <path id="DejaVuSans-32" d="M 2522 4238 
Q 1834 4238 1429 3725 
Q 1025 3213 1025 2328 
Q 1025 1447 1429 934 
Q 1834 422 2522 422 
Q 3209 422 3611 934 
Q 4013 1447 4013 2328 
Q 4013 3213 3611 3725 
Q 3209 4238 2522 4238 
z
M 2522 4750 
Q 3503 4750 4090 4092 
Q 4678 3434 4678 2328 
Q 4678 1225 4090 567 
Q 3503 -91 2522 -91 
Q 1538 -91 948 565 
Q 359 1222 359 2328 
Q 359 3434 948 4092 
Q 1538 4750 2522 4750 
z
" transform="scale(0.015625)"/>
      <path id="DejaVuSans-29" d="M 628 4666 
L 3309 4666 
L 3309 4134 
L 1259 4134 
L 1259 2759 
L 3109 2759 
L 3109 2228 
L 1259 2228 
L 1259 0 
L 628 0 
L 628 4666 
z
" transform="scale(0.015625)"/>
      <path id="DejaVuSans-20" d="M 678 2906 
L 4684 2906 
L 4684 2381 
L 678 2381 
L 678 2906 
z
M 678 1631 
L 4684 1631 
L 4684 1100 
L 678 1100 
L 678 1631 
z
" transform="scale(0.015625)"/>
      <path id="DejaVuSans-13" d="M 2034 4250 
Q 1547 4250 1301 3770 
Q 1056 3291 1056 2328 
Q 1056 1369 1301 889 
Q 1547 409 2034 409 
Q 2525 409 2770 889 
Q 3016 1369 3016 2328 
Q 3016 3291 2770 3770 
Q 2525 4250 2034 4250 
z
M 2034 4750 
Q 2819 4750 3233 4129 
Q 3647 3509 3647 2328 
Q 3647 1150 3233 529 
Q 2819 -91 2034 -91 
Q 1250 -91 836 529 
Q 422 1150 422 2328 
Q 422 3509 836 4129 
Q 1250 4750 2034 4750 
z
" transform="scale(0.015625)"/>
     </defs>
     <use xlink:href="#DejaVuSans-44"/>
     <use xlink:href="#DejaVuSans-4f" transform="translate(61.28125 0)"/>
     <use xlink:href="#DejaVuSans-4f" transform="translate(89.0625 0)"/>
     <use xlink:href="#DejaVuSans-3" transform="translate(116.84375 0)"/>
     <use xlink:href="#DejaVuSans-19" transform="translate(148.625 0)"/>
     <use xlink:href="#DejaVuSans-3" transform="translate(212.25 0)"/>
     <use xlink:href="#DejaVuSans-27" transform="translate(244.03125 0)"/>
     <use xlink:href="#DejaVuSans-32" transform="translate(321.03125 0)"/>
     <use xlink:href="#DejaVuSans-29" transform="translate(399.75 0)"/>
     <use xlink:href="#DejaVuSans-3" transform="translate(457.265625 0)"/>
     <use xlink:href="#DejaVuSans-20" transform="translate(489.046875 0)"/>
     <use xlink:href="#DejaVuSans-3" transform="translate(572.84375 0)"/>
     <use xlink:href="#DejaVuSans-13" transform="translate(604.625 0)"/>
    </g>
   </g>
   <g id="text_3">
    <!-- lift  $l(y)$  (elliptical, acts upward) -->
    <g style="fill: #1f77b4" transform="translate(134.784062 246.659863) scale(0.1 -0.1)">
     <defs>
      <path id="DejaVuSans-4c" d="M 603 3500 
L 1178 3500 
L 1178 0 
L 603 0 
L 603 3500 
z
M 603 4863 
L 1178 4863 
L 1178 4134 
L 603 4134 
L 603 4863 
z
" transform="scale(0.015625)"/>
      <path id="DejaVuSans-Oblique-4f" d="M 1172 4863 
L 1747 4863 
L 800 0 
L 225 0 
L 1172 4863 
z
" transform="scale(0.015625)"/>
      <path id="DejaVuSans-Oblique-5c" d="M 1588 -325 
Q 1188 -997 936 -1164 
Q 684 -1331 294 -1331 
L -159 -1331 
L -63 -850 
L 269 -850 
Q 509 -850 678 -719 
Q 847 -588 1056 -206 
L 1234 128 
L 459 3500 
L 1069 3500 
L 1650 819 
L 3256 3500 
L 3859 3500 
L 1588 -325 
z
" transform="scale(0.015625)"/>
      <path id="DejaVuSans-f" d="M 750 794 
L 1409 794 
L 1409 256 
L 897 -744 
L 494 -744 
L 750 256 
L 750 794 
z
" transform="scale(0.015625)"/>
      <path id="DejaVuSans-5a" d="M 269 3500 
L 844 3500 
L 1563 769 
L 2278 3500 
L 2956 3500 
L 3675 769 
L 4391 3500 
L 4966 3500 
L 4050 0 
L 3372 0 
L 2619 2869 
L 1863 0 
L 1184 0 
L 269 3500 
z
" transform="scale(0.015625)"/>
     </defs>
     <use xlink:href="#DejaVuSans-4f" transform="translate(0 0.015625)"/>
     <use xlink:href="#DejaVuSans-4c" transform="translate(27.783203 0.015625)"/>
     <use xlink:href="#DejaVuSans-49" transform="translate(55.566406 0.015625)"/>
     <use xlink:href="#DejaVuSans-57" transform="translate(88.771484 0.015625)"/>
     <use xlink:href="#DejaVuSans-3" transform="translate(127.980469 0.015625)"/>
     <use xlink:href="#DejaVuSans-3" transform="translate(159.767578 0.015625)"/>
     <use xlink:href="#DejaVuSans-Oblique-4f" transform="translate(191.554688 0.015625)"/>
     <use xlink:href="#DejaVuSans-b" transform="translate(219.337891 0.015625)"/>
     <use xlink:href="#DejaVuSans-Oblique-5c" transform="translate(258.351562 0.015625)"/>
     <use xlink:href="#DejaVuSans-c" transform="translate(317.53125 0.015625)"/>
     <use xlink:href="#DejaVuSans-3" transform="translate(356.544922 0.015625)"/>
     <use xlink:href="#DejaVuSans-3" transform="translate(388.332031 0.015625)"/>
     <use xlink:href="#DejaVuSans-b" transform="translate(420.119141 0.015625)"/>
     <use xlink:href="#DejaVuSans-48" transform="translate(459.132812 0.015625)"/>
     <use xlink:href="#DejaVuSans-4f" transform="translate(520.65625 0.015625)"/>
     <use xlink:href="#DejaVuSans-4f" transform="translate(548.439453 0.015625)"/>
     <use xlink:href="#DejaVuSans-4c" transform="translate(576.222656 0.015625)"/>
     <use xlink:href="#DejaVuSans-53" transform="translate(604.005859 0.015625)"/>
     <use xlink:href="#DejaVuSans-57" transform="translate(667.482422 0.015625)"/>
     <use xlink:href="#DejaVuSans-4c" transform="translate(706.691406 0.015625)"/>
     <use xlink:href="#DejaVuSans-46" transform="translate(734.474609 0.015625)"/>
     <use xlink:href="#DejaVuSans-44" transform="translate(789.455078 0.015625)"/>
     <use xlink:href="#DejaVuSans-4f" transform="translate(850.734375 0.015625)"/>
     <use xlink:href="#DejaVuSans-f" transform="translate(878.517578 0.015625)"/>
     <use xlink:href="#DejaVuSans-3" transform="translate(910.304688 0.015625)"/>
     <use xlink:href="#DejaVuSans-44" transform="translate(942.091797 0.015625)"/>
     <use xlink:href="#DejaVuSans-46" transform="translate(1003.371094 0.015625)"/>
     <use xlink:href="#DejaVuSans-57" transform="translate(1058.351562 0.015625)"/>
     <use xlink:href="#DejaVuSans-56" transform="translate(1097.560547 0.015625)"/>
     <use xlink:href="#DejaVuSans-3" transform="translate(1149.660156 0.015625)"/>
     <use xlink:href="#DejaVuSans-58" transform="translate(1181.447266 0.015625)"/>
     <use xlink:href="#DejaVuSans-53" transform="translate(1244.826172 0.015625)"/>
     <use xlink:href="#DejaVuSans-5a" transform="translate(1308.302734 0.015625)"/>
     <use xlink:href="#DejaVuSans-44" transform="translate(1390.089844 0.015625)"/>
     <use xlink:href="#DejaVuSans-55" transform="translate(1451.369141 0.015625)"/>
     <use xlink:href="#DejaVuSans-47" transform="translate(1490.482422 0.015625)"/>
     <use xlink:href="#DejaVuSans-c" transform="translate(1553.958984 0.015625)"/>
    </g>
   </g>
   <g id="text_4">
    <!-- span  $y$ -->
    <g transform="translate(146.584474 69.889074) scale(0.09 -0.09)">
     <use xlink:href="#DejaVuSans-56"/>
     <use xlink:href="#DejaVuSans-53" transform="translate(52.099609 0)"/>
     <use xlink:href="#DejaVuSans-44" transform="translate(115.576172 0)"/>
     <use xlink:href="#DejaVuSans-51" transform="translate(176.855469 0)"/>
     <use xlink:href="#DejaVuSans-3" transform="translate(240.234375 0)"/>
     <use xlink:href="#DejaVuSans-3" transform="translate(272.021484 0)"/>
     <use xlink:href="#DejaVuSans-Oblique-5c" transform="translate(303.808594 0)"/>
    </g>
   </g>
   <g id="text_5">
    <!-- lift  $z$ -->
    <g transform="translate(71.196044 33.348991) scale(0.09 -0.09)">
     <defs>
      <path id="DejaVuSans-Oblique-5d" d="M 744 3500 
L 3475 3500 
L 3372 2975 
L 738 459 
L 2913 459 
L 2822 0 
L -19 0 
L 84 525 
L 2719 3041 
L 653 3041 
L 744 3500 
z
" transform="scale(0.015625)"/>
     </defs>
     <use xlink:href="#DejaVuSans-4f" transform="translate(0 0.015625)"/>
     <use xlink:href="#DejaVuSans-4c" transform="translate(27.783203 0.015625)"/>
     <use xlink:href="#DejaVuSans-49" transform="translate(55.566406 0.015625)"/>
     <use xlink:href="#DejaVuSans-57" transform="translate(88.771484 0.015625)"/>
     <use xlink:href="#DejaVuSans-3" transform="translate(127.980469 0.015625)"/>
     <use xlink:href="#DejaVuSans-3" transform="translate(159.767578 0.015625)"/>
     <use xlink:href="#DejaVuSans-Oblique-5d" transform="translate(191.554688 0.015625)"/>
    </g>
   </g>
   <g id="text_6">
    <!-- (a)  side view — cantilever bends up under lift -->
    <g transform="translate(83.360717 16.318125) scale(0.12 -0.12)">
     <defs>
      <path id="DejaVuSans-59" d="M 191 3500 
L 800 3500 
L 1894 563 
L 2988 3500 
L 3597 3500 
L 2284 0 
L 1503 0 
L 191 3500 
z
" transform="scale(0.015625)"/>
      <path id="DejaVuSans-af6" d="M 313 1978 
L 6088 1978 
L 6088 1528 
L 313 1528 
L 313 1978 
z
" transform="scale(0.015625)"/>
     </defs>
     <use xlink:href="#DejaVuSans-b"/>
     <use xlink:href="#DejaVuSans-44" transform="translate(39.015625 0)"/>
     <use xlink:href="#DejaVuSans-c" transform="translate(100.296875 0)"/>
     <use xlink:href="#DejaVuSans-3" transform="translate(139.3125 0)"/>
     <use xlink:href="#DejaVuSans-3" transform="translate(171.09375 0)"/>
     <use xlink:href="#DejaVuSans-56" transform="translate(202.875 0)"/>
     <use xlink:href="#DejaVuSans-4c" transform="translate(254.96875 0)"/>
     <use xlink:href="#DejaVuSans-47" transform="translate(282.75 0)"/>
     <use xlink:href="#DejaVuSans-48" transform="translate(346.234375 0)"/>
     <use xlink:href="#DejaVuSans-3" transform="translate(407.765625 0)"/>
     <use xlink:href="#DejaVuSans-59" transform="translate(439.546875 0)"/>
     <use xlink:href="#DejaVuSans-4c" transform="translate(498.734375 0)"/>
     <use xlink:href="#DejaVuSans-48" transform="translate(526.515625 0)"/>
     <use xlink:href="#DejaVuSans-5a" transform="translate(588.046875 0)"/>
     <use xlink:href="#DejaVuSans-3" transform="translate(669.828125 0)"/>
     <use xlink:href="#DejaVuSans-af6" transform="translate(701.609375 0)"/>
     <use xlink:href="#DejaVuSans-3" transform="translate(801.609375 0)"/>
     <use xlink:href="#DejaVuSans-46" transform="translate(833.390625 0)"/>
     <use xlink:href="#DejaVuSans-44" transform="translate(888.375 0)"/>
     <use xlink:href="#DejaVuSans-51" transform="translate(949.65625 0)"/>
     <use xlink:href="#DejaVuSans-57" transform="translate(1013.03125 0)"/>
     <use xlink:href="#DejaVuSans-4c" transform="translate(1052.234375 0)"/>
     <use xlink:href="#DejaVuSans-4f" transform="translate(1080.015625 0)"/>
     <use xlink:href="#DejaVuSans-48" transform="translate(1107.796875 0)"/>
     <use xlink:href="#DejaVuSans-59" transform="translate(1169.328125 0)"/>
     <use xlink:href="#DejaVuSans-48" transform="translate(1228.515625 0)"/>
     <use xlink:href="#DejaVuSans-55" transform="translate(1290.046875 0)"/>
     <use xlink:href="#DejaVuSans-3" transform="translate(1331.15625 0)"/>
     <use xlink:href="#DejaVuSans-45" transform="translate(1362.9375 0)"/>
     <use xlink:href="#DejaVuSans-48" transform="translate(1426.421875 0)"/>
     <use xlink:href="#DejaVuSans-51" transform="translate(1487.953125 0)"/>
     <use xlink:href="#DejaVuSans-47" transform="translate(1551.328125 0)"/>
     <use xlink:href="#DejaVuSans-56" transform="translate(1614.8125 0)"/>
     <use xlink:href="#DejaVuSans-3" transform="translate(1666.90625 0)"/>
     <use xlink:href="#DejaVuSans-58" transform="translate(1698.6875 0)"/>
     <use xlink:href="#DejaVuSans-53" transform="translate(1762.0625 0)"/>
     <use xlink:href="#DejaVuSans-3" transform="translate(1825.546875 0)"/>
     <use xlink:href="#DejaVuSans-58" transform="translate(1857.328125 0)"/>
     <use xlink:href="#DejaVuSans-51" transform="translate(1920.703125 0)"/>
     <use xlink:href="#DejaVuSans-47" transform="translate(1984.078125 0)"/>
     <use xlink:href="#DejaVuSans-48" transform="translate(2047.5625 0)"/>
     <use xlink:href="#DejaVuSans-55" transform="translate(2109.09375 0)"/>
     <use xlink:href="#DejaVuSans-3" transform="translate(2150.203125 0)"/>
     <use xlink:href="#DejaVuSans-4f" transform="translate(2181.984375 0)"/>
     <use xlink:href="#DejaVuSans-4c" transform="translate(2209.765625 0)"/>
     <use xlink:href="#DejaVuSans-49" transform="translate(2237.546875 0)"/>
     <use xlink:href="#DejaVuSans-57" transform="translate(2271 0)"/>
    </g>
   </g>
   <g id="line2d_4">
    <path d="M 54.233647 161.786721 
L 94.283751 161.021058 
L 134.333854 158.724066 
L 174.383958 154.895748 
L 214.434062 149.536102 
L 254.484165 142.645128 
L 294.534269 134.222827 
L 334.584373 124.269198 
L 374.634477 112.784242 
" clip-path="url(#p1c55810fd7)" style="fill: none; stroke: #404040; stroke-width: 2.4; stroke-linecap: square"/>
   </g>
   <g id="line2d_5">
    <defs>
     <path id="m6c54e2b9e8" d="M 0 2 
C 0.530406 2 1.03916 1.789267 1.414214 1.414214 
C 1.789267 1.03916 2 0.530406 2 0 
C 2 -0.530406 1.789267 -1.03916 1.414214 -1.414214 
C 1.03916 -1.789267 0.530406 -2 0 -2 
C -0.530406 -2 -1.03916 -1.789267 -1.414214 -1.414214 
C -1.789267 -1.03916 -2 -0.530406 -2 0 
C -2 0.530406 -1.789267 1.03916 -1.414214 1.414214 
C -1.03916 1.789267 -0.530406 2 0 2 
z
" style="stroke: #404040"/>
    </defs>
    <g clip-path="url(#p1c55810fd7)">
     <use xlink:href="#m6c54e2b9e8" x="54.233647" y="161.786721" style="fill: #404040; stroke: #404040"/>
     <use xlink:href="#m6c54e2b9e8" x="94.283751" y="161.021058" style="fill: #404040; stroke: #404040"/>
     <use xlink:href="#m6c54e2b9e8" x="134.333854" y="158.724066" style="fill: #404040; stroke: #404040"/>
     <use xlink:href="#m6c54e2b9e8" x="174.383958" y="154.895748" style="fill: #404040; stroke: #404040"/>
     <use xlink:href="#m6c54e2b9e8" x="214.434062" y="149.536102" style="fill: #404040; stroke: #404040"/>
     <use xlink:href="#m6c54e2b9e8" x="254.484165" y="142.645128" style="fill: #404040; stroke: #404040"/>
     <use xlink:href="#m6c54e2b9e8" x="294.534269" y="134.222827" style="fill: #404040; stroke: #404040"/>
     <use xlink:href="#m6c54e2b9e8" x="334.584373" y="124.269198" style="fill: #404040; stroke: #404040"/>
     <use xlink:href="#m6c54e2b9e8" x="374.634477" y="112.784242" style="fill: #404040; stroke: #404040"/>
    </g>
   </g>
   <g id="patch_3">
    <path d="M 54.233647 225.866887 
Q 54.233647 193.826804 54.233647 163.575576 
" clip-path="url(#p1c55810fd7)" style="fill: none; stroke: #1f77b4; stroke-width: 1.6; stroke-linecap: round"/>
    <path d="M 51.433647 169.175576 
L 54.233647 163.575576 
L 57.033647 169.175576 
z
" clip-path="url(#p1c55810fd7)" style="fill: #1f77b4; stroke: #1f77b4; stroke-width: 1.6; stroke-linecap: round"/>
   </g>
   <g id="patch_4">
    <path d="M 94.283751 225.36429 
Q 94.283751 193.575506 94.283751 163.575576 
" clip-path="url(#p1c55810fd7)" style="fill: none; stroke: #1f77b4; stroke-width: 1.6; stroke-linecap: round"/>
    <path d="M 91.483751 169.175576 
L 94.283751 163.575576 
L 97.083751 169.175576 
z
" clip-path="url(#p1c55810fd7)" style="fill: #1f77b4; stroke: #1f77b4; stroke-width: 1.6; stroke-linecap: round"/>
   </g>
   <g id="patch_5">
    <path d="M 134.333854 223.832075 
Q 134.333854 192.809398 134.333854 163.575576 
" clip-path="url(#p1c55810fd7)" style="fill: none; stroke: #1f77b4; stroke-width: 1.6; stroke-linecap: round"/>
    <path d="M 131.533854 169.175576 
L 134.333854 163.575576 
L 137.133854 169.175576 
z
" clip-path="url(#p1c55810fd7)" style="fill: #1f77b4; stroke: #1f77b4; stroke-width: 1.6; stroke-linecap: round"/>
   </g>
   <g id="patch_6">
    <path d="M 174.383958 221.190625 
Q 174.383958 191.488673 174.383958 163.575576 
" clip-path="url(#p1c55810fd7)" style="fill: none; stroke: #1f77b4; stroke-width: 1.6; stroke-linecap: round"/>
    <path d="M 171.583958 169.175576 
L 174.383958 163.575576 
L 177.183958 169.175576 
z
" clip-path="url(#p1c55810fd7)" style="fill: #1f77b4; stroke: #1f77b4; stroke-width: 1.6; stroke-linecap: round"/>
   </g>
   <g id="patch_7">
    <path d="M 214.434062 217.281773 
Q 214.434062 189.534247 214.434062 163.575576 
" clip-path="url(#p1c55810fd7)" style="fill: none; stroke: #1f77b4; stroke-width: 1.6; stroke-linecap: round"/>
    <path d="M 211.634062 169.175576 
L 214.434062 163.575576 
L 217.234062 169.175576 
z
" clip-path="url(#p1c55810fd7)" style="fill: #1f77b4; stroke: #1f77b4; stroke-width: 1.6; stroke-linecap: round"/>
   </g>
   <g id="patch_8">
    <path d="M 254.484165 211.809285 
Q 254.484165 186.798003 254.484165 163.575576 
" clip-path="url(#p1c55810fd7)" style="fill: none; stroke: #1f77b4; stroke-width: 1.6; stroke-linecap: round"/>
    <path d="M 251.684165 169.175576 
L 254.484165 163.575576 
L 257.284165 169.175576 
z
" clip-path="url(#p1c55810fd7)" style="fill: #1f77b4; stroke: #1f77b4; stroke-width: 1.6; stroke-linecap: round"/>
   </g>
   <g id="patch_9">
    <path d="M 294.534269 204.171767 
Q 294.534269 182.979244 294.534269 163.575576 
" clip-path="url(#p1c55810fd7)" style="fill: none; stroke: #1f77b4; stroke-width: 1.6; stroke-linecap: round"/>
    <path d="M 291.734269 169.175576 
L 294.534269 163.575576 
L 297.334269 169.175576 
z
" clip-path="url(#p1c55810fd7)" style="fill: #1f77b4; stroke: #1f77b4; stroke-width: 1.6; stroke-linecap: round"/>
   </g>
   <g id="patch_10">
    <path d="M 334.584373 192.809398 
Q 334.584373 177.29806 334.584373 163.575576 
" clip-path="url(#p1c55810fd7)" style="fill: none; stroke: #1f77b4; stroke-width: 1.6; stroke-linecap: round"/>
    <path d="M 331.784373 169.175576 
L 334.584373 163.575576 
L 337.384373 169.175576 
z
" clip-path="url(#p1c55810fd7)" style="fill: #1f77b4; stroke: #1f77b4; stroke-width: 1.6; stroke-linecap: round"/>
   </g>
   <g id="patch_11">
    <path d="M 65.541911 67.551183 
Q 103.236127 67.551183 138.917881 67.551183 
" clip-path="url(#p1c55810fd7)" style="fill: none; stroke: #000000; stroke-width: 1.8; stroke-linecap: round"/>
    <path d="M 134.117881 65.151183 
L 138.917881 67.551183 
L 134.117881 69.951183 
z
" clip-path="url(#p1c55810fd7)" style="stroke: #000000; stroke-width: 1.8; stroke-linecap: round"/>
   </g>
   <g id="patch_12">
    <path d="M 65.541911 67.551183 
Q 65.541911 50.588786 65.541911 35.638851 
" clip-path="url(#p1c55810fd7)" style="fill: none; stroke: #000000; stroke-width: 1.8; stroke-linecap: round"/>
    <path d="M 63.141911 40.438851 
L 65.541911 35.638851 
L 67.941911 40.438851 
z
" clip-path="url(#p1c55810fd7)" style="stroke: #000000; stroke-width: 1.8; stroke-linecap: round"/>
   </g>
  </g>
  <g id="axes_2">
   <g id="FillBetweenPolyCollection_1">
    <defs>
     <path id="md93c71ff35" d="M 491.793289 -119.763988 
L 491.793289 -208.022786 
L 532.565017 -192.280979 
L 573.336744 -176.539171 
L 614.108471 -160.797363 
L 654.880198 -145.055556 
L 695.651925 -129.313748 
L 736.423653 -113.571941 
L 777.19538 -97.830133 
L 817.967107 -82.088325 
L 817.967107 -43.714935 
L 817.967107 -43.714935 
L 777.19538 -53.221067 
L 736.423653 -62.727198 
L 695.651925 -72.23333 
L 654.880198 -81.739462 
L 614.108471 -91.245593 
L 573.336744 -100.751725 
L 532.565017 -110.257857 
L 491.793289 -119.763988 
z
" style="stroke: #eaf2fb"/>
    </defs>
    <g clip-path="url(#p278f510e2c)">
     <use xlink:href="#md93c71ff35" x="0" y="274.530524" style="fill: #eaf2fb; stroke: #eaf2fb"/>
    </g>
   </g>
   <g id="patch_13">
    <path d="M 553.190714 101.811257 
C 553.190714 105.02767 552.937968 108.239117 552.43481 111.41593 
C 551.931652 114.592744 551.179636 117.725114 550.18571 120.784105 
" clip-path="url(#p278f510e2c)" style="fill: none; stroke: #666666; stroke-linejoin: miter"/>
   </g>
   <g id="line2d_6">
    <path d="M 491.793289 66.507738 
L 532.565017 82.249546 
L 573.336744 97.991353 
L 614.108471 113.733161 
L 654.880198 129.474968 
L 695.651925 145.216776 
L 736.423653 160.958584 
L 777.19538 176.700391 
L 817.967107 192.442199 
" clip-path="url(#p278f510e2c)" style="fill: none; stroke: #000000; stroke-width: 1.5; stroke-linecap: square"/>
   </g>
   <g id="line2d_7">
    <path d="M 491.793289 154.766536 
L 532.565017 164.272668 
L 573.336744 173.778799 
L 614.108471 183.284931 
L 654.880198 192.791062 
L 695.651925 202.297194 
L 736.423653 211.803326 
L 777.19538 221.309457 
L 817.967107 230.815589 
" clip-path="url(#p278f510e2c)" style="fill: none; stroke: #000000; stroke-width: 1.5; stroke-linecap: square"/>
   </g>
   <g id="line2d_8">
    <path d="M 491.793289 66.507738 
L 491.793289 154.766536 
" clip-path="url(#p278f510e2c)" style="fill: none; stroke: #000000; stroke-width: 1.5; stroke-linecap: square"/>
   </g>
   <g id="line2d_9">
    <path d="M 817.967107 192.442199 
L 817.967107 230.815589 
" clip-path="url(#p278f510e2c)" style="fill: none; stroke: #000000; stroke-width: 1.5; stroke-linecap: square"/>
   </g>
   <g id="patch_14">
    <path d="M 457.257238 58.83306 
L 491.793289 58.83306 
L 491.793289 162.441214 
L 457.257238 162.441214 
z
" clip-path="url(#p278f510e2c)" style="fill: url(#hb851fc0156); stroke: #000000; stroke-linejoin: miter"/>
   </g>
   <g id="line2d_10">
    <path d="M 491.793289 101.811257 
L 654.880198 101.811257 
" clip-path="url(#p278f510e2c)" style="fill: none; stroke-dasharray: 1,1.65; stroke-dashoffset: 0; stroke: #808080"/>
   </g>
   <g id="text_7">
    <!-- streamwise -->
    <g style="fill: #9467bd" transform="translate(519.97514 81.826336) scale(0.085 -0.085)">
     <use xlink:href="#DejaVuSans-56"/>
     <use xlink:href="#DejaVuSans-57" transform="translate(52.09375 0)"/>
     <use xlink:href="#DejaVuSans-55" transform="translate(91.296875 0)"/>
     <use xlink:href="#DejaVuSans-48" transform="translate(130.203125 0)"/>
     <use xlink:href="#DejaVuSans-44" transform="translate(191.734375 0)"/>
     <use xlink:href="#DejaVuSans-50" transform="translate(253.015625 0)"/>
     <use xlink:href="#DejaVuSans-5a" transform="translate(350.421875 0)"/>
     <use xlink:href="#DejaVuSans-4c" transform="translate(432.203125 0)"/>
     <use xlink:href="#DejaVuSans-56" transform="translate(459.984375 0)"/>
     <use xlink:href="#DejaVuSans-48" transform="translate(512.078125 0)"/>
    </g>
    <!-- section -->
    <g style="fill: #9467bd" transform="translate(538.118656 92.02866) scale(0.085 -0.085)">
     <use xlink:href="#DejaVuSans-56"/>
     <use xlink:href="#DejaVuSans-48" transform="translate(52.09375 0)"/>
     <use xlink:href="#DejaVuSans-46" transform="translate(113.625 0)"/>
     <use xlink:href="#DejaVuSans-57" transform="translate(168.609375 0)"/>
     <use xlink:href="#DejaVuSans-4c" transform="translate(207.8125 0)"/>
     <use xlink:href="#DejaVuSans-52" transform="translate(235.59375 0)"/>
     <use xlink:href="#DejaVuSans-51" transform="translate(296.78125 0)"/>
    </g>
   </g>
   <g id="text_8">
    <!-- cut ⊥ beam -->
    <g style="fill: #2ca02c" transform="translate(532.632257 164.222081) scale(0.085 -0.085)">
     <defs>
      <path id="DejaVuSans-d2f" d="M 547 0 
L 547 397 
L 2588 397 
L 2588 4481 
L 2988 4481 
L 2988 397 
L 5028 397 
L 5028 0 
L 547 0 
z
" transform="scale(0.015625)"/>
     </defs>
     <use xlink:href="#DejaVuSans-46"/>
     <use xlink:href="#DejaVuSans-58" transform="translate(54.984375 0)"/>
     <use xlink:href="#DejaVuSans-57" transform="translate(118.359375 0)"/>
     <use xlink:href="#DejaVuSans-3" transform="translate(157.5625 0)"/>
     <use xlink:href="#DejaVuSans-d2f" transform="translate(189.34375 0)"/>
     <use xlink:href="#DejaVuSans-3" transform="translate(276.453125 0)"/>
     <use xlink:href="#DejaVuSans-45" transform="translate(308.234375 0)"/>
     <use xlink:href="#DejaVuSans-48" transform="translate(371.71875 0)"/>
     <use xlink:href="#DejaVuSans-44" transform="translate(433.25 0)"/>
     <use xlink:href="#DejaVuSans-50" transform="translate(494.53125 0)"/>
    </g>
   </g>
   <g id="patch_15">
    <path d="M 695.651925 162.607467 
Q 695.651925 163.768287 695.651925 164.929106 
" style="fill: none; stroke: #333333; stroke-linecap: round"/>
    <path d="M 693.651925 166.607467 
L 695.651925 162.607467 
L 697.651925 166.607467 
" style="fill: none; stroke: #333333; stroke-linecap: round"/>
    <path d="M 697.651925 160.929106 
L 695.651925 164.929106 
L 693.651925 160.929106 
" style="fill: none; stroke: #333333; stroke-linecap: round"/>
   </g>
   <g id="text_9">
    <!-- $e$ -->
    <g transform="translate(700.256732 163.767912) scale(0.11 -0.11)">
     <defs>
      <path id="DejaVuSans-Oblique-48" d="M 3078 2063 
Q 3088 2113 3092 2166 
Q 3097 2219 3097 2272 
Q 3097 2653 2873 2875 
Q 2650 3097 2266 3097 
Q 1838 3097 1509 2826 
Q 1181 2556 1013 2059 
L 3078 2063 
z
M 3578 1613 
L 903 1613 
Q 884 1494 878 1425 
Q 872 1356 872 1306 
Q 872 872 1139 634 
Q 1406 397 1894 397 
Q 2269 397 2603 481 
Q 2938 566 3225 728 
L 3116 159 
Q 2806 34 2476 -28 
Q 2147 -91 1806 -91 
Q 1078 -91 686 257 
Q 294 606 294 1247 
Q 294 1794 489 2264 
Q 684 2734 1063 3103 
Q 1306 3334 1642 3459 
Q 1978 3584 2356 3584 
Q 2950 3584 3301 3228 
Q 3653 2872 3653 2272 
Q 3653 2128 3634 1964 
Q 3616 1800 3578 1613 
z
" transform="scale(0.015625)"/>
     </defs>
     <use xlink:href="#DejaVuSans-Oblique-48"/>
    </g>
   </g>
   <g id="text_10">
    <!-- torque  $q(y)=l(y)\,e$ -->
    <g style="fill: #d62728" transform="translate(749.854339 137.167082) scale(0.1 -0.1)">
     <defs>
      <path id="DejaVuSans-54" d="M 947 1747 
Q 947 1113 1208 752 
Q 1469 391 1925 391 
Q 2381 391 2643 752 
Q 2906 1113 2906 1747 
Q 2906 2381 2643 2742 
Q 2381 3103 1925 3103 
Q 1469 3103 1208 2742 
Q 947 2381 947 1747 
z
M 2906 525 
Q 2725 213 2448 61 
Q 2172 -91 1784 -91 
Q 1150 -91 751 415 
Q 353 922 353 1747 
Q 353 2572 751 3078 
Q 1150 3584 1784 3584 
Q 2172 3584 2448 3432 
Q 2725 3281 2906 2969 
L 2906 3500 
L 3481 3500 
L 3481 -1331 
L 2906 -1331 
L 2906 525 
z
" transform="scale(0.015625)"/>
      <path id="DejaVuSans-Oblique-54" d="M 2669 525 
Q 2438 222 2123 65 
Q 1809 -91 1428 -91 
Q 897 -91 595 267 
Q 294 625 294 1253 
Q 294 1759 480 2231 
Q 666 2703 1013 3078 
Q 1238 3322 1530 3453 
Q 1822 3584 2144 3584 
Q 2531 3584 2781 3431 
Q 3031 3278 3144 2969 
L 3244 3494 
L 3822 3494 
L 2888 -1319 
L 2309 -1319 
L 2669 525 
z
M 891 1338 
Q 891 875 1084 633 
Q 1278 391 1644 391 
Q 2188 391 2572 911 
Q 2956 1431 2956 2175 
Q 2956 2625 2757 2864 
Q 2559 3103 2188 3103 
Q 1916 3103 1684 2976 
Q 1453 2850 1281 2606 
Q 1100 2350 995 2006 
Q 891 1663 891 1338 
z
" transform="scale(0.015625)"/>
     </defs>
     <use xlink:href="#DejaVuSans-57" transform="translate(0 0.015625)"/>
     <use xlink:href="#DejaVuSans-52" transform="translate(39.208984 0.015625)"/>
     <use xlink:href="#DejaVuSans-55" transform="translate(100.390625 0.015625)"/>
     <use xlink:href="#DejaVuSans-54" transform="translate(139.503906 0.015625)"/>
     <use xlink:href="#DejaVuSans-58" transform="translate(202.980469 0.015625)"/>
     <use xlink:href="#DejaVuSans-48" transform="translate(266.359375 0.015625)"/>
     <use xlink:href="#DejaVuSans-3" transform="translate(327.882812 0.015625)"/>
     <use xlink:href="#DejaVuSans-3" transform="translate(359.669922 0.015625)"/>
     <use xlink:href="#DejaVuSans-Oblique-54" transform="translate(391.457031 0.015625)"/>
     <use xlink:href="#DejaVuSans-b" transform="translate(454.933594 0.015625)"/>
     <use xlink:href="#DejaVuSans-Oblique-5c" transform="translate(493.947266 0.015625)"/>
     <use xlink:href="#DejaVuSans-c" transform="translate(553.126953 0.015625)"/>
     <use xlink:href="#DejaVuSans-20" transform="translate(611.623047 0.015625)"/>
     <use xlink:href="#DejaVuSans-Oblique-4f" transform="translate(714.894531 0.015625)"/>
     <use xlink:href="#DejaVuSans-b" transform="translate(742.677734 0.015625)"/>
     <use xlink:href="#DejaVuSans-Oblique-5c" transform="translate(781.691406 0.015625)"/>
     <use xlink:href="#DejaVuSans-c" transform="translate(840.871094 0.015625)"/>
     <use xlink:href="#DejaVuSans-Oblique-48" transform="translate(896.120442 0.015625)"/>
    </g>
   </g>
   <g id="text_11">
    <!-- $\Lambda$ (sweep) -->
    <g style="fill: #4c4c4c" transform="translate(562.784061 112.555806) scale(0.09 -0.09)">
     <defs>
      <path id="DejaVuSans-330" d="M 716 0 
L 50 0 
L 1831 4666 
L 2547 4666 
L 4325 0 
L 3669 0 
L 2188 4044 
L 716 0 
z
" transform="scale(0.015625)"/>
     </defs>
     <use xlink:href="#DejaVuSans-330" transform="translate(0 0.125)"/>
     <use xlink:href="#DejaVuSans-3" transform="translate(68.408203 0.125)"/>
     <use xlink:href="#DejaVuSans-b" transform="translate(100.195312 0.125)"/>
     <use xlink:href="#DejaVuSans-56" transform="translate(139.208984 0.125)"/>
     <use xlink:href="#DejaVuSans-5a" transform="translate(191.308594 0.125)"/>
     <use xlink:href="#DejaVuSans-48" transform="translate(273.095703 0.125)"/>
     <use xlink:href="#DejaVuSans-48" transform="translate(334.619141 0.125)"/>
     <use xlink:href="#DejaVuSans-53" transform="translate(396.142578 0.125)"/>
     <use xlink:href="#DejaVuSans-c" transform="translate(459.619141 0.125)"/>
    </g>
   </g>
   <g id="text_12">
    <!-- span  $y$ -->
    <g transform="translate(572.377409 180.128461) scale(0.09 -0.09)">
     <use xlink:href="#DejaVuSans-56"/>
     <use xlink:href="#DejaVuSans-53" transform="translate(52.099609 0)"/>
     <use xlink:href="#DejaVuSans-44" transform="translate(115.576172 0)"/>
     <use xlink:href="#DejaVuSans-51" transform="translate(176.855469 0)"/>
     <use xlink:href="#DejaVuSans-3" transform="translate(240.234375 0)"/>
     <use xlink:href="#DejaVuSans-3" transform="translate(272.021484 0)"/>
     <use xlink:href="#DejaVuSans-Oblique-5c" transform="translate(303.808594 0)"/>
    </g>
   </g>
   <g id="text_13">
    <!-- chord  $x$ -->
    <g transform="translate(496.398096 146.25718) scale(0.09 -0.09)">
     <defs>
      <path id="DejaVuSans-4b" d="M 3513 2113 
L 3513 0 
L 2938 0 
L 2938 2094 
Q 2938 2591 2744 2837 
Q 2550 3084 2163 3084 
Q 1697 3084 1428 2787 
Q 1159 2491 1159 1978 
L 1159 0 
L 581 0 
L 581 4863 
L 1159 4863 
L 1159 2956 
Q 1366 3272 1645 3428 
Q 1925 3584 2291 3584 
Q 2894 3584 3203 3211 
Q 3513 2838 3513 2113 
z
" transform="scale(0.015625)"/>
      <path id="DejaVuSans-Oblique-5b" d="M 3841 3500 
L 2234 1784 
L 3219 0 
L 2559 0 
L 1819 1388 
L 531 0 
L -166 0 
L 1556 1844 
L 641 3500 
L 1300 3500 
L 1972 2234 
L 3144 3500 
L 3841 3500 
z
" transform="scale(0.015625)"/>
     </defs>
     <use xlink:href="#DejaVuSans-46" transform="translate(0 0.015625)"/>
     <use xlink:href="#DejaVuSans-4b" transform="translate(54.980469 0.015625)"/>
     <use xlink:href="#DejaVuSans-52" transform="translate(118.359375 0.015625)"/>
     <use xlink:href="#DejaVuSans-55" transform="translate(179.541016 0.015625)"/>
     <use xlink:href="#DejaVuSans-47" transform="translate(218.654297 0.015625)"/>
     <use xlink:href="#DejaVuSans-3" transform="translate(282.130859 0.015625)"/>
     <use xlink:href="#DejaVuSans-3" transform="translate(313.917969 0.015625)"/>
     <use xlink:href="#DejaVuSans-Oblique-5b" transform="translate(345.705078 0.015625)"/>
    </g>
   </g>
   <g id="text_14">
    <!-- (b)  top view — sweep, and the lift/elastic-axis offset $e$ -->
    <g transform="translate(495.097537 44.233934) scale(0.12 -0.12)">
     <defs>
      <path id="DejaVuSansDisplay-4" d="M 313 1978 
L 6088 1978 
L 6088 1528 
L 313 1528 
L 313 1978 
z
" transform="scale(0.015625)"/>
      <path id="DejaVuSans-12" d="M 1625 4666 
L 2156 4666 
L 531 -594 
L 0 -594 
L 1625 4666 
z
" transform="scale(0.015625)"/>
      <path id="DejaVuSans-10" d="M 313 2009 
L 1997 2009 
L 1997 1497 
L 313 1497 
L 313 2009 
z
" transform="scale(0.015625)"/>
      <path id="DejaVuSans-5b" d="M 3513 3500 
L 2247 1797 
L 3578 0 
L 2900 0 
L 1881 1375 
L 863 0 
L 184 0 
L 1544 1831 
L 300 3500 
L 978 3500 
L 1906 2253 
L 2834 3500 
L 3513 3500 
z
" transform="scale(0.015625)"/>
     </defs>
     <use xlink:href="#DejaVuSans-b" transform="translate(0 0.015625)"/>
     <use xlink:href="#DejaVuSans-45" transform="translate(39.013672 0.015625)"/>
     <use xlink:href="#DejaVuSans-c" transform="translate(102.490234 0.015625)"/>
     <use xlink:href="#DejaVuSans-3" transform="translate(141.503906 0.015625)"/>
     <use xlink:href="#DejaVuSans-3" transform="translate(173.291016 0.015625)"/>
     <use xlink:href="#DejaVuSans-57" transform="translate(205.078125 0.015625)"/>
     <use xlink:href="#DejaVuSans-52" transform="translate(244.287109 0.015625)"/>
     <use xlink:href="#DejaVuSans-53" transform="translate(305.46875 0.015625)"/>
     <use xlink:href="#DejaVuSans-3" transform="translate(368.945312 0.015625)"/>
     <use xlink:href="#DejaVuSans-59" transform="translate(400.732422 0.015625)"/>
     <use xlink:href="#DejaVuSans-4c" transform="translate(459.912109 0.015625)"/>
     <use xlink:href="#DejaVuSans-48" transform="translate(487.695312 0.015625)"/>
     <use xlink:href="#DejaVuSans-5a" transform="translate(549.21875 0.015625)"/>
     <use xlink:href="#DejaVuSans-3" transform="translate(631.005859 0.015625)"/>
     <use xlink:href="#DejaVuSansDisplay-4" transform="translate(662.792969 0.015625)"/>
     <use xlink:href="#DejaVuSans-3" transform="translate(762.792969 0.015625)"/>
     <use xlink:href="#DejaVuSans-56" transform="translate(794.580078 0.015625)"/>
     <use xlink:href="#DejaVuSans-5a" transform="translate(846.679688 0.015625)"/>
     <use xlink:href="#DejaVuSans-48" transform="translate(928.466797 0.015625)"/>
     <use xlink:href="#DejaVuSans-48" transform="translate(989.990234 0.015625)"/>
     <use xlink:href="#DejaVuSans-53" transform="translate(1051.513672 0.015625)"/>
     <use xlink:href="#DejaVuSans-f" transform="translate(1114.990234 0.015625)"/>
     <use xlink:href="#DejaVuSans-3" transform="translate(1146.777344 0.015625)"/>
     <use xlink:href="#DejaVuSans-44" transform="translate(1178.564453 0.015625)"/>
     <use xlink:href="#DejaVuSans-51" transform="translate(1239.84375 0.015625)"/>
     <use xlink:href="#DejaVuSans-47" transform="translate(1303.222656 0.015625)"/>
     <use xlink:href="#DejaVuSans-3" transform="translate(1366.699219 0.015625)"/>
     <use xlink:href="#DejaVuSans-57" transform="translate(1398.486328 0.015625)"/>
     <use xlink:href="#DejaVuSans-4b" transform="translate(1437.695312 0.015625)"/>
     <use xlink:href="#DejaVuSans-48" transform="translate(1501.074219 0.015625)"/>
     <use xlink:href="#DejaVuSans-3" transform="translate(1562.597656 0.015625)"/>
     <use xlink:href="#DejaVuSans-4f" transform="translate(1594.384766 0.015625)"/>
     <use xlink:href="#DejaVuSans-4c" transform="translate(1622.167969 0.015625)"/>
     <use xlink:href="#DejaVuSans-49" transform="translate(1649.951172 0.015625)"/>
     <use xlink:href="#DejaVuSans-57" transform="translate(1683.15625 0.015625)"/>
     <use xlink:href="#DejaVuSans-12" transform="translate(1722.365234 0.015625)"/>
     <use xlink:href="#DejaVuSans-48" transform="translate(1756.056641 0.015625)"/>
     <use xlink:href="#DejaVuSans-4f" transform="translate(1817.580078 0.015625)"/>
     <use xlink:href="#DejaVuSans-44" transform="translate(1845.363281 0.015625)"/>
     <use xlink:href="#DejaVuSans-56" transform="translate(1906.642578 0.015625)"/>
     <use xlink:href="#DejaVuSans-57" transform="translate(1958.742188 0.015625)"/>
     <use xlink:href="#DejaVuSans-4c" transform="translate(1997.951172 0.015625)"/>
     <use xlink:href="#DejaVuSans-46" transform="translate(2025.734375 0.015625)"/>
     <use xlink:href="#DejaVuSans-10" transform="translate(2080.714844 0.015625)"/>
     <use xlink:href="#DejaVuSans-44" transform="translate(2116.798828 0.015625)"/>
     <use xlink:href="#DejaVuSans-5b" transform="translate(2178.078125 0.015625)"/>
     <use xlink:href="#DejaVuSans-4c" transform="translate(2237.257812 0.015625)"/>
     <use xlink:href="#DejaVuSans-56" transform="translate(2265.041016 0.015625)"/>
     <use xlink:href="#DejaVuSans-3" transform="translate(2317.140625 0.015625)"/>
     <use xlink:href="#DejaVuSans-52" transform="translate(2348.927734 0.015625)"/>
     <use xlink:href="#DejaVuSans-49" transform="translate(2410.109375 0.015625)"/>
     <use xlink:href="#DejaVuSans-49" transform="translate(2445.314453 0.015625)"/>
     <use xlink:href="#DejaVuSans-56" transform="translate(2480.519531 0.015625)"/>
     <use xlink:href="#DejaVuSans-48" transform="translate(2532.619141 0.015625)"/>
     <use xlink:href="#DejaVuSans-57" transform="translate(2594.142578 0.015625)"/>
     <use xlink:href="#DejaVuSans-3" transform="translate(2633.351562 0.015625)"/>
     <use xlink:href="#DejaVuSans-Oblique-48" transform="translate(2665.138672 0.015625)"/>
    </g>
   </g>
   <g id="line2d_11">
    <path d="M 491.793289 101.811257 
L 532.565017 115.058794 
L 573.336744 128.306332 
L 614.108471 141.553869 
L 654.880198 154.801406 
L 695.651925 168.048943 
L 736.423653 181.296481 
L 777.19538 194.544018 
L 817.967107 207.791555 
" clip-path="url(#p278f510e2c)" style="fill: none; stroke: #d62728; stroke-width: 2; stroke-linecap: square"/>
   </g>
   <g id="line2d_12">
    <path d="M 491.793289 88.572438 
L 532.565017 102.755326 
L 573.336744 116.938215 
L 614.108471 131.121103 
L 654.880198 145.303992 
L 695.651925 159.486881 
L 736.423653 173.669769 
L 777.19538 187.852658 
L 817.967107 202.035546 
" clip-path="url(#p278f510e2c)" style="fill: none; stroke-dasharray: 6.66,2.88; stroke-dashoffset: 0; stroke: #1f77b4; stroke-width: 1.8"/>
   </g>
   <g id="patch_16">
    <path d="M 629.758617 148.851652 
C 628.746673 151.021773 627.294325 152.957878 625.494071 154.536658 
C 623.693818 156.115438 621.584707 157.302648 619.301066 158.022678 
C 617.017426 158.742707 614.608787 158.979937 612.228555 158.719259 
C 609.848323 158.458581 607.548125 157.70565 605.474458 156.508418 
C 603.400792 155.311186 601.598635 153.695622 600.182765 151.764619 
C 598.766895 149.833616 597.768023 147.629059 597.249767 145.291354 
C 596.73151 142.953648 596.705109 140.533499 597.172246 138.185044 
C 597.639382 135.836589 598.589924 133.610766 599.963333 131.649336 
" clip-path="url(#p278f510e2c)" style="fill: none; stroke: #d62728; stroke-width: 1.8; stroke-linejoin: miter"/>
   </g>
   <g id="patch_17">
    <path d="M 596.496746 136.600135 
Q 598.230039 134.124735 598.809032 133.297848 
" clip-path="url(#p278f510e2c)" style="fill: none; stroke: #d62728; stroke-width: 1.8; stroke-linecap: round"/>
    <path d="M 594.0899 135.853194 
L 598.809032 133.297848 
L 598.02183 138.606361 
z
" clip-path="url(#p278f510e2c)" style="fill: #d62728; stroke: #d62728; stroke-width: 1.8; stroke-linecap: round"/>
   </g>
   <g id="patch_18">
    <path d="M 752.073799 188.594264 
C 751.061855 190.764385 749.609506 192.70049 747.809253 194.27927 
C 746.009 195.858049 743.899889 197.04526 741.616248 197.765289 
C 739.332607 198.485318 736.923969 198.722549 734.543737 198.461871 
C 732.163505 198.201193 729.863306 197.448261 727.78964 196.251029 
C 725.715973 195.053797 723.913816 193.438233 722.497947 191.507231 
C 721.082077 189.576228 720.083205 187.371671 719.564948 185.033965 
C 719.046691 182.69626 719.020291 180.276111 719.487427 177.927656 
C 719.954564 175.579201 720.905106 173.353378 722.278514 171.391948 
" clip-path="url(#p278f510e2c)" style="fill: none; stroke: #d62728; stroke-width: 1.8; stroke-linejoin: miter"/>
   </g>
   <g id="patch_19">
    <path d="M 718.811928 176.342746 
Q 720.545221 173.867347 721.124214 173.04046 
" clip-path="url(#p278f510e2c)" style="fill: none; stroke: #d62728; stroke-width: 1.8; stroke-linecap: round"/>
    <path d="M 716.405082 175.595806 
L 721.124214 173.04046 
L 720.337012 178.348973 
z
" clip-path="url(#p278f510e2c)" style="fill: #d62728; stroke: #d62728; stroke-width: 1.8; stroke-linecap: round"/>
   </g>
   <g id="patch_20">
    <path d="M 491.793289 177.79057 
Q 530.16668 177.79057 566.527609 177.79057 
" clip-path="url(#p278f510e2c)" style="fill: none; stroke: #000000; stroke-width: 1.8; stroke-linecap: round"/>
    <path d="M 561.727609 175.39057 
L 566.527609 177.79057 
L 561.727609 180.19057 
z
" clip-path="url(#p278f510e2c)" style="stroke: #000000; stroke-width: 1.8; stroke-linecap: round"/>
   </g>
   <g id="patch_21">
    <path d="M 491.793289 177.79057 
Q 491.793289 158.603875 491.793289 141.429641 
" clip-path="url(#p278f510e2c)" style="fill: none; stroke: #000000; stroke-width: 1.8; stroke-linecap: round"/>
    <path d="M 489.393289 146.229641 
L 491.793289 141.429641 
L 494.193289 146.229641 
z
" clip-path="url(#p278f510e2c)" style="stroke: #000000; stroke-width: 1.8; stroke-linecap: round"/>
   </g>
   <g id="legend_1">
    <g id="patch_22">
     <path d="M 672.811104 235.414716 
L 866.089854 235.414716 
Q 867.689854 235.414716 867.689854 233.814716 
L 867.689854 210.613466 
Q 867.689854 209.013466 866.089854 209.013466 
L 672.811104 209.013466 
Q 671.211104 209.013466 671.211104 210.613466 
L 671.211104 233.814716 
Q 671.211104 235.414716 672.811104 235.414716 
z
" style="fill: #ffffff; opacity: 0.95; stroke: #cccccc; stroke-linejoin: miter"/>
    </g>
    <g id="line2d_13">
     <path d="M 674.411104 215.492216 
L 682.411104 215.492216 
L 690.411104 215.492216 
" style="fill: none; stroke: #d62728; stroke-width: 2; stroke-linecap: square"/>
    </g>
    <g id="text_15">
     <!-- elastic axis (beam, through SC) -->
     <g transform="translate(696.811104 218.292216) scale(0.08 -0.08)">
      <defs>
       <path id="DejaVuSans-4a" d="M 2906 1791 
Q 2906 2416 2648 2759 
Q 2391 3103 1925 3103 
Q 1463 3103 1205 2759 
Q 947 2416 947 1791 
Q 947 1169 1205 825 
Q 1463 481 1925 481 
Q 2391 481 2648 825 
Q 2906 1169 2906 1791 
z
M 3481 434 
Q 3481 -459 3084 -895 
Q 2688 -1331 1869 -1331 
Q 1566 -1331 1297 -1286 
Q 1028 -1241 775 -1147 
L 775 -588 
Q 1028 -725 1275 -790 
Q 1522 -856 1778 -856 
Q 2344 -856 2625 -561 
Q 2906 -266 2906 331 
L 2906 616 
Q 2728 306 2450 153 
Q 2172 0 1784 0 
Q 1141 0 747 490 
Q 353 981 353 1791 
Q 353 2603 747 3093 
Q 1141 3584 1784 3584 
Q 2172 3584 2450 3431 
Q 2728 3278 2906 2969 
L 2906 3500 
L 3481 3500 
L 3481 434 
z
" transform="scale(0.015625)"/>
       <path id="DejaVuSans-36" d="M 3425 4513 
L 3425 3897 
Q 3066 4069 2747 4153 
Q 2428 4238 2131 4238 
Q 1616 4238 1336 4038 
Q 1056 3838 1056 3469 
Q 1056 3159 1242 3001 
Q 1428 2844 1947 2747 
L 2328 2669 
Q 3034 2534 3370 2195 
Q 3706 1856 3706 1288 
Q 3706 609 3251 259 
Q 2797 -91 1919 -91 
Q 1588 -91 1214 -16 
Q 841 59 441 206 
L 441 856 
Q 825 641 1194 531 
Q 1563 422 1919 422 
Q 2459 422 2753 634 
Q 3047 847 3047 1241 
Q 3047 1584 2836 1778 
Q 2625 1972 2144 2069 
L 1759 2144 
Q 1053 2284 737 2584 
Q 422 2884 422 3419 
Q 422 4038 858 4394 
Q 1294 4750 2059 4750 
Q 2388 4750 2728 4690 
Q 3069 4631 3425 4513 
z
" transform="scale(0.015625)"/>
       <path id="DejaVuSans-26" d="M 4122 4306 
L 4122 3641 
Q 3803 3938 3442 4084 
Q 3081 4231 2675 4231 
Q 1875 4231 1450 3742 
Q 1025 3253 1025 2328 
Q 1025 1406 1450 917 
Q 1875 428 2675 428 
Q 3081 428 3442 575 
Q 3803 722 4122 1019 
L 4122 359 
Q 3791 134 3420 21 
Q 3050 -91 2638 -91 
Q 1578 -91 968 557 
Q 359 1206 359 2328 
Q 359 3453 968 4101 
Q 1578 4750 2638 4750 
Q 3056 4750 3426 4639 
Q 3797 4528 4122 4306 
z
" transform="scale(0.015625)"/>
      </defs>
      <use xlink:href="#DejaVuSans-48"/>
      <use xlink:href="#DejaVuSans-4f" transform="translate(61.53125 0)"/>
      <use xlink:href="#DejaVuSans-44" transform="translate(89.3125 0)"/>
      <use xlink:href="#DejaVuSans-56" transform="translate(150.59375 0)"/>
      <use xlink:href="#DejaVuSans-57" transform="translate(202.6875 0)"/>
      <use xlink:href="#DejaVuSans-4c" transform="translate(241.890625 0)"/>
      <use xlink:href="#DejaVuSans-46" transform="translate(269.671875 0)"/>
      <use xlink:href="#DejaVuSans-3" transform="translate(324.65625 0)"/>
      <use xlink:href="#DejaVuSans-44" transform="translate(356.4375 0)"/>
      <use xlink:href="#DejaVuSans-5b" transform="translate(417.71875 0)"/>
      <use xlink:href="#DejaVuSans-4c" transform="translate(476.90625 0)"/>
      <use xlink:href="#DejaVuSans-56" transform="translate(504.6875 0)"/>
      <use xlink:href="#DejaVuSans-3" transform="translate(556.78125 0)"/>
      <use xlink:href="#DejaVuSans-b" transform="translate(588.5625 0)"/>
      <use xlink:href="#DejaVuSans-45" transform="translate(627.578125 0)"/>
      <use xlink:href="#DejaVuSans-48" transform="translate(691.0625 0)"/>
      <use xlink:href="#DejaVuSans-44" transform="translate(752.59375 0)"/>
      <use xlink:href="#DejaVuSans-50" transform="translate(813.875 0)"/>
      <use xlink:href="#DejaVuSans-f" transform="translate(911.28125 0)"/>
      <use xlink:href="#DejaVuSans-3" transform="translate(943.0625 0)"/>
      <use xlink:href="#DejaVuSans-57" transform="translate(974.84375 0)"/>
      <use xlink:href="#DejaVuSans-4b" transform="translate(1014.046875 0)"/>
      <use xlink:href="#DejaVuSans-55" transform="translate(1077.421875 0)"/>
      <use xlink:href="#DejaVuSans-52" transform="translate(1116.328125 0)"/>
      <use xlink:href="#DejaVuSans-58" transform="translate(1177.515625 0)"/>
      <use xlink:href="#DejaVuSans-4a" transform="translate(1240.890625 0)"/>
      <use xlink:href="#DejaVuSans-4b" transform="translate(1304.375 0)"/>
      <use xlink:href="#DejaVuSans-3" transform="translate(1367.75 0)"/>
      <use xlink:href="#DejaVuSans-36" transform="translate(1399.53125 0)"/>
      <use xlink:href="#DejaVuSans-26" transform="translate(1463.015625 0)"/>
      <use xlink:href="#DejaVuSans-c" transform="translate(1532.84375 0)"/>
     </g>
    </g>
    <g id="line2d_14">
     <path d="M 674.411104 227.492841 
L 682.411104 227.492841 
L 690.411104 227.492841 
" style="fill: none; stroke-dasharray: 6.66,2.88; stroke-dashoffset: 0; stroke: #1f77b4; stroke-width: 1.8"/>
    </g>
    <g id="text_16">
     <!-- aerodynamic axis (¼-chord, lift acts here) -->
     <g transform="translate(696.811104 230.292841) scale(0.08 -0.08)">
      <defs>
       <path id="DejaVuSans-5c" d="M 2059 -325 
Q 1816 -950 1584 -1140 
Q 1353 -1331 966 -1331 
L 506 -1331 
L 506 -850 
L 844 -850 
Q 1081 -850 1212 -737 
Q 1344 -625 1503 -206 
L 1606 56 
L 191 3500 
L 800 3500 
L 1894 763 
L 2988 3500 
L 3597 3500 
L 2059 -325 
z
" transform="scale(0.015625)"/>
       <path id="DejaVuSans-7e" d="M 488 2431 
L 1125 2431 
L 1125 4341 
L 428 4213 
L 428 4575 
L 1147 4697 
L 1575 4697 
L 1575 2431 
L 2216 2431 
L 2216 2088 
L 488 2088 
L 488 2431 
z
M 5125 2231 
L 4159 921 
L 5125 921 
L 5125 2231 
z
M 5056 2609 
L 5575 2609 
L 5575 921 
L 5997 921 
L 5997 581 
L 5575 581 
L 5575 0 
L 5125 0 
L 5125 581 
L 3831 581 
L 3831 959 
L 5056 2609 
z
M 4307 4750 
L 4807 4750 
L 1894 -91 
L 1394 -91 
L 4307 4750 
z
" transform="scale(0.015625)"/>
      </defs>
      <use xlink:href="#DejaVuSans-44"/>
      <use xlink:href="#DejaVuSans-48" transform="translate(61.28125 0)"/>
      <use xlink:href="#DejaVuSans-55" transform="translate(122.8125 0)"/>
      <use xlink:href="#DejaVuSans-52" transform="translate(161.71875 0)"/>
      <use xlink:href="#DejaVuSans-47" transform="translate(222.90625 0)"/>
      <use xlink:href="#DejaVuSans-5c" transform="translate(286.390625 0)"/>
      <use xlink:href="#DejaVuSans-51" transform="translate(345.578125 0)"/>
      <use xlink:href="#DejaVuSans-44" transform="translate(408.953125 0)"/>
      <use xlink:href="#DejaVuSans-50" transform="translate(470.234375 0)"/>
      <use xlink:href="#DejaVuSans-4c" transform="translate(567.640625 0)"/>
      <use xlink:href="#DejaVuSans-46" transform="translate(595.421875 0)"/>
      <use xlink:href="#DejaVuSans-3" transform="translate(650.40625 0)"/>
      <use xlink:href="#DejaVuSans-44" transform="translate(682.1875 0)"/>
      <use xlink:href="#DejaVuSans-5b" transform="translate(743.46875 0)"/>
      <use xlink:href="#DejaVuSans-4c" transform="translate(802.65625 0)"/>
      <use xlink:href="#DejaVuSans-56" transform="translate(830.4375 0)"/>
      <use xlink:href="#DejaVuSans-3" transform="translate(882.53125 0)"/>
      <use xlink:href="#DejaVuSans-b" transform="translate(914.3125 0)"/>
      <use xlink:href="#DejaVuSans-7e" transform="translate(953.328125 0)"/>
      <use xlink:href="#DejaVuSans-10" transform="translate(1050.25 0)"/>
      <use xlink:href="#DejaVuSans-46" transform="translate(1086.328125 0)"/>
      <use xlink:href="#DejaVuSans-4b" transform="translate(1141.3125 0)"/>
      <use xlink:href="#DejaVuSans-52" transform="translate(1204.6875 0)"/>
      <use xlink:href="#DejaVuSans-55" transform="translate(1265.875 0)"/>
      <use xlink:href="#DejaVuSans-47" transform="translate(1305.234375 0)"/>
      <use xlink:href="#DejaVuSans-f" transform="translate(1368.71875 0)"/>
      <use xlink:href="#DejaVuSans-3" transform="translate(1400.5 0)"/>
      <use xlink:href="#DejaVuSans-4f" transform="translate(1432.28125 0)"/>
      <use xlink:href="#DejaVuSans-4c" transform="translate(1460.0625 0)"/>
      <use xlink:href="#DejaVuSans-49" transform="translate(1487.84375 0)"/>
      <use xlink:href="#DejaVuSans-57" transform="translate(1521.296875 0)"/>
      <use xlink:href="#DejaVuSans-3" transform="translate(1560.5 0)"/>
      <use xlink:href="#DejaVuSans-44" transform="translate(1592.28125 0)"/>
      <use xlink:href="#DejaVuSans-46" transform="translate(1653.5625 0)"/>
      <use xlink:href="#DejaVuSans-57" transform="translate(1708.546875 0)"/>
      <use xlink:href="#DejaVuSans-56" transform="translate(1747.75 0)"/>
      <use xlink:href="#DejaVuSans-3" transform="translate(1799.84375 0)"/>
      <use xlink:href="#DejaVuSans-4b" transform="translate(1831.625 0)"/>
      <use xlink:href="#DejaVuSans-48" transform="translate(1895 0)"/>
      <use xlink:href="#DejaVuSans-55" transform="translate(1956.53125 0)"/>
      <use xlink:href="#DejaVuSans-48" transform="translate(1995.4375 0)"/>
      <use xlink:href="#DejaVuSans-c" transform="translate(2056.96875 0)"/>
     </g>
    </g>
   </g>
   <g id="line2d_15">
    <path d="M 573.336744 97.991353 
L 573.336744 173.778799 
" clip-path="url(#p278f510e2c)" style="fill: none; stroke: #9467bd; stroke-width: 3; stroke-linecap: square"/>
   </g>
   <g id="line2d_16">
    <path d="M 585.046548 92.26726 
L 561.626939 164.345404 
" clip-path="url(#p278f510e2c)" style="fill: none; stroke-dasharray: 8.14,3.52; stroke-dashoffset: 0; stroke: #2ca02c; stroke-width: 2.2"/>
   </g>
  </g>
 </g>
 <defs>
  <clipPath id="p1c55810fd7">
   <rect x="9.000589" y="22.318125" width="425.944632" height="245.012399"/>
  </clipPath>
  <clipPath id="p278f510e2c">
   <rect x="445.745221" y="50.233934" width="425.944632" height="189.180782"/>
  </clipPath>
 </defs>
 <defs>
  <pattern id="hb851fc0156" patternUnits="userSpaceOnUse" x="0" y="0" width="72" height="72">
   <rect x="0" y="0" width="73" height="73" fill="#d9d9d9"/>
   <path d="M -36 36 
L 36 -36 
M -33 39 
L 39 -33 
M -30 42 
L 42 -30 
M -27 45 
L 45 -27 
M -24 48 
L 48 -24 
M -21 51 
L 51 -21 
M -18 54 
L 54 -18 
M -15 57 
L 57 -15 
M -12 60 
L 60 -12 
M -9 63 
L 63 -9 
M -6 66 
L 66 -6 
M -3 69 
L 69 -3 
M 0 72 
L 72 0 
M 3 75 
L 75 3 
M 6 78 
L 78 6 
M 9 81 
L 81 9 
M 12 84 
L 84 12 
M 15 87 
L 87 15 
M 18 90 
L 90 18 
M 21 93 
L 93 21 
M 24 96 
L 96 24 
M 27 99 
L 99 27 
M 30 102 
L 102 30 
M 33 105 
L 105 33 
M 36 108 
L 108 36 
" style="fill: #000000; stroke: #000000; stroke-width: 1.0; stroke-linecap: butt; stroke-linejoin: miter"/>
  </pattern>
 </defs>
</svg>
