<?xml version="1.0" encoding="utf-8" standalone="no"?>
<!DOCTYPE svg PUBLIC "-//W3C//DTD SVG 1.1//EN"
  "http://www.w3.org/Graphics/SVG/1.1/DTD/svg11.dtd">
<svg xmlns:xlink="http://www.w3.org/1999/xlink" width="676.8pt" height="294.478125pt" viewBox="0 0 676.8 294.478125" xmlns="http://www.w3.org/2000/svg" version="1.1">
 <metadata>
  <rdf:RDF xmlns:dc="http://purl.org/dc/elements/1.1/" xmlns:cc="http://creativecommons.org/ns#" xmlns:rdf="http://www.w3.org/1999/02/22-rdf-syntax-ns#">
   <cc:Work>
    <dc:type rdf:resource="http://purl.org/dc/dcmitype/StillImage"/>
    <dc:date>2026-07-02T22:51:33.435120</dc:date>
    <dc:format>image/svg+xml</dc:format>
    <dc:creator>
     <cc:Agent>
      <dc:title>Matplotlib v3.11.0, https://matplotlib.org/</dc:title>
     </cc:Agent>
    </dc:creator>
   </cc:Work>
  </rdf:RDF>
 </metadata>
 <defs>
  <style type="text/css">*{stroke-linejoin: round; stroke-linecap: butt}</style>
 </defs>
 <g id="figure_1">
  <g id="patch_1">
   <path d="M 0 294.478125 
L 676.8 294.478125 
L 676.8 0 
L 0 0 
z
" style="fill: #ffffff"/>
  </g>
  <g id="axes_1">
   <g id="patch_2">
    <path d="M 117.6 129.608962 
L 366 130.837264 
L 366 181.214136 
L 117.6 188.613694 
z
" clip-path="url(#p49cae32bb6)" style="fill: #eaf2fb"/>
   </g>
   <g id="line2d_1">
    <path d="M 34.8 165.838125 
L 34.870491 164.725197 
L 35.081926 163.609015 
L 35.434199 162.489831 
L 35.927128 161.367972 
L 36.560463 160.243838 
L 37.33388 159.117899 
L 39.299308 156.862843 
L 41.819396 154.607942 
L 44.888995 152.359355 
L 48.501836 150.124176 
L 52.650537 147.910329 
L 57.326622 145.726451 
L 62.520539 143.581764 
L 68.221677 141.48594 
L 74.418388 139.448962 
L 81.098014 137.480972 
L 88.246907 135.592134 
L 95.850464 133.792487 
L 103.89315 132.091812 
L 112.358535 130.499496 
L 121.229325 129.02442 
L 130.487396 127.674845 
L 140.113836 126.458315 
L 150.088978 125.381578 
L 160.392443 124.450518 
L 171.003183 123.670097 
L 181.899519 123.044323 
L 193.059192 122.576222 
L 204.459402 122.267828 
L 216.07686 122.120186 
L 227.887832 122.133365 
L 239.868189 122.306484 
L 251.993455 122.637742 
L 270.398805 123.39749 
L 288.989824 124.409143 
L 307.681075 125.653198 
L 326.386659 127.109916 
L 345.020613 128.758082 
L 363.497301 130.575351 
L 387.74164 133.221244 
L 411.357551 136.069825 
L 434.152149 139.063096 
L 455.939255 142.142079 
L 476.540923 145.247057 
L 500.370675 149.073056 
L 521.782078 152.727724 
L 543.901333 156.723809 
L 566.676771 161.080473 
L 586.8 165.142605 
L 586.8 165.142605 
" clip-path="url(#p49cae32bb6)" style="fill: none; stroke: #000000; stroke-width: 1.6; stroke-linecap: square"/>
   </g>
   <g id="line2d_2">
    <path d="M 34.8 165.838125 
L 34.870491 166.936957 
L 35.081926 168.010886 
L 35.434199 169.059761 
L 35.927128 170.083427 
L 36.560463 171.081723 
L 37.33388 172.054483 
L 38.246984 173.001537 
L 40.490314 174.817841 
L 43.285872 176.529252 
L 46.627946 178.134409 
L 50.509708 179.632019 
L 54.923229 181.020923 
L 59.85949 182.30015 
L 65.308409 183.468984 
L 71.258854 184.52703 
L 77.698667 185.474277 
L 84.614693 186.311154 
L 91.992802 187.038585 
L 103.89315 187.927884 
L 116.744368 188.581764 
L 130.487396 189.0107 
L 145.059077 189.228268 
L 160.392443 189.251022 
L 181.899519 189.011963 
L 204.459402 188.512915 
L 233.85836 187.610311 
L 270.398805 186.242843 
L 301.444819 184.805432 
L 338.822551 182.80159 
L 381.731811 180.260062 
L 439.700481 176.591382 
L 513.525934 171.693188 
L 573.098164 167.532546 
L 586.8 166.533645 
L 586.8 166.533645 
" clip-path="url(#p49cae32bb6)" style="fill: none; stroke: #000000; stroke-width: 1.6; stroke-linecap: square"/>
   </g>
   <g id="line2d_3">
    <path d="M 34.8 165.838125 
L 586.8 165.838125 
" clip-path="url(#p49cae32bb6)" style="fill: none; stroke-dasharray: 3.7,1.6; stroke-dashoffset: 0; stroke: #999999"/>
   </g>
   <g id="line2d_4">
    <path d="M 117.6 188.613694 
L 117.6 129.608962 
" clip-path="url(#p49cae32bb6)" style="fill: none; stroke: #1f77b4; stroke-width: 4"/>
   </g>
   <g id="line2d_5">
    <path d="M 366 181.214136 
L 366 130.837264 
" clip-path="url(#p49cae32bb6)" style="fill: none; stroke: #1f77b4; stroke-width: 4"/>
   </g>
   <g id="line2d_6">
    <path d="M 121.229325 129.02442 
L 125.811114 128.333456 
L 130.487396 127.674845 
L 135.255782 127.049508 
L 140.113836 126.458315 
L 145.059077 125.902083 
L 150.088978 125.381578 
L 155.200971 124.897506 
L 160.392443 124.450518 
L 165.660745 124.041204 
L 171.003183 123.670097 
L 176.41703 123.337667 
L 181.899519 123.044323 
L 187.447851 122.790413 
L 193.059192 122.576222 
L 198.730674 122.401973 
L 204.459402 122.267828 
L 210.242449 122.173886 
L 216.07686 122.120186 
L 221.959656 122.106706 
L 227.887832 122.133365 
L 233.85836 122.200024 
L 239.868189 122.306484 
L 245.91425 122.452493 
L 251.993455 122.637742 
L 258.102699 122.86108 
L 264.23886 123.115068 
L 270.398805 123.39749 
L 276.579387 123.70774 
L 282.777449 124.045179 
L 288.989824 124.409143 
L 295.213341 124.798946 
L 301.444819 125.213875 
L 307.681075 125.653198 
L 313.918925 126.116162 
L 320.155181 126.601997 
L 326.386659 127.109916 
L 332.610176 127.639116 
L 338.822551 128.188781 
L 345.020613 128.758082 
L 351.201195 129.346179 
L 357.36114 129.952222 
L 363.497301 130.575351 
" clip-path="url(#p49cae32bb6)" style="fill: none; stroke: #1f77b4; stroke-width: 4; stroke-linecap: square"/>
   </g>
   <g id="line2d_7">
    <path d="M 121.229325 188.74913 
L 125.811114 188.891941 
L 130.487396 189.0107 
L 135.255782 189.10595 
L 140.113836 189.178268 
L 145.059077 189.228268 
L 150.088978 189.256599 
L 155.200971 189.263946 
L 160.392443 189.251022 
L 165.660745 189.218574 
L 171.003183 189.167376 
L 176.41703 189.098231 
L 181.899519 189.011963 
L 187.447851 188.909422 
L 193.059192 188.791474 
L 198.730674 188.659005 
L 204.459402 188.512915 
L 210.242449 188.354116 
L 216.07686 188.183527 
L 221.959656 188.002077 
L 227.887832 187.810695 
L 233.85836 187.610311 
L 239.868189 187.401853 
L 245.91425 187.186245 
L 251.993455 186.964399 
L 258.102699 186.736431 
L 264.23886 186.496205 
L 270.398805 186.242843 
L 276.579387 185.977104 
L 282.777449 185.699746 
L 288.989824 185.411519 
L 295.213341 185.113169 
L 301.444819 184.805432 
L 307.681075 184.489034 
L 313.918925 184.164689 
L 320.155181 183.833096 
L 326.386659 183.49494 
L 332.610176 183.150888 
L 338.822551 182.80159 
L 345.020613 182.447678 
L 351.201195 182.089762 
L 357.36114 181.728434 
L 363.497301 181.364262 
" clip-path="url(#p49cae32bb6)" style="fill: none; stroke: #1f77b4; stroke-width: 4; stroke-linecap: square"/>
   </g>
   <g id="line2d_8">
    <path d="M 90 154.8113 
L 410.16 154.8113 
" clip-path="url(#p49cae32bb6)" style="fill: none; stroke-dasharray: 7.68,1.92,1.2,1.92; stroke-dashoffset: 0; stroke: #d62728; stroke-width: 1.2"/>
   </g>
   <g id="line2d_9">
    <path d="M 266.64 213.997444 
L 266.64 95.625156 
" clip-path="url(#p49cae32bb6)" style="fill: none; stroke-dasharray: 7.68,1.92,1.2,1.92; stroke-dashoffset: 0; stroke: #2ca02c; stroke-width: 1.2"/>
   </g>
   <g id="patch_3">
    <path d="M 163.02424 51.450949 
Q 167.826946 107.647908 172.53445 162.730894 
" style="fill: none; stroke: #1f77b4; stroke-linecap: round"/>
    <path d="M 174.021366 158.990696 
L 172.53445 162.730894 
L 170.434441 159.297242 
" style="fill: none; stroke: #1f77b4; stroke-linecap: round"/>
   </g>
   <g id="text_1">
    <!-- aerodynamic centre (¼-chord) -->
    <g style="fill: #1f77b4" transform="translate(93.048516 33.594258) scale(0.09 -0.09)">
     <defs>
      <path id="DejaVuSans-44" d="M 2194 1759 
Q 1497 1759 1228 1600 
Q 959 1441 959 1056 
Q 959 750 1161 570 
Q 1363 391 1709 391 
Q 2188 391 2477 730 
Q 2766 1069 2766 1631 
L 2766 1759 
L 2194 1759 
z
M 3341 1997 
L 3341 0 
L 2766 0 
L 2766 531 
Q 2569 213 2275 61 
Q 1981 -91 1556 -91 
Q 1019 -91 701 211 
Q 384 513 384 1019 
Q 384 1609 779 1909 
Q 1175 2209 1959 2209 
L 2766 2209 
L 2766 2266 
Q 2766 2663 2505 2880 
Q 2244 3097 1772 3097 
Q 1472 3097 1187 3025 
Q 903 2953 641 2809 
L 641 3341 
Q 956 3463 1253 3523 
Q 1550 3584 1831 3584 
Q 2591 3584 2966 3190 
Q 3341 2797 3341 1997 
z
" transform="scale(0.015625)"/>
      <path id="DejaVuSans-48" d="M 3597 1894 
L 3597 1613 
L 953 1613 
Q 991 1019 1311 708 
Q 1631 397 2203 397 
Q 2534 397 2845 478 
Q 3156 559 3463 722 
L 3463 178 
Q 3153 47 2828 -22 
Q 2503 -91 2169 -91 
Q 1331 -91 842 396 
Q 353 884 353 1716 
Q 353 2575 817 3079 
Q 1281 3584 2069 3584 
Q 2775 3584 3186 3129 
Q 3597 2675 3597 1894 
z
M 3022 2063 
Q 3016 2534 2758 2815 
Q 2500 3097 2075 3097 
Q 1594 3097 1305 2825 
Q 1016 2553 972 2059 
L 3022 2063 
z
" transform="scale(0.015625)"/>
      <path id="DejaVuSans-55" d="M 2631 2963 
Q 2534 3019 2420 3045 
Q 2306 3072 2169 3072 
Q 1681 3072 1420 2755 
Q 1159 2438 1159 1844 
L 1159 0 
L 581 0 
L 581 3500 
L 1159 3500 
L 1159 2956 
Q 1341 3275 1631 3429 
Q 1922 3584 2338 3584 
Q 2397 3584 2469 3576 
Q 2541 3569 2628 3553 
L 2631 2963 
z
" transform="scale(0.015625)"/>
      <path id="DejaVuSans-52" d="M 1959 3097 
Q 1497 3097 1228 2736 
Q 959 2375 959 1747 
Q 959 1119 1226 758 
Q 1494 397 1959 397 
Q 2419 397 2687 759 
Q 2956 1122 2956 1747 
Q 2956 2369 2687 2733 
Q 2419 3097 1959 3097 
z
M 1959 3584 
Q 2709 3584 3137 3096 
Q 3566 2609 3566 1747 
Q 3566 888 3137 398 
Q 2709 -91 1959 -91 
Q 1206 -91 779 398 
Q 353 888 353 1747 
Q 353 2609 779 3096 
Q 1206 3584 1959 3584 
z
" transform="scale(0.015625)"/>
      <path id="DejaVuSans-47" d="M 2906 2969 
L 2906 4863 
L 3481 4863 
L 3481 0 
L 2906 0 
L 2906 525 
Q 2725 213 2448 61 
Q 2172 -91 1784 -91 
Q 1150 -91 751 415 
Q 353 922 353 1747 
Q 353 2572 751 3078 
Q 1150 3584 1784 3584 
Q 2172 3584 2448 3432 
Q 2725 3281 2906 2969 
z
M 947 1747 
Q 947 1113 1208 752 
Q 1469 391 1925 391 
Q 2381 391 2643 752 
Q 2906 1113 2906 1747 
Q 2906 2381 2643 2742 
Q 2381 3103 1925 3103 
Q 1469 3103 1208 2742 
Q 947 2381 947 1747 
z
" transform="scale(0.015625)"/>
      <path id="DejaVuSans-5c" d="M 2059 -325 
Q 1816 -950 1584 -1140 
Q 1353 -1331 966 -1331 
L 506 -1331 
L 506 -850 
L 844 -850 
Q 1081 -850 1212 -737 
Q 1344 -625 1503 -206 
L 1606 56 
L 191 3500 
L 800 3500 
L 1894 763 
L 2988 3500 
L 3597 3500 
L 2059 -325 
z
" transform="scale(0.015625)"/>
      <path id="DejaVuSans-51" d="M 3513 2113 
L 3513 0 
L 2938 0 
L 2938 2094 
Q 2938 2591 2744 2837 
Q 2550 3084 2163 3084 
Q 1697 3084 1428 2787 
Q 1159 2491 1159 1978 
L 1159 0 
L 581 0 
L 581 3500 
L 1159 3500 
L 1159 2956 
Q 1366 3272 1645 3428 
Q 1925 3584 2291 3584 
Q 2894 3584 3203 3211 
Q 3513 2838 3513 2113 
z
" transform="scale(0.015625)"/>
      <path id="DejaVuSans-50" d="M 3328 2828 
Q 3544 3216 3844 3400 
Q 4144 3584 4550 3584 
Q 5097 3584 5394 3201 
Q 5691 2819 5691 2113 
L 5691 0 
L 5113 0 
L 5113 2094 
Q 5113 2597 4934 2840 
Q 4756 3084 4391 3084 
Q 3944 3084 3684 2787 
Q 3425 2491 3425 1978 
L 3425 0 
L 2847 0 
L 2847 2094 
Q 2847 2600 2669 2842 
Q 2491 3084 2119 3084 
Q 1678 3084 1418 2786 
Q 1159 2488 1159 1978 
L 1159 0 
L 581 0 
L 581 3500 
L 1159 3500 
L 1159 2956 
Q 1356 3278 1631 3431 
Q 1906 3584 2284 3584 
Q 2666 3584 2933 3390 
Q 3200 3197 3328 2828 
z
" transform="scale(0.015625)"/>
      <path id="DejaVuSans-4c" d="M 603 3500 
L 1178 3500 
L 1178 0 
L 603 0 
L 603 3500 
z
M 603 4863 
L 1178 4863 
L 1178 4134 
L 603 4134 
L 603 4863 
z
" transform="scale(0.015625)"/>
      <path id="DejaVuSans-46" d="M 3122 3366 
L 3122 2828 
Q 2878 2963 2633 3030 
Q 2388 3097 2138 3097 
Q 1578 3097 1268 2742 
Q 959 2388 959 1747 
Q 959 1106 1268 751 
Q 1578 397 2138 397 
Q 2388 397 2633 464 
Q 2878 531 3122 666 
L 3122 134 
Q 2881 22 2623 -34 
Q 2366 -91 2075 -91 
Q 1284 -91 818 406 
Q 353 903 353 1747 
Q 353 2603 823 3093 
Q 1294 3584 2113 3584 
Q 2378 3584 2631 3529 
Q 2884 3475 3122 3366 
z
" transform="scale(0.015625)"/>
      <path id="DejaVuSans-3" transform="scale(0.015625)"/>
      <path id="DejaVuSans-57" d="M 1172 4494 
L 1172 3500 
L 2356 3500 
L 2356 3053 
L 1172 3053 
L 1172 1153 
Q 1172 725 1289 603 
Q 1406 481 1766 481 
L 2356 481 
L 2356 0 
L 1766 0 
Q 1100 0 847 248 
Q 594 497 594 1153 
L 594 3053 
L 172 3053 
L 172 3500 
L 594 3500 
L 594 4494 
L 1172 4494 
z
" transform="scale(0.015625)"/>
      <path id="DejaVuSans-b" d="M 1984 4856 
Q 1566 4138 1362 3434 
Q 1159 2731 1159 2009 
Q 1159 1288 1364 580 
Q 1569 -128 1984 -844 
L 1484 -844 
Q 1016 -109 783 600 
Q 550 1309 550 2009 
Q 550 2706 781 3412 
Q 1013 4119 1484 4856 
L 1984 4856 
z
" transform="scale(0.015625)"/>
      <path id="DejaVuSans-7e" d="M 488 2431 
L 1125 2431 
L 1125 4341 
L 428 4213 
L 428 4575 
L 1147 4697 
L 1575 4697 
L 1575 2431 
L 2216 2431 
L 2216 2088 
L 488 2088 
L 488 2431 
z
M 5125 2231 
L 4159 921 
L 5125 921 
L 5125 2231 
z
M 5056 2609 
L 5575 2609 
L 5575 921 
L 5997 921 
L 5997 581 
L 5575 581 
L 5575 0 
L 5125 0 
L 5125 581 
L 3831 581 
L 3831 959 
L 5056 2609 
z
M 4307 4750 
L 4807 4750 
L 1894 -91 
L 1394 -91 
L 4307 4750 
z
" transform="scale(0.015625)"/>
      <path id="DejaVuSans-10" d="M 313 2009 
L 1997 2009 
L 1997 1497 
L 313 1497 
L 313 2009 
z
" transform="scale(0.015625)"/>
      <path id="DejaVuSans-4b" d="M 3513 2113 
L 3513 0 
L 2938 0 
L 2938 2094 
Q 2938 2591 2744 2837 
Q 2550 3084 2163 3084 
Q 1697 3084 1428 2787 
Q 1159 2491 1159 1978 
L 1159 0 
L 581 0 
L 581 4863 
L 1159 4863 
L 1159 2956 
Q 1366 3272 1645 3428 
Q 1925 3584 2291 3584 
Q 2894 3584 3203 3211 
Q 3513 2838 3513 2113 
z
" transform="scale(0.015625)"/>
      <path id="DejaVuSans-c" d="M 513 4856 
L 1013 4856 
Q 1481 4119 1714 3412 
Q 1947 2706 1947 2009 
Q 1947 1309 1714 600 
Q 1481 -109 1013 -844 
L 513 -844 
Q 928 -128 1133 580 
Q 1338 1288 1338 2009 
Q 1338 2731 1133 3434 
Q 928 4138 513 4856 
z
" transform="scale(0.015625)"/>
     </defs>
     <use xlink:href="#DejaVuSans-44"/>
     <use xlink:href="#DejaVuSans-48" transform="translate(61.28125 0)"/>
     <use xlink:href="#DejaVuSans-55" transform="translate(122.8125 0)"/>
     <use xlink:href="#DejaVuSans-52" transform="translate(161.71875 0)"/>
     <use xlink:href="#DejaVuSans-47" transform="translate(222.90625 0)"/>
     <use xlink:href="#DejaVuSans-5c" transform="translate(286.390625 0)"/>
     <use xlink:href="#DejaVuSans-51" transform="translate(345.578125 0)"/>
     <use xlink:href="#DejaVuSans-44" transform="translate(408.953125 0)"/>
     <use xlink:href="#DejaVuSans-50" transform="translate(470.234375 0)"/>
     <use xlink:href="#DejaVuSans-4c" transform="translate(567.640625 0)"/>
     <use xlink:href="#DejaVuSans-46" transform="translate(595.421875 0)"/>
     <use xlink:href="#DejaVuSans-3" transform="translate(650.40625 0)"/>
     <use xlink:href="#DejaVuSans-46" transform="translate(682.1875 0)"/>
     <use xlink:href="#DejaVuSans-48" transform="translate(737.171875 0)"/>
     <use xlink:href="#DejaVuSans-51" transform="translate(798.703125 0)"/>
     <use xlink:href="#DejaVuSans-57" transform="translate(862.078125 0)"/>
     <use xlink:href="#DejaVuSans-55" transform="translate(901.28125 0)"/>
     <use xlink:href="#DejaVuSans-48" transform="translate(940.1875 0)"/>
     <use xlink:href="#DejaVuSans-3" transform="translate(1001.71875 0)"/>
     <use xlink:href="#DejaVuSans-b" transform="translate(1033.5 0)"/>
     <use xlink:href="#DejaVuSans-7e" transform="translate(1072.515625 0)"/>
     <use xlink:href="#DejaVuSans-10" transform="translate(1169.4375 0)"/>
     <use xlink:href="#DejaVuSans-46" transform="translate(1205.515625 0)"/>
     <use xlink:href="#DejaVuSans-4b" transform="translate(1260.5 0)"/>
     <use xlink:href="#DejaVuSans-52" transform="translate(1323.875 0)"/>
     <use xlink:href="#DejaVuSans-55" transform="translate(1385.0625 0)"/>
     <use xlink:href="#DejaVuSans-47" transform="translate(1424.421875 0)"/>
     <use xlink:href="#DejaVuSans-c" transform="translate(1487.90625 0)"/>
    </g>
    <!-- lift $L$ acts here -->
    <g style="fill: #1f77b4" transform="translate(129.675 44.398125) scale(0.09 -0.09)">
     <defs>
      <path id="DejaVuSans-4f" d="M 603 4863 
L 1178 4863 
L 1178 0 
L 603 0 
L 603 4863 
z
" transform="scale(0.015625)"/>
      <path id="DejaVuSans-49" d="M 2375 4863 
L 2375 4384 
L 1825 4384 
Q 1516 4384 1395 4259 
Q 1275 4134 1275 3809 
L 1275 3500 
L 2222 3500 
L 2222 3053 
L 1275 3053 
L 1275 0 
L 697 0 
L 697 3053 
L 147 3053 
L 147 3500 
L 697 3500 
L 697 3744 
Q 697 4328 969 4595 
Q 1241 4863 1831 4863 
L 2375 4863 
z
" transform="scale(0.015625)"/>
      <path id="DejaVuSans-Oblique-2f" d="M 1075 4666 
L 1709 4666 
L 909 525 
L 3181 525 
L 3078 0 
L 172 0 
L 1075 4666 
z
" transform="scale(0.015625)"/>
      <path id="DejaVuSans-56" d="M 2834 3397 
L 2834 2853 
Q 2591 2978 2328 3040 
Q 2066 3103 1784 3103 
Q 1356 3103 1142 2972 
Q 928 2841 928 2578 
Q 928 2378 1081 2264 
Q 1234 2150 1697 2047 
L 1894 2003 
Q 2506 1872 2764 1633 
Q 3022 1394 3022 966 
Q 3022 478 2636 193 
Q 2250 -91 1575 -91 
Q 1294 -91 989 -36 
Q 684 19 347 128 
L 347 722 
Q 666 556 975 473 
Q 1284 391 1588 391 
Q 1994 391 2212 530 
Q 2431 669 2431 922 
Q 2431 1156 2273 1281 
Q 2116 1406 1581 1522 
L 1381 1569 
Q 847 1681 609 1914 
Q 372 2147 372 2553 
Q 372 3047 722 3315 
Q 1072 3584 1716 3584 
Q 2034 3584 2315 3537 
Q 2597 3491 2834 3397 
z
" transform="scale(0.015625)"/>
     </defs>
     <use xlink:href="#DejaVuSans-4f" transform="translate(0 0.015625)"/>
     <use xlink:href="#DejaVuSans-4c" transform="translate(27.783203 0.015625)"/>
     <use xlink:href="#DejaVuSans-49" transform="translate(55.566406 0.015625)"/>
     <use xlink:href="#DejaVuSans-57" transform="translate(88.771484 0.015625)"/>
     <use xlink:href="#DejaVuSans-3" transform="translate(127.980469 0.015625)"/>
     <use xlink:href="#DejaVuSans-Oblique-2f" transform="translate(159.767578 0.015625)"/>
     <use xlink:href="#DejaVuSans-3" transform="translate(215.480469 0.015625)"/>
     <use xlink:href="#DejaVuSans-44" transform="translate(247.267578 0.015625)"/>
     <use xlink:href="#DejaVuSans-46" transform="translate(308.546875 0.015625)"/>
     <use xlink:href="#DejaVuSans-57" transform="translate(363.527344 0.015625)"/>
     <use xlink:href="#DejaVuSans-56" transform="translate(402.736328 0.015625)"/>
     <use xlink:href="#DejaVuSans-3" transform="translate(454.835938 0.015625)"/>
     <use xlink:href="#DejaVuSans-4b" transform="translate(486.623047 0.015625)"/>
     <use xlink:href="#DejaVuSans-48" transform="translate(550.001953 0.015625)"/>
     <use xlink:href="#DejaVuSans-55" transform="translate(611.525391 0.015625)"/>
     <use xlink:href="#DejaVuSans-48" transform="translate(650.638672 0.015625)"/>
    </g>
   </g>
   <g id="patch_4">
    <path d="M 372.945929 254.33073 
Q 320.524531 205.255879 268.919327 156.945116 
" style="fill: none; stroke: #d62728; stroke-linecap: round"/>
    <path d="M 270.317259 160.719475 
L 268.919327 156.945116 
L 272.777573 158.091385 
" style="fill: none; stroke: #d62728; stroke-linecap: round"/>
   </g>
   <g id="text_2">
    <!-- elastic centre EC -->
    <g style="fill: #d62728" transform="translate(350.245547 265.435664) scale(0.09 -0.09)">
     <defs>
      <path id="DejaVuSans-28" d="M 628 4666 
L 3578 4666 
L 3578 4134 
L 1259 4134 
L 1259 2753 
L 3481 2753 
L 3481 2222 
L 1259 2222 
L 1259 531 
L 3634 531 
L 3634 0 
L 628 0 
L 628 4666 
z
" transform="scale(0.015625)"/>
      <path id="DejaVuSans-26" d="M 4122 4306 
L 4122 3641 
Q 3803 3938 3442 4084 
Q 3081 4231 2675 4231 
Q 1875 4231 1450 3742 
Q 1025 3253 1025 2328 
Q 1025 1406 1450 917 
Q 1875 428 2675 428 
Q 3081 428 3442 575 
Q 3803 722 4122 1019 
L 4122 359 
Q 3791 134 3420 21 
Q 3050 -91 2638 -91 
Q 1578 -91 968 557 
Q 359 1206 359 2328 
Q 359 3453 968 4101 
Q 1578 4750 2638 4750 
Q 3056 4750 3426 4639 
Q 3797 4528 4122 4306 
z
" transform="scale(0.015625)"/>
     </defs>
     <use xlink:href="#DejaVuSans-48"/>
     <use xlink:href="#DejaVuSans-4f" transform="translate(61.53125 0)"/>
     <use xlink:href="#DejaVuSans-44" transform="translate(89.3125 0)"/>
     <use xlink:href="#DejaVuSans-56" transform="translate(150.59375 0)"/>
     <use xlink:href="#DejaVuSans-57" transform="translate(202.6875 0)"/>
     <use xlink:href="#DejaVuSans-4c" transform="translate(241.890625 0)"/>
     <use xlink:href="#DejaVuSans-46" transform="translate(269.671875 0)"/>
     <use xlink:href="#DejaVuSans-3" transform="translate(324.65625 0)"/>
     <use xlink:href="#DejaVuSans-46" transform="translate(356.4375 0)"/>
     <use xlink:href="#DejaVuSans-48" transform="translate(411.421875 0)"/>
     <use xlink:href="#DejaVuSans-51" transform="translate(472.953125 0)"/>
     <use xlink:href="#DejaVuSans-57" transform="translate(536.328125 0)"/>
     <use xlink:href="#DejaVuSans-55" transform="translate(575.53125 0)"/>
     <use xlink:href="#DejaVuSans-48" transform="translate(614.4375 0)"/>
     <use xlink:href="#DejaVuSans-3" transform="translate(675.96875 0)"/>
     <use xlink:href="#DejaVuSans-28" transform="translate(707.75 0)"/>
     <use xlink:href="#DejaVuSans-26" transform="translate(770.9375 0)"/>
    </g>
    <!-- (shear axis) -->
    <g style="fill: #d62728" transform="translate(361.550391 276.238125) scale(0.09 -0.09)">
     <defs>
      <path id="DejaVuSans-5b" d="M 3513 3500 
L 2247 1797 
L 3578 0 
L 2900 0 
L 1881 1375 
L 863 0 
L 184 0 
L 1544 1831 
L 300 3500 
L 978 3500 
L 1906 2253 
L 2834 3500 
L 3513 3500 
z
" transform="scale(0.015625)"/>
     </defs>
     <use xlink:href="#DejaVuSans-b"/>
     <use xlink:href="#DejaVuSans-56" transform="translate(39.015625 0)"/>
     <use xlink:href="#DejaVuSans-4b" transform="translate(91.109375 0)"/>
     <use xlink:href="#DejaVuSans-48" transform="translate(154.484375 0)"/>
     <use xlink:href="#DejaVuSans-44" transform="translate(216.015625 0)"/>
     <use xlink:href="#DejaVuSans-55" transform="translate(277.296875 0)"/>
     <use xlink:href="#DejaVuSans-3" transform="translate(318.40625 0)"/>
     <use xlink:href="#DejaVuSans-44" transform="translate(350.1875 0)"/>
     <use xlink:href="#DejaVuSans-5b" transform="translate(411.46875 0)"/>
     <use xlink:href="#DejaVuSans-4c" transform="translate(470.65625 0)"/>
     <use xlink:href="#DejaVuSans-56" transform="translate(498.4375 0)"/>
     <use xlink:href="#DejaVuSans-c" transform="translate(550.53125 0)"/>
    </g>
   </g>
   <g id="patch_5">
    <path d="M 175.919809 165.838125 
Q 219.721732 165.838125 263.523655 165.838125 
" style="fill: none; stroke: #333333; stroke-linecap: round"/>
    <path d="M 179.919809 167.838125 
L 175.919809 165.838125 
L 179.919809 163.838125 
" style="fill: none; stroke: #333333; stroke-linecap: round"/>
    <path d="M 259.523655 163.838125 
L 263.523655 165.838125 
L 259.523655 167.838125 
" style="fill: none; stroke: #333333; stroke-linecap: round"/>
   </g>
   <g id="text_3">
    <!-- $e$ -->
    <g transform="translate(216 146.518125) scale(0.12 -0.12)">
     <defs>
      <path id="DejaVuSans-Oblique-48" d="M 3078 2063 
Q 3088 2113 3092 2166 
Q 3097 2219 3097 2272 
Q 3097 2653 2873 2875 
Q 2650 3097 2266 3097 
Q 1838 3097 1509 2826 
Q 1181 2556 1013 2059 
L 3078 2063 
z
M 3578 1613 
L 903 1613 
Q 884 1494 878 1425 
Q 872 1356 872 1306 
Q 872 872 1139 634 
Q 1406 397 1894 397 
Q 2269 397 2603 481 
Q 2938 566 3225 728 
L 3116 159 
Q 2806 34 2476 -28 
Q 2147 -91 1806 -91 
Q 1078 -91 686 257 
Q 294 606 294 1247 
Q 294 1794 489 2264 
Q 684 2734 1063 3103 
Q 1306 3334 1642 3459 
Q 1978 3584 2356 3584 
Q 2950 3584 3301 3228 
Q 3653 2872 3653 2272 
Q 3653 2128 3634 1964 
Q 3616 1800 3578 1613 
z
" transform="scale(0.015625)"/>
     </defs>
     <use xlink:href="#DejaVuSans-Oblique-48"/>
    </g>
   </g>
   <g id="text_4">
    <!-- flap (vertical) bending -->
    <g style="fill: #d62728" transform="translate(421.2 151.917814) scale(0.085 -0.085)">
     <defs>
      <path id="DejaVuSans-13b0" d="M 1831 4863 
L 3431 4863 
L 3431 0 
L 2853 0 
L 2853 4384 
L 1825 4384 
Q 1516 4384 1395 4259 
Q 1275 4134 1275 3809 
L 1275 3500 
L 2222 3500 
L 2222 3053 
L 1275 3053 
L 1275 0 
L 697 0 
L 697 3053 
L 147 3053 
L 147 3500 
L 697 3500 
L 697 3744 
Q 697 4328 969 4595 
Q 1241 4863 1831 4863 
z
" transform="scale(0.015625)"/>
      <path id="DejaVuSans-53" d="M 1159 525 
L 1159 -1331 
L 581 -1331 
L 581 3500 
L 1159 3500 
L 1159 2969 
Q 1341 3281 1617 3432 
Q 1894 3584 2278 3584 
Q 2916 3584 3314 3078 
Q 3713 2572 3713 1747 
Q 3713 922 3314 415 
Q 2916 -91 2278 -91 
Q 1894 -91 1617 61 
Q 1341 213 1159 525 
z
M 3116 1747 
Q 3116 2381 2855 2742 
Q 2594 3103 2138 3103 
Q 1681 3103 1420 2742 
Q 1159 2381 1159 1747 
Q 1159 1113 1420 752 
Q 1681 391 2138 391 
Q 2594 391 2855 752 
Q 3116 1113 3116 1747 
z
" transform="scale(0.015625)"/>
      <path id="DejaVuSans-59" d="M 191 3500 
L 800 3500 
L 1894 563 
L 2988 3500 
L 3597 3500 
L 2284 0 
L 1503 0 
L 191 3500 
z
" transform="scale(0.015625)"/>
      <path id="DejaVuSans-45" d="M 3116 1747 
Q 3116 2381 2855 2742 
Q 2594 3103 2138 3103 
Q 1681 3103 1420 2742 
Q 1159 2381 1159 1747 
Q 1159 1113 1420 752 
Q 1681 391 2138 391 
Q 2594 391 2855 752 
Q 3116 1113 3116 1747 
z
M 1159 2969 
Q 1341 3281 1617 3432 
Q 1894 3584 2278 3584 
Q 2916 3584 3314 3078 
Q 3713 2572 3713 1747 
Q 3713 922 3314 415 
Q 2916 -91 2278 -91 
Q 1894 -91 1617 61 
Q 1341 213 1159 525 
L 1159 0 
L 581 0 
L 581 4863 
L 1159 4863 
L 1159 2969 
z
" transform="scale(0.015625)"/>
      <path id="DejaVuSans-4a" d="M 2906 1791 
Q 2906 2416 2648 2759 
Q 2391 3103 1925 3103 
Q 1463 3103 1205 2759 
Q 947 2416 947 1791 
Q 947 1169 1205 825 
Q 1463 481 1925 481 
Q 2391 481 2648 825 
Q 2906 1169 2906 1791 
z
M 3481 434 
Q 3481 -459 3084 -895 
Q 2688 -1331 1869 -1331 
Q 1566 -1331 1297 -1286 
Q 1028 -1241 775 -1147 
L 775 -588 
Q 1028 -725 1275 -790 
Q 1522 -856 1778 -856 
Q 2344 -856 2625 -561 
Q 2906 -266 2906 331 
L 2906 616 
Q 2728 306 2450 153 
Q 2172 0 1784 0 
Q 1141 0 747 490 
Q 353 981 353 1791 
Q 353 2603 747 3093 
Q 1141 3584 1784 3584 
Q 2172 3584 2450 3431 
Q 2728 3278 2906 2969 
L 2906 3500 
L 3481 3500 
L 3481 434 
z
" transform="scale(0.015625)"/>
     </defs>
     <use xlink:href="#DejaVuSans-13b0"/>
     <use xlink:href="#DejaVuSans-44" transform="translate(62.984375 0)"/>
     <use xlink:href="#DejaVuSans-53" transform="translate(124.265625 0)"/>
     <use xlink:href="#DejaVuSans-3" transform="translate(187.75 0)"/>
     <use xlink:href="#DejaVuSans-b" transform="translate(219.53125 0)"/>
     <use xlink:href="#DejaVuSans-59" transform="translate(258.546875 0)"/>
     <use xlink:href="#DejaVuSans-48" transform="translate(317.734375 0)"/>
     <use xlink:href="#DejaVuSans-55" transform="translate(379.265625 0)"/>
     <use xlink:href="#DejaVuSans-57" transform="translate(420.375 0)"/>
     <use xlink:href="#DejaVuSans-4c" transform="translate(459.578125 0)"/>
     <use xlink:href="#DejaVuSans-46" transform="translate(487.359375 0)"/>
     <use xlink:href="#DejaVuSans-44" transform="translate(542.34375 0)"/>
     <use xlink:href="#DejaVuSans-4f" transform="translate(603.625 0)"/>
     <use xlink:href="#DejaVuSans-c" transform="translate(631.40625 0)"/>
     <use xlink:href="#DejaVuSans-3" transform="translate(670.421875 0)"/>
     <use xlink:href="#DejaVuSans-45" transform="translate(702.203125 0)"/>
     <use xlink:href="#DejaVuSans-48" transform="translate(765.6875 0)"/>
     <use xlink:href="#DejaVuSans-51" transform="translate(827.21875 0)"/>
     <use xlink:href="#DejaVuSans-47" transform="translate(890.59375 0)"/>
     <use xlink:href="#DejaVuSans-4c" transform="translate(954.078125 0)"/>
     <use xlink:href="#DejaVuSans-51" transform="translate(981.859375 0)"/>
     <use xlink:href="#DejaVuSans-4a" transform="translate(1045.234375 0)"/>
    </g>
    <!-- neutral axis  →  $EI_z$ -->
    <g style="fill: #d62728" transform="translate(421.2 162.121466) scale(0.085 -0.085)">
     <defs>
      <path id="DejaVuSans-58" d="M 544 1381 
L 544 3500 
L 1119 3500 
L 1119 1403 
Q 1119 906 1312 657 
Q 1506 409 1894 409 
Q 2359 409 2629 706 
Q 2900 1003 2900 1516 
L 2900 3500 
L 3475 3500 
L 3475 0 
L 2900 0 
L 2900 538 
Q 2691 219 2414 64 
Q 2138 -91 1772 -91 
Q 1169 -91 856 284 
Q 544 659 544 1381 
z
M 1991 3584 
L 1991 3584 
z
" transform="scale(0.015625)"/>
      <path id="DejaVuSans-c1c" d="M 5050 2147 
L 5050 1866 
L 3822 638 
L 3447 1013 
L 4175 1741 
L 366 1741 
L 366 2272 
L 4175 2272 
L 3447 3000 
L 3822 3375 
L 5050 2147 
z
" transform="scale(0.015625)"/>
      <path id="DejaVuSans-Oblique-28" d="M 1081 4666 
L 4031 4666 
L 3928 4134 
L 1606 4134 
L 1338 2753 
L 3566 2753 
L 3463 2222 
L 1234 2222 
L 909 531 
L 3284 531 
L 3181 0 
L 172 0 
L 1081 4666 
z
" transform="scale(0.015625)"/>
      <path id="DejaVuSans-Oblique-2c" d="M 1081 4666 
L 1716 4666 
L 806 0 
L 172 0 
L 1081 4666 
z
" transform="scale(0.015625)"/>
      <path id="DejaVuSans-Oblique-5d" d="M 744 3500 
L 3475 3500 
L 3372 2975 
L 738 459 
L 2913 459 
L 2822 0 
L -19 0 
L 84 525 
L 2719 3041 
L 653 3041 
L 744 3500 
z
" transform="scale(0.015625)"/>
     </defs>
     <use xlink:href="#DejaVuSans-51" transform="translate(0 0.015625)"/>
     <use xlink:href="#DejaVuSans-48" transform="translate(63.378906 0.015625)"/>
     <use xlink:href="#DejaVuSans-58" transform="translate(124.902344 0.015625)"/>
     <use xlink:href="#DejaVuSans-57" transform="translate(188.28125 0.015625)"/>
     <use xlink:href="#DejaVuSans-55" transform="translate(227.490234 0.015625)"/>
     <use xlink:href="#DejaVuSans-44" transform="translate(268.603516 0.015625)"/>
     <use xlink:href="#DejaVuSans-4f" transform="translate(329.882812 0.015625)"/>
     <use xlink:href="#DejaVuSans-3" transform="translate(357.666016 0.015625)"/>
     <use xlink:href="#DejaVuSans-44" transform="translate(389.453125 0.015625)"/>
     <use xlink:href="#DejaVuSans-5b" transform="translate(450.732422 0.015625)"/>
     <use xlink:href="#DejaVuSans-4c" transform="translate(509.912109 0.015625)"/>
     <use xlink:href="#DejaVuSans-56" transform="translate(537.695312 0.015625)"/>
     <use xlink:href="#DejaVuSans-3" transform="translate(589.794922 0.015625)"/>
     <use xlink:href="#DejaVuSans-3" transform="translate(621.582031 0.015625)"/>
     <use xlink:href="#DejaVuSans-c1c" transform="translate(653.369141 0.015625)"/>
     <use xlink:href="#DejaVuSans-3" transform="translate(737.158203 0.015625)"/>
     <use xlink:href="#DejaVuSans-3" transform="translate(768.945312 0.015625)"/>
     <use xlink:href="#DejaVuSans-Oblique-28" transform="translate(800.732422 0.015625)"/>
     <use xlink:href="#DejaVuSans-Oblique-2c" transform="translate(863.916016 0.015625)"/>
     <use xlink:href="#DejaVuSans-Oblique-5d" transform="translate(893.408203 -14.984326) scale(0.7)"/>
    </g>
   </g>
   <g id="text_5">
    <!-- edge (chordwise) bending → $EI_y$ -->
    <g style="fill: #2ca02c" transform="translate(199.15 84.585156) scale(0.085 -0.085)">
     <defs>
      <path id="DejaVuSans-5a" d="M 269 3500 
L 844 3500 
L 1563 769 
L 2278 3500 
L 2956 3500 
L 3675 769 
L 4391 3500 
L 4966 3500 
L 4050 0 
L 3372 0 
L 2619 2869 
L 1863 0 
L 1184 0 
L 269 3500 
z
" transform="scale(0.015625)"/>
      <path id="DejaVuSans-Oblique-5c" d="M 1588 -325 
Q 1188 -997 936 -1164 
Q 684 -1331 294 -1331 
L -159 -1331 
L -63 -850 
L 269 -850 
Q 509 -850 678 -719 
Q 847 -588 1056 -206 
L 1234 128 
L 459 3500 
L 1069 3500 
L 1650 819 
L 3256 3500 
L 3859 3500 
L 1588 -325 
z
" transform="scale(0.015625)"/>
     </defs>
     <use xlink:href="#DejaVuSans-48" transform="translate(0 0.015625)"/>
     <use xlink:href="#DejaVuSans-47" transform="translate(61.523438 0.015625)"/>
     <use xlink:href="#DejaVuSans-4a" transform="translate(125 0.015625)"/>
     <use xlink:href="#DejaVuSans-48" transform="translate(188.476562 0.015625)"/>
     <use xlink:href="#DejaVuSans-3" transform="translate(250 0.015625)"/>
     <use xlink:href="#DejaVuSans-b" transform="translate(281.787109 0.015625)"/>
     <use xlink:href="#DejaVuSans-46" transform="translate(320.800781 0.015625)"/>
     <use xlink:href="#DejaVuSans-4b" transform="translate(375.78125 0.015625)"/>
     <use xlink:href="#DejaVuSans-52" transform="translate(439.160156 0.015625)"/>
     <use xlink:href="#DejaVuSans-55" transform="translate(500.341797 0.015625)"/>
     <use xlink:href="#DejaVuSans-47" transform="translate(539.455078 0.015625)"/>
     <use xlink:href="#DejaVuSans-5a" transform="translate(602.931641 0.015625)"/>
     <use xlink:href="#DejaVuSans-4c" transform="translate(684.71875 0.015625)"/>
     <use xlink:href="#DejaVuSans-56" transform="translate(712.501953 0.015625)"/>
     <use xlink:href="#DejaVuSans-48" transform="translate(764.601562 0.015625)"/>
     <use xlink:href="#DejaVuSans-c" transform="translate(826.125 0.015625)"/>
     <use xlink:href="#DejaVuSans-3" transform="translate(865.138672 0.015625)"/>
     <use xlink:href="#DejaVuSans-45" transform="translate(896.925781 0.015625)"/>
     <use xlink:href="#DejaVuSans-48" transform="translate(960.402344 0.015625)"/>
     <use xlink:href="#DejaVuSans-51" transform="translate(1021.925781 0.015625)"/>
     <use xlink:href="#DejaVuSans-47" transform="translate(1085.304688 0.015625)"/>
     <use xlink:href="#DejaVuSans-4c" transform="translate(1148.78125 0.015625)"/>
     <use xlink:href="#DejaVuSans-51" transform="translate(1176.564453 0.015625)"/>
     <use xlink:href="#DejaVuSans-4a" transform="translate(1239.943359 0.015625)"/>
     <use xlink:href="#DejaVuSans-3" transform="translate(1303.419922 0.015625)"/>
     <use xlink:href="#DejaVuSans-c1c" transform="translate(1335.207031 0.015625)"/>
     <use xlink:href="#DejaVuSans-3" transform="translate(1418.996094 0.015625)"/>
     <use xlink:href="#DejaVuSans-Oblique-28" transform="translate(1450.783203 0.015625)"/>
     <use xlink:href="#DejaVuSans-Oblique-2c" transform="translate(1513.966797 0.015625)"/>
     <use xlink:href="#DejaVuSans-Oblique-5c" transform="translate(1543.458984 -14.984326) scale(0.7)"/>
    </g>
   </g>
   <g id="patch_6">
    <path d="M 239.04 184.312741 
Q 239.04 154.861329 239.04 125.409916 
" style="fill: none; stroke: #4c4c4c; stroke-linecap: round"/>
    <path d="M 241.04 180.312741 
L 239.04 184.312741 
L 237.04 180.312741 
" style="fill: none; stroke: #4c4c4c; stroke-linecap: round"/>
    <path d="M 237.04 129.409916 
L 239.04 125.409916 
L 241.04 129.409916 
" style="fill: none; stroke: #4c4c4c; stroke-linecap: round"/>
   </g>
   <g id="text_6">
    <!-- $h$ -->
    <g style="fill: #4c4c4c" transform="translate(212.68 165.838125) scale(0.11 -0.11)">
     <defs>
      <path id="DejaVuSans-Oblique-4b" d="M 3566 2113 
L 3156 0 
L 2578 0 
L 2988 2091 
Q 3016 2238 3031 2350 
Q 3047 2463 3047 2528 
Q 3047 2791 2881 2937 
Q 2716 3084 2419 3084 
Q 1956 3084 1617 2771 
Q 1278 2459 1178 1941 
L 800 0 
L 225 0 
L 1172 4863 
L 1747 4863 
L 1375 2950 
Q 1594 3244 1934 3414 
Q 2275 3584 2650 3584 
Q 3113 3584 3367 3334 
Q 3622 3084 3622 2631 
Q 3622 2519 3608 2391 
Q 3594 2263 3566 2113 
z
" transform="scale(0.015625)"/>
     </defs>
     <use xlink:href="#DejaVuSans-Oblique-4b" transform="translate(0 0.015625)"/>
    </g>
   </g>
   <g id="text_7">
    <!-- closed cell (skins + spar webs) → torsion stiffness $GJ$;  webs carry transverse shear → shear areas $A_{sy},A_{sz}$ -->
    <g style="fill: #1f77b4" transform="translate(74.28 254.158125) scale(0.09 -0.09)">
     <defs>
      <path id="DejaVuSans-4e" d="M 581 4863 
L 1159 4863 
L 1159 1991 
L 2875 3500 
L 3609 3500 
L 1753 1863 
L 3688 0 
L 2938 0 
L 1159 1709 
L 1159 0 
L 581 0 
L 581 4863 
z
" transform="scale(0.015625)"/>
      <path id="DejaVuSans-e" d="M 2944 4013 
L 2944 2272 
L 4684 2272 
L 4684 1741 
L 2944 1741 
L 2944 0 
L 2419 0 
L 2419 1741 
L 678 1741 
L 678 2272 
L 2419 2272 
L 2419 4013 
L 2944 4013 
z
" transform="scale(0.015625)"/>
      <path id="DejaVuSans-Oblique-2a" d="M 3494 697 
L 3738 1919 
L 2700 1919 
L 2797 2438 
L 4453 2438 
L 4050 384 
Q 3634 156 3143 32 
Q 2653 -91 2156 -91 
Q 1278 -91 783 396 
Q 288 884 288 1753 
Q 288 2475 589 3126 
Q 891 3778 1422 4213 
Q 1756 4484 2153 4617 
Q 2550 4750 3034 4750 
Q 3472 4750 3873 4639 
Q 4275 4528 4641 4306 
L 4513 3634 
Q 4231 3928 3853 4083 
Q 3475 4238 3047 4238 
Q 2550 4238 2172 4048 
Q 1794 3859 1497 3463 
Q 1244 3125 1098 2667 
Q 953 2209 953 1734 
Q 953 1081 1287 751 
Q 1622 422 2284 422 
Q 2616 422 2925 492 
Q 3234 563 3494 697 
z
" transform="scale(0.015625)"/>
      <path id="DejaVuSans-Oblique-2d" d="M 1069 4666 
L 1703 4666 
L 856 325 
Q 691 -522 298 -901 
Q -94 -1281 -800 -1281 
L -1050 -1281 
L -947 -750 
L -750 -750 
Q -328 -750 -109 -509 
Q 109 -269 225 325 
L 1069 4666 
z
" transform="scale(0.015625)"/>
      <path id="DejaVuSans-1e" d="M 750 3309 
L 1409 3309 
L 1409 2516 
L 750 2516 
L 750 3309 
z
M 750 794 
L 1409 794 
L 1409 256 
L 897 -744 
L 494 -744 
L 750 256 
L 750 794 
z
" transform="scale(0.015625)"/>
      <path id="DejaVuSans-Oblique-24" d="M 2356 4666 
L 3072 4666 
L 3938 0 
L 3278 0 
L 3084 1197 
L 984 1197 
L 325 0 
L -341 0 
L 2356 4666 
z
M 2584 4044 
L 1275 1722 
L 2988 1722 
L 2584 4044 
z
" transform="scale(0.015625)"/>
      <path id="DejaVuSans-Oblique-56" d="M 3200 3397 
L 3091 2853 
Q 2863 2978 2609 3040 
Q 2356 3103 2088 3103 
Q 1634 3103 1373 2948 
Q 1113 2794 1113 2528 
Q 1113 2219 1719 2053 
Q 1766 2041 1788 2034 
L 1972 1978 
Q 2547 1819 2739 1644 
Q 2931 1469 2931 1166 
Q 2931 609 2489 259 
Q 2047 -91 1331 -91 
Q 1053 -91 747 -37 
Q 441 16 72 128 
L 184 722 
Q 500 559 806 475 
Q 1113 391 1394 391 
Q 1816 391 2080 572 
Q 2344 753 2344 1031 
Q 2344 1331 1650 1516 
L 1591 1531 
L 1394 1581 
Q 956 1697 753 1886 
Q 550 2075 550 2369 
Q 550 2928 970 3256 
Q 1391 3584 2113 3584 
Q 2397 3584 2667 3537 
Q 2938 3491 3200 3397 
z
" transform="scale(0.015625)"/>
      <path id="DejaVuSans-f" d="M 750 794 
L 1409 794 
L 1409 256 
L 897 -744 
L 494 -744 
L 750 256 
L 750 794 
z
" transform="scale(0.015625)"/>
     </defs>
     <use xlink:href="#DejaVuSans-46" transform="translate(0 0.015625)"/>
     <use xlink:href="#DejaVuSans-4f" transform="translate(54.980469 0.015625)"/>
     <use xlink:href="#DejaVuSans-52" transform="translate(82.763672 0.015625)"/>
     <use xlink:href="#DejaVuSans-56" transform="translate(143.945312 0.015625)"/>
     <use xlink:href="#DejaVuSans-48" transform="translate(196.044922 0.015625)"/>
     <use xlink:href="#DejaVuSans-47" transform="translate(257.568359 0.015625)"/>
     <use xlink:href="#DejaVuSans-3" transform="translate(321.044922 0.015625)"/>
     <use xlink:href="#DejaVuSans-46" transform="translate(352.832031 0.015625)"/>
     <use xlink:href="#DejaVuSans-48" transform="translate(407.8125 0.015625)"/>
     <use xlink:href="#DejaVuSans-4f" transform="translate(469.335938 0.015625)"/>
     <use xlink:href="#DejaVuSans-4f" transform="translate(497.119141 0.015625)"/>
     <use xlink:href="#DejaVuSans-3" transform="translate(524.902344 0.015625)"/>
     <use xlink:href="#DejaVuSans-b" transform="translate(556.689453 0.015625)"/>
     <use xlink:href="#DejaVuSans-56" transform="translate(595.703125 0.015625)"/>
     <use xlink:href="#DejaVuSans-4e" transform="translate(647.802734 0.015625)"/>
     <use xlink:href="#DejaVuSans-4c" transform="translate(705.712891 0.015625)"/>
     <use xlink:href="#DejaVuSans-51" transform="translate(733.496094 0.015625)"/>
     <use xlink:href="#DejaVuSans-56" transform="translate(796.875 0.015625)"/>
     <use xlink:href="#DejaVuSans-3" transform="translate(848.974609 0.015625)"/>
     <use xlink:href="#DejaVuSans-e" transform="translate(880.761719 0.015625)"/>
     <use xlink:href="#DejaVuSans-3" transform="translate(964.550781 0.015625)"/>
     <use xlink:href="#DejaVuSans-56" transform="translate(996.337891 0.015625)"/>
     <use xlink:href="#DejaVuSans-53" transform="translate(1048.4375 0.015625)"/>
     <use xlink:href="#DejaVuSans-44" transform="translate(1111.914062 0.015625)"/>
     <use xlink:href="#DejaVuSans-55" transform="translate(1173.193359 0.015625)"/>
     <use xlink:href="#DejaVuSans-3" transform="translate(1214.306641 0.015625)"/>
     <use xlink:href="#DejaVuSans-5a" transform="translate(1246.09375 0.015625)"/>
     <use xlink:href="#DejaVuSans-48" transform="translate(1327.880859 0.015625)"/>
     <use xlink:href="#DejaVuSans-45" transform="translate(1389.404297 0.015625)"/>
     <use xlink:href="#DejaVuSans-56" transform="translate(1452.880859 0.015625)"/>
     <use xlink:href="#DejaVuSans-c" transform="translate(1504.980469 0.015625)"/>
     <use xlink:href="#DejaVuSans-3" transform="translate(1543.994141 0.015625)"/>
     <use xlink:href="#DejaVuSans-c1c" transform="translate(1575.78125 0.015625)"/>
     <use xlink:href="#DejaVuSans-3" transform="translate(1659.570312 0.015625)"/>
     <use xlink:href="#DejaVuSans-57" transform="translate(1691.357422 0.015625)"/>
     <use xlink:href="#DejaVuSans-52" transform="translate(1730.566406 0.015625)"/>
     <use xlink:href="#DejaVuSans-55" transform="translate(1791.748047 0.015625)"/>
     <use xlink:href="#DejaVuSans-56" transform="translate(1832.861328 0.015625)"/>
     <use xlink:href="#DejaVuSans-4c" transform="translate(1884.960938 0.015625)"/>
     <use xlink:href="#DejaVuSans-52" transform="translate(1912.744141 0.015625)"/>
     <use xlink:href="#DejaVuSans-51" transform="translate(1973.925781 0.015625)"/>
     <use xlink:href="#DejaVuSans-3" transform="translate(2037.304688 0.015625)"/>
     <use xlink:href="#DejaVuSans-56" transform="translate(2069.091797 0.015625)"/>
     <use xlink:href="#DejaVuSans-57" transform="translate(2121.191406 0.015625)"/>
     <use xlink:href="#DejaVuSans-4c" transform="translate(2160.400391 0.015625)"/>
     <use xlink:href="#DejaVuSans-49" transform="translate(2188.183594 0.015625)"/>
     <use xlink:href="#DejaVuSans-49" transform="translate(2223.388672 0.015625)"/>
     <use xlink:href="#DejaVuSans-51" transform="translate(2258.59375 0.015625)"/>
     <use xlink:href="#DejaVuSans-48" transform="translate(2321.972656 0.015625)"/>
     <use xlink:href="#DejaVuSans-56" transform="translate(2383.496094 0.015625)"/>
     <use xlink:href="#DejaVuSans-56" transform="translate(2435.595703 0.015625)"/>
     <use xlink:href="#DejaVuSans-3" transform="translate(2487.695312 0.015625)"/>
     <use xlink:href="#DejaVuSans-Oblique-2a" transform="translate(2519.482422 0.015625)"/>
     <use xlink:href="#DejaVuSans-Oblique-2d" transform="translate(2596.972656 0.015625)"/>
     <use xlink:href="#DejaVuSans-1e" transform="translate(2626.464844 0.015625)"/>
     <use xlink:href="#DejaVuSans-3" transform="translate(2660.15625 0.015625)"/>
     <use xlink:href="#DejaVuSans-3" transform="translate(2691.943359 0.015625)"/>
     <use xlink:href="#DejaVuSans-5a" transform="translate(2723.730469 0.015625)"/>
     <use xlink:href="#DejaVuSans-48" transform="translate(2805.517578 0.015625)"/>
     <use xlink:href="#DejaVuSans-45" transform="translate(2867.041016 0.015625)"/>
     <use xlink:href="#DejaVuSans-56" transform="translate(2930.517578 0.015625)"/>
     <use xlink:href="#DejaVuSans-3" transform="translate(2982.617188 0.015625)"/>
     <use xlink:href="#DejaVuSans-46" transform="translate(3014.404297 0.015625)"/>
     <use xlink:href="#DejaVuSans-44" transform="translate(3069.384766 0.015625)"/>
     <use xlink:href="#DejaVuSans-55" transform="translate(3130.664062 0.015625)"/>
     <use xlink:href="#DejaVuSans-55" transform="translate(3169.777344 0.015625)"/>
     <use xlink:href="#DejaVuSans-5c" transform="translate(3210.890625 0.015625)"/>
     <use xlink:href="#DejaVuSans-3" transform="translate(3270.070312 0.015625)"/>
     <use xlink:href="#DejaVuSans-57" transform="translate(3301.857422 0.015625)"/>
     <use xlink:href="#DejaVuSans-55" transform="translate(3341.066406 0.015625)"/>
     <use xlink:href="#DejaVuSans-44" transform="translate(3382.179688 0.015625)"/>
     <use xlink:href="#DejaVuSans-51" transform="translate(3443.458984 0.015625)"/>
     <use xlink:href="#DejaVuSans-56" transform="translate(3506.837891 0.015625)"/>
     <use xlink:href="#DejaVuSans-59" transform="translate(3558.9375 0.015625)"/>
     <use xlink:href="#DejaVuSans-48" transform="translate(3618.117188 0.015625)"/>
     <use xlink:href="#DejaVuSans-55" transform="translate(3679.640625 0.015625)"/>
     <use xlink:href="#DejaVuSans-56" transform="translate(3720.753906 0.015625)"/>
     <use xlink:href="#DejaVuSans-48" transform="translate(3772.853516 0.015625)"/>
     <use xlink:href="#DejaVuSans-3" transform="translate(3834.376953 0.015625)"/>
     <use xlink:href="#DejaVuSans-56" transform="translate(3866.164062 0.015625)"/>
     <use xlink:href="#DejaVuSans-4b" transform="translate(3918.263672 0.015625)"/>
     <use xlink:href="#DejaVuSans-48" transform="translate(3981.642578 0.015625)"/>
     <use xlink:href="#DejaVuSans-44" transform="translate(4043.166016 0.015625)"/>
     <use xlink:href="#DejaVuSans-55" transform="translate(4104.445312 0.015625)"/>
     <use xlink:href="#DejaVuSans-3" transform="translate(4145.558594 0.015625)"/>
     <use xlink:href="#DejaVuSans-c1c" transform="translate(4177.345703 0.015625)"/>
     <use xlink:href="#DejaVuSans-3" transform="translate(4261.134766 0.015625)"/>
     <use xlink:href="#DejaVuSans-56" transform="translate(4292.921875 0.015625)"/>
     <use xlink:href="#DejaVuSans-4b" transform="translate(4345.021484 0.015625)"/>
     <use xlink:href="#DejaVuSans-48" transform="translate(4408.400391 0.015625)"/>
     <use xlink:href="#DejaVuSans-44" transform="translate(4469.923828 0.015625)"/>
     <use xlink:href="#DejaVuSans-55" transform="translate(4531.203125 0.015625)"/>
     <use xlink:href="#DejaVuSans-3" transform="translate(4572.316406 0.015625)"/>
     <use xlink:href="#DejaVuSans-44" transform="translate(4604.103516 0.015625)"/>
     <use xlink:href="#DejaVuSans-55" transform="translate(4665.382812 0.015625)"/>
     <use xlink:href="#DejaVuSans-48" transform="translate(4704.496094 0.015625)"/>
     <use xlink:href="#DejaVuSans-44" transform="translate(4766.019531 0.015625)"/>
     <use xlink:href="#DejaVuSans-56" transform="translate(4827.298828 0.015625)"/>
     <use xlink:href="#DejaVuSans-3" transform="translate(4879.398438 0.015625)"/>
     <use xlink:href="#DejaVuSans-Oblique-24" transform="translate(4911.185547 0.015625)"/>
     <use xlink:href="#DejaVuSans-Oblique-56" transform="translate(4979.59375 -14.984326) scale(0.7)"/>
     <use xlink:href="#DejaVuSans-Oblique-5c" transform="translate(5016.063477 -14.984326) scale(0.7)"/>
     <use xlink:href="#DejaVuSans-f" transform="translate(5060.223633 0.015625)"/>
     <use xlink:href="#DejaVuSans-Oblique-24" transform="translate(5111.493164 0.015625)"/>
     <use xlink:href="#DejaVuSans-Oblique-56" transform="translate(5179.901367 -14.984326) scale(0.7)"/>
     <use xlink:href="#DejaVuSans-Oblique-5d" transform="translate(5216.371094 -14.984326) scale(0.7)"/>
    </g>
   </g>
   <g id="text_8">
    <!-- $x$ = chord  •  $z$ = vertical (lift)  •  $y$ = span (out of page) -->
    <g style="fill: #595959" transform="translate(34.8 60.958125) scale(0.09 -0.09)">
     <defs>
      <path id="DejaVuSans-Oblique-5b" d="M 3841 3500 
L 2234 1784 
L 3219 0 
L 2559 0 
L 1819 1388 
L 531 0 
L -166 0 
L 1556 1844 
L 641 3500 
L 1300 3500 
L 1972 2234 
L 3144 3500 
L 3841 3500 
z
" transform="scale(0.015625)"/>
      <path id="DejaVuSans-20" d="M 678 2906 
L 4684 2906 
L 4684 2381 
L 678 2381 
L 678 2906 
z
M 678 1631 
L 4684 1631 
L 4684 1100 
L 678 1100 
L 678 1631 
z
" transform="scale(0.015625)"/>
      <path id="DejaVuSansDisplay-b" d="M 959 2381 
Q 959 2769 1229 3036 
Q 1500 3303 1894 3303 
Q 2281 3303 2548 3036 
Q 2816 2769 2816 2381 
Q 2816 1991 2547 1722 
Q 2278 1453 1888 1453 
Q 1497 1453 1228 1722 
Q 959 1991 959 2381 
z
" transform="scale(0.015625)"/>
     </defs>
     <use xlink:href="#DejaVuSans-Oblique-5b" transform="translate(0 0.015625)"/>
     <use xlink:href="#DejaVuSans-3" transform="translate(59.179688 0.015625)"/>
     <use xlink:href="#DejaVuSans-20" transform="translate(90.966797 0.015625)"/>
     <use xlink:href="#DejaVuSans-3" transform="translate(174.755859 0.015625)"/>
     <use xlink:href="#DejaVuSans-46" transform="translate(206.542969 0.015625)"/>
     <use xlink:href="#DejaVuSans-4b" transform="translate(261.523438 0.015625)"/>
     <use xlink:href="#DejaVuSans-52" transform="translate(324.902344 0.015625)"/>
     <use xlink:href="#DejaVuSans-55" transform="translate(386.083984 0.015625)"/>
     <use xlink:href="#DejaVuSans-47" transform="translate(425.197266 0.015625)"/>
     <use xlink:href="#DejaVuSans-3" transform="translate(488.673828 0.015625)"/>
     <use xlink:href="#DejaVuSans-3" transform="translate(520.460938 0.015625)"/>
     <use xlink:href="#DejaVuSansDisplay-b" transform="translate(552.248047 0.015625)"/>
     <use xlink:href="#DejaVuSans-3" transform="translate(611.232422 0.015625)"/>
     <use xlink:href="#DejaVuSans-3" transform="translate(643.019531 0.015625)"/>
     <use xlink:href="#DejaVuSans-Oblique-5d" transform="translate(674.806641 0.015625)"/>
     <use xlink:href="#DejaVuSans-3" transform="translate(727.296875 0.015625)"/>
     <use xlink:href="#DejaVuSans-20" transform="translate(759.083984 0.015625)"/>
     <use xlink:href="#DejaVuSans-3" transform="translate(842.873047 0.015625)"/>
     <use xlink:href="#DejaVuSans-59" transform="translate(874.660156 0.015625)"/>
     <use xlink:href="#DejaVuSans-48" transform="translate(933.839844 0.015625)"/>
     <use xlink:href="#DejaVuSans-55" transform="translate(995.363281 0.015625)"/>
     <use xlink:href="#DejaVuSans-57" transform="translate(1036.476562 0.015625)"/>
     <use xlink:href="#DejaVuSans-4c" transform="translate(1075.685547 0.015625)"/>
     <use xlink:href="#DejaVuSans-46" transform="translate(1103.46875 0.015625)"/>
     <use xlink:href="#DejaVuSans-44" transform="translate(1158.449219 0.015625)"/>
     <use xlink:href="#DejaVuSans-4f" transform="translate(1219.728516 0.015625)"/>
     <use xlink:href="#DejaVuSans-3" transform="translate(1247.511719 0.015625)"/>
     <use xlink:href="#DejaVuSans-b" transform="translate(1279.298828 0.015625)"/>
     <use xlink:href="#DejaVuSans-4f" transform="translate(1318.3125 0.015625)"/>
     <use xlink:href="#DejaVuSans-4c" transform="translate(1346.095703 0.015625)"/>
     <use xlink:href="#DejaVuSans-49" transform="translate(1373.878906 0.015625)"/>
     <use xlink:href="#DejaVuSans-57" transform="translate(1407.083984 0.015625)"/>
     <use xlink:href="#DejaVuSans-c" transform="translate(1446.292969 0.015625)"/>
     <use xlink:href="#DejaVuSans-3" transform="translate(1485.306641 0.015625)"/>
     <use xlink:href="#DejaVuSans-3" transform="translate(1517.09375 0.015625)"/>
     <use xlink:href="#DejaVuSansDisplay-b" transform="translate(1548.880859 0.015625)"/>
     <use xlink:href="#DejaVuSans-3" transform="translate(1607.865234 0.015625)"/>
     <use xlink:href="#DejaVuSans-3" transform="translate(1639.652344 0.015625)"/>
     <use xlink:href="#DejaVuSans-Oblique-5c" transform="translate(1671.439453 0.015625)"/>
     <use xlink:href="#DejaVuSans-3" transform="translate(1730.619141 0.015625)"/>
     <use xlink:href="#DejaVuSans-20" transform="translate(1762.40625 0.015625)"/>
     <use xlink:href="#DejaVuSans-3" transform="translate(1846.195312 0.015625)"/>
     <use xlink:href="#DejaVuSans-56" transform="translate(1877.982422 0.015625)"/>
     <use xlink:href="#DejaVuSans-53" transform="translate(1930.082031 0.015625)"/>
     <use xlink:href="#DejaVuSans-44" transform="translate(1993.558594 0.015625)"/>
     <use xlink:href="#DejaVuSans-51" transform="translate(2054.837891 0.015625)"/>
     <use xlink:href="#DejaVuSans-3" transform="translate(2118.216797 0.015625)"/>
     <use xlink:href="#DejaVuSans-b" transform="translate(2150.003906 0.015625)"/>
     <use xlink:href="#DejaVuSans-52" transform="translate(2189.017578 0.015625)"/>
     <use xlink:href="#DejaVuSans-58" transform="translate(2250.199219 0.015625)"/>
     <use xlink:href="#DejaVuSans-57" transform="translate(2313.578125 0.015625)"/>
     <use xlink:href="#DejaVuSans-3" transform="translate(2352.787109 0.015625)"/>
     <use xlink:href="#DejaVuSans-52" transform="translate(2384.574219 0.015625)"/>
     <use xlink:href="#DejaVuSans-49" transform="translate(2445.755859 0.015625)"/>
     <use xlink:href="#DejaVuSans-3" transform="translate(2480.960938 0.015625)"/>
     <use xlink:href="#DejaVuSans-53" transform="translate(2512.748047 0.015625)"/>
     <use xlink:href="#DejaVuSans-44" transform="translate(2576.224609 0.015625)"/>
     <use xlink:href="#DejaVuSans-4a" transform="translate(2637.503906 0.015625)"/>
     <use xlink:href="#DejaVuSans-48" transform="translate(2700.980469 0.015625)"/>
     <use xlink:href="#DejaVuSans-c" transform="translate(2762.503906 0.015625)"/>
    </g>
   </g>
   <g id="text_9">
    <!-- Wing section — where the structural properties come from -->
    <g transform="translate(162.084375 16.318125) scale(0.12 -0.12)">
     <defs>
      <path id="DejaVuSans-3a" d="M 213 4666 
L 850 4666 
L 1831 722 
L 2809 4666 
L 3519 4666 
L 4500 722 
L 5478 4666 
L 6119 4666 
L 4947 0 
L 4153 0 
L 3169 4050 
L 2175 0 
L 1381 0 
L 213 4666 
z
" transform="scale(0.015625)"/>
      <path id="DejaVuSans-af6" d="M 313 1978 
L 6088 1978 
L 6088 1528 
L 313 1528 
L 313 1978 
z
" transform="scale(0.015625)"/>
     </defs>
     <use xlink:href="#DejaVuSans-3a"/>
     <use xlink:href="#DejaVuSans-4c" transform="translate(96.671875 0)"/>
     <use xlink:href="#DejaVuSans-51" transform="translate(124.453125 0)"/>
     <use xlink:href="#DejaVuSans-4a" transform="translate(187.828125 0)"/>
     <use xlink:href="#DejaVuSans-3" transform="translate(251.3125 0)"/>
     <use xlink:href="#DejaVuSans-56" transform="translate(283.09375 0)"/>
     <use xlink:href="#DejaVuSans-48" transform="translate(335.1875 0)"/>
     <use xlink:href="#DejaVuSans-46" transform="translate(396.71875 0)"/>
     <use xlink:href="#DejaVuSans-57" transform="translate(451.703125 0)"/>
     <use xlink:href="#DejaVuSans-4c" transform="translate(490.90625 0)"/>
     <use xlink:href="#DejaVuSans-52" transform="translate(518.6875 0)"/>
     <use xlink:href="#DejaVuSans-51" transform="translate(579.875 0)"/>
     <use xlink:href="#DejaVuSans-3" transform="translate(643.25 0)"/>
     <use xlink:href="#DejaVuSans-af6" transform="translate(675.03125 0)"/>
     <use xlink:href="#DejaVuSans-3" transform="translate(775.03125 0)"/>
     <use xlink:href="#DejaVuSans-5a" transform="translate(806.8125 0)"/>
     <use xlink:href="#DejaVuSans-4b" transform="translate(888.59375 0)"/>
     <use xlink:href="#DejaVuSans-48" transform="translate(951.96875 0)"/>
     <use xlink:href="#DejaVuSans-55" transform="translate(1013.5 0)"/>
     <use xlink:href="#DejaVuSans-48" transform="translate(1052.40625 0)"/>
     <use xlink:href="#DejaVuSans-3" transform="translate(1113.9375 0)"/>
     <use xlink:href="#DejaVuSans-57" transform="translate(1145.71875 0)"/>
     <use xlink:href="#DejaVuSans-4b" transform="translate(1184.921875 0)"/>
     <use xlink:href="#DejaVuSans-48" transform="translate(1248.296875 0)"/>
     <use xlink:href="#DejaVuSans-3" transform="translate(1309.828125 0)"/>
     <use xlink:href="#DejaVuSans-56" transform="translate(1341.609375 0)"/>
     <use xlink:href="#DejaVuSans-57" transform="translate(1393.703125 0)"/>
     <use xlink:href="#DejaVuSans-55" transform="translate(1432.90625 0)"/>
     <use xlink:href="#DejaVuSans-58" transform="translate(1474.015625 0)"/>
     <use xlink:href="#DejaVuSans-46" transform="translate(1537.390625 0)"/>
     <use xlink:href="#DejaVuSans-57" transform="translate(1592.375 0)"/>
     <use xlink:href="#DejaVuSans-58" transform="translate(1631.578125 0)"/>
     <use xlink:href="#DejaVuSans-55" transform="translate(1694.953125 0)"/>
     <use xlink:href="#DejaVuSans-44" transform="translate(1736.0625 0)"/>
     <use xlink:href="#DejaVuSans-4f" transform="translate(1797.34375 0)"/>
     <use xlink:href="#DejaVuSans-3" transform="translate(1825.125 0)"/>
     <use xlink:href="#DejaVuSans-53" transform="translate(1856.90625 0)"/>
     <use xlink:href="#DejaVuSans-55" transform="translate(1920.390625 0)"/>
     <use xlink:href="#DejaVuSans-52" transform="translate(1959.296875 0)"/>
     <use xlink:href="#DejaVuSans-53" transform="translate(2020.484375 0)"/>
     <use xlink:href="#DejaVuSans-48" transform="translate(2083.96875 0)"/>
     <use xlink:href="#DejaVuSans-55" transform="translate(2145.5 0)"/>
     <use xlink:href="#DejaVuSans-57" transform="translate(2186.609375 0)"/>
     <use xlink:href="#DejaVuSans-4c" transform="translate(2225.8125 0)"/>
     <use xlink:href="#DejaVuSans-48" transform="translate(2253.59375 0)"/>
     <use xlink:href="#DejaVuSans-56" transform="translate(2315.125 0)"/>
     <use xlink:href="#DejaVuSans-3" transform="translate(2367.21875 0)"/>
     <use xlink:href="#DejaVuSans-46" transform="translate(2399 0)"/>
     <use xlink:href="#DejaVuSans-52" transform="translate(2453.984375 0)"/>
     <use xlink:href="#DejaVuSans-50" transform="translate(2515.171875 0)"/>
     <use xlink:href="#DejaVuSans-48" transform="translate(2612.578125 0)"/>
     <use xlink:href="#DejaVuSans-3" transform="translate(2674.109375 0)"/>
     <use xlink:href="#DejaVuSans-49" transform="translate(2705.890625 0)"/>
     <use xlink:href="#DejaVuSans-55" transform="translate(2741.09375 0)"/>
     <use xlink:href="#DejaVuSans-52" transform="translate(2780 0)"/>
     <use xlink:href="#DejaVuSans-50" transform="translate(2841.1875 0)"/>
    </g>
   </g>
   <g id="line2d_10">
    <defs>
     <path id="mf759235ca3" d="M 0 4.5 
C 1.193414 4.5 2.338109 4.025852 3.181981 3.181981 
C 4.025852 2.338109 4.5 1.193414 4.5 0 
C 4.5 -1.193414 4.025852 -2.338109 3.181981 -3.181981 
C 2.338109 -4.025852 1.193414 -4.5 0 -4.5 
C -1.193414 -4.5 -2.338109 -4.025852 -3.181981 -3.181981 
C -4.025852 -2.338109 -4.5 -1.193414 -4.5 0 
C -4.5 1.193414 -4.025852 2.338109 -3.181981 3.181981 
C -2.338109 4.025852 -1.193414 4.5 0 4.5 
z
" style="stroke: #1f77b4"/>
    </defs>
    <g clip-path="url(#p49cae32bb6)">
     <use xlink:href="#mf759235ca3" x="172.8" y="165.838125" style="fill: #1f77b4; stroke: #1f77b4"/>
    </g>
   </g>
   <g id="line2d_11">
    <defs>
     <path id="m1735d9f321" d="M -4.5 4.5 
L 4.5 4.5 
L 4.5 -4.5 
L -4.5 -4.5 
z
" style="stroke: #d62728; stroke-linejoin: miter"/>
    </defs>
    <g clip-path="url(#p49cae32bb6)">
     <use xlink:href="#m1735d9f321" x="266.64" y="154.8113" style="fill: #d62728; stroke: #d62728; stroke-linejoin: miter"/>
    </g>
   </g>
  </g>
 </g>
 <defs>
  <clipPath id="p49cae32bb6">
   <rect x="7.2" y="22.318125" width="662.4" height="264.96"/>
  </clipPath>
 </defs>
</svg>
