<?xml version="1.0" encoding="utf-8" standalone="no"?>
<!DOCTYPE svg PUBLIC "-//W3C//DTD SVG 1.1//EN"
  "http://www.w3.org/Graphics/SVG/1.1/DTD/svg11.dtd">
<svg xmlns:xlink="http://www.w3.org/1999/xlink" width="878.598045pt" height="256.373014pt" viewBox="0 0 878.598045 256.373014" xmlns="http://www.w3.org/2000/svg" version="1.1">
 <metadata>
  <rdf:RDF xmlns:dc="http://purl.org/dc/elements/1.1/" xmlns:cc="http://creativecommons.org/ns#" xmlns:rdf="http://www.w3.org/1999/02/22-rdf-syntax-ns#">
   <cc:Work>
    <dc:type rdf:resource="http://purl.org/dc/dcmitype/StillImage"/>
    <dc:date>2026-07-02T22:51:33.119321</dc:date>
    <dc:format>image/svg+xml</dc:format>
    <dc:creator>
     <cc:Agent>
      <dc:title>Matplotlib v3.11.0, https://matplotlib.org/</dc:title>
     </cc:Agent>
    </dc:creator>
   </cc:Work>
  </rdf:RDF>
 </metadata>
 <defs>
  <style type="text/css">*{stroke-linejoin: round; stroke-linecap: butt}</style>
 </defs>
 <g id="figure_1">
  <g id="patch_1">
   <path d="M 0 256.373014 
L 878.598045 256.373014 
L 878.598045 0 
L 0 0 
z
" style="fill: #ffffff"/>
  </g>
  <g id="axes_1">
   <g id="patch_2">
    <path d="M 19.67044 198.326229 
L 54.87206 198.326229 
L 54.87206 65.342328 
L 19.67044 65.342328 
z
" clip-path="url(#p0436241133)" style="fill: url(#h6a82a943dc); stroke: #000000; stroke-linejoin: miter"/>
   </g>
   <g id="line2d_1">
    <path d="M 54.87206 53.608455 
L 96.429529 54.222 
L 137.986998 56.09245 
L 179.544467 59.316999 
L 221.101936 64.088728 
L 262.659405 70.769264 
L 304.216874 80.092759 
L 345.774343 93.963364 
L 387.331811 131.834278 
" clip-path="url(#p0436241133)" style="fill: none; stroke-dasharray: 4.44,1.92; stroke-dashoffset: 0; stroke: #1f77b4; stroke-width: 1.2"/>
   </g>
   <g id="line2d_2">
    <path d="M 54.87206 131.834278 
L 96.429529 132.689873 
L 137.986998 135.256658 
L 179.544467 139.534633 
L 221.101936 145.523797 
L 262.659405 153.224152 
L 304.216874 162.635696 
L 345.774343 173.758431 
L 387.331811 186.592355 
" clip-path="url(#p0436241133)" style="fill: none; stroke: #666666; stroke-width: 2; stroke-linecap: square"/>
   </g>
   <g id="line2d_3">
    <path d="M 54.87206 131.834278 
L 96.429529 131.834278 
L 137.986998 131.834278 
L 179.544467 131.834278 
L 221.101936 131.834278 
L 262.659405 131.834278 
L 304.216874 131.834278 
L 345.774343 131.834278 
L 387.331811 131.834278 
" clip-path="url(#p0436241133)" style="fill: none; stroke-dasharray: 1,1.65; stroke-dashoffset: 0; stroke: #999999"/>
   </g>
   <g id="line2d_4">
    <path d="M 7.936566 131.834278 
L 434.267306 131.834278 
" clip-path="url(#p0436241133)" style="fill: none; stroke: #000000; stroke-width: 2; stroke-linecap: square"/>
   </g>
   <g id="text_1">
    <!-- clamped root -->
    <g transform="translate(7.471406 223.666512) scale(0.09 -0.09)">
     <defs>
      <path id="DejaVuSans-46" d="M 3122 3366 
L 3122 2828 
Q 2878 2963 2633 3030 
Q 2388 3097 2138 3097 
Q 1578 3097 1268 2742 
Q 959 2388 959 1747 
Q 959 1106 1268 751 
Q 1578 397 2138 397 
Q 2388 397 2633 464 
Q 2878 531 3122 666 
L 3122 134 
Q 2881 22 2623 -34 
Q 2366 -91 2075 -91 
Q 1284 -91 818 406 
Q 353 903 353 1747 
Q 353 2603 823 3093 
Q 1294 3584 2113 3584 
Q 2378 3584 2631 3529 
Q 2884 3475 3122 3366 
z
" transform="scale(0.015625)"/>
      <path id="DejaVuSans-4f" d="M 603 4863 
L 1178 4863 
L 1178 0 
L 603 0 
L 603 4863 
z
" transform="scale(0.015625)"/>
      <path id="DejaVuSans-44" d="M 2194 1759 
Q 1497 1759 1228 1600 
Q 959 1441 959 1056 
Q 959 750 1161 570 
Q 1363 391 1709 391 
Q 2188 391 2477 730 
Q 2766 1069 2766 1631 
L 2766 1759 
L 2194 1759 
z
M 3341 1997 
L 3341 0 
L 2766 0 
L 2766 531 
Q 2569 213 2275 61 
Q 1981 -91 1556 -91 
Q 1019 -91 701 211 
Q 384 513 384 1019 
Q 384 1609 779 1909 
Q 1175 2209 1959 2209 
L 2766 2209 
L 2766 2266 
Q 2766 2663 2505 2880 
Q 2244 3097 1772 3097 
Q 1472 3097 1187 3025 
Q 903 2953 641 2809 
L 641 3341 
Q 956 3463 1253 3523 
Q 1550 3584 1831 3584 
Q 2591 3584 2966 3190 
Q 3341 2797 3341 1997 
z
" transform="scale(0.015625)"/>
      <path id="DejaVuSans-50" d="M 3328 2828 
Q 3544 3216 3844 3400 
Q 4144 3584 4550 3584 
Q 5097 3584 5394 3201 
Q 5691 2819 5691 2113 
L 5691 0 
L 5113 0 
L 5113 2094 
Q 5113 2597 4934 2840 
Q 4756 3084 4391 3084 
Q 3944 3084 3684 2787 
Q 3425 2491 3425 1978 
L 3425 0 
L 2847 0 
L 2847 2094 
Q 2847 2600 2669 2842 
Q 2491 3084 2119 3084 
Q 1678 3084 1418 2786 
Q 1159 2488 1159 1978 
L 1159 0 
L 581 0 
L 581 3500 
L 1159 3500 
L 1159 2956 
Q 1356 3278 1631 3431 
Q 1906 3584 2284 3584 
Q 2666 3584 2933 3390 
Q 3200 3197 3328 2828 
z
" transform="scale(0.015625)"/>
      <path id="DejaVuSans-53" d="M 1159 525 
L 1159 -1331 
L 581 -1331 
L 581 3500 
L 1159 3500 
L 1159 2969 
Q 1341 3281 1617 3432 
Q 1894 3584 2278 3584 
Q 2916 3584 3314 3078 
Q 3713 2572 3713 1747 
Q 3713 922 3314 415 
Q 2916 -91 2278 -91 
Q 1894 -91 1617 61 
Q 1341 213 1159 525 
z
M 3116 1747 
Q 3116 2381 2855 2742 
Q 2594 3103 2138 3103 
Q 1681 3103 1420 2742 
Q 1159 2381 1159 1747 
Q 1159 1113 1420 752 
Q 1681 391 2138 391 
Q 2594 391 2855 752 
Q 3116 1113 3116 1747 
z
" transform="scale(0.015625)"/>
      <path id="DejaVuSans-48" d="M 3597 1894 
L 3597 1613 
L 953 1613 
Q 991 1019 1311 708 
Q 1631 397 2203 397 
Q 2534 397 2845 478 
Q 3156 559 3463 722 
L 3463 178 
Q 3153 47 2828 -22 
Q 2503 -91 2169 -91 
Q 1331 -91 842 396 
Q 353 884 353 1716 
Q 353 2575 817 3079 
Q 1281 3584 2069 3584 
Q 2775 3584 3186 3129 
Q 3597 2675 3597 1894 
z
M 3022 2063 
Q 3016 2534 2758 2815 
Q 2500 3097 2075 3097 
Q 1594 3097 1305 2825 
Q 1016 2553 972 2059 
L 3022 2063 
z
" transform="scale(0.015625)"/>
      <path id="DejaVuSans-47" d="M 2906 2969 
L 2906 4863 
L 3481 4863 
L 3481 0 
L 2906 0 
L 2906 525 
Q 2725 213 2448 61 
Q 2172 -91 1784 -91 
Q 1150 -91 751 415 
Q 353 922 353 1747 
Q 353 2572 751 3078 
Q 1150 3584 1784 3584 
Q 2172 3584 2448 3432 
Q 2725 3281 2906 2969 
z
M 947 1747 
Q 947 1113 1208 752 
Q 1469 391 1925 391 
Q 2381 391 2643 752 
Q 2906 1113 2906 1747 
Q 2906 2381 2643 2742 
Q 2381 3103 1925 3103 
Q 1469 3103 1208 2742 
Q 947 2381 947 1747 
z
" transform="scale(0.015625)"/>
      <path id="DejaVuSans-3" transform="scale(0.015625)"/>
      <path id="DejaVuSans-55" d="M 2631 2963 
Q 2534 3019 2420 3045 
Q 2306 3072 2169 3072 
Q 1681 3072 1420 2755 
Q 1159 2438 1159 1844 
L 1159 0 
L 581 0 
L 581 3500 
L 1159 3500 
L 1159 2956 
Q 1341 3275 1631 3429 
Q 1922 3584 2338 3584 
Q 2397 3584 2469 3576 
Q 2541 3569 2628 3553 
L 2631 2963 
z
" transform="scale(0.015625)"/>
      <path id="DejaVuSans-52" d="M 1959 3097 
Q 1497 3097 1228 2736 
Q 959 2375 959 1747 
Q 959 1119 1226 758 
Q 1494 397 1959 397 
Q 2419 397 2687 759 
Q 2956 1122 2956 1747 
Q 2956 2369 2687 2733 
Q 2419 3097 1959 3097 
z
M 1959 3584 
Q 2709 3584 3137 3096 
Q 3566 2609 3566 1747 
Q 3566 888 3137 398 
Q 2709 -91 1959 -91 
Q 1206 -91 779 398 
Q 353 888 353 1747 
Q 353 2609 779 3096 
Q 1206 3584 1959 3584 
z
" transform="scale(0.015625)"/>
      <path id="DejaVuSans-57" d="M 1172 4494 
L 1172 3500 
L 2356 3500 
L 2356 3053 
L 1172 3053 
L 1172 1153 
Q 1172 725 1289 603 
Q 1406 481 1766 481 
L 2356 481 
L 2356 0 
L 1766 0 
Q 1100 0 847 248 
Q 594 497 594 1153 
L 594 3053 
L 172 3053 
L 172 3500 
L 594 3500 
L 594 4494 
L 1172 4494 
z
" transform="scale(0.015625)"/>
     </defs>
     <use xlink:href="#DejaVuSans-46"/>
     <use xlink:href="#DejaVuSans-4f" transform="translate(54.984375 0)"/>
     <use xlink:href="#DejaVuSans-44" transform="translate(82.765625 0)"/>
     <use xlink:href="#DejaVuSans-50" transform="translate(144.046875 0)"/>
     <use xlink:href="#DejaVuSans-53" transform="translate(241.453125 0)"/>
     <use xlink:href="#DejaVuSans-48" transform="translate(304.9375 0)"/>
     <use xlink:href="#DejaVuSans-47" transform="translate(366.46875 0)"/>
     <use xlink:href="#DejaVuSans-3" transform="translate(429.953125 0)"/>
     <use xlink:href="#DejaVuSans-55" transform="translate(461.734375 0)"/>
     <use xlink:href="#DejaVuSans-52" transform="translate(500.640625 0)"/>
     <use xlink:href="#DejaVuSans-52" transform="translate(561.828125 0)"/>
     <use xlink:href="#DejaVuSans-57" transform="translate(623.015625 0)"/>
    </g>
    <!-- all 6 DOF = 0 -->
    <g transform="translate(7.2 234.468972) scale(0.09 -0.09)">
     <defs>
      <path id="DejaVuSans-19" d="M 2113 2584 
Q 1688 2584 1439 2293 
Q 1191 2003 1191 1497 
Q 1191 994 1439 701 
Q 1688 409 2113 409 
Q 2538 409 2786 701 
Q 3034 994 3034 1497 
Q 3034 2003 2786 2293 
Q 2538 2584 2113 2584 
z
M 3366 4563 
L 3366 3988 
Q 3128 4100 2886 4159 
Q 2644 4219 2406 4219 
Q 1781 4219 1451 3797 
Q 1122 3375 1075 2522 
Q 1259 2794 1537 2939 
Q 1816 3084 2150 3084 
Q 2853 3084 3261 2657 
Q 3669 2231 3669 1497 
Q 3669 778 3244 343 
Q 2819 -91 2113 -91 
Q 1303 -91 875 529 
Q 447 1150 447 2328 
Q 447 3434 972 4092 
Q 1497 4750 2381 4750 
Q 2619 4750 2861 4703 
Q 3103 4656 3366 4563 
z
" transform="scale(0.015625)"/>
      <path id="DejaVuSans-27" d="M 1259 4147 
L 1259 519 
L 2022 519 
Q 2988 519 3436 956 
Q 3884 1394 3884 2338 
Q 3884 3275 3436 3711 
Q 2988 4147 2022 4147 
L 1259 4147 
z
M 628 4666 
L 1925 4666 
Q 3281 4666 3915 4102 
Q 4550 3538 4550 2338 
Q 4550 1131 3912 565 
Q 3275 0 1925 0 
L 628 0 
L 628 4666 
z
" transform="scale(0.015625)"/>
      <path id="DejaVuSans-32" d="M 2522 4238 
Q 1834 4238 1429 3725 
Q 1025 3213 1025 2328 
Q 1025 1447 1429 934 
Q 1834 422 2522 422 
Q 3209 422 3611 934 
Q 4013 1447 4013 2328 
Q 4013 3213 3611 3725 
Q 3209 4238 2522 4238 
z
M 2522 4750 
Q 3503 4750 4090 4092 
Q 4678 3434 4678 2328 
Q 4678 1225 4090 567 
Q 3503 -91 2522 -91 
Q 1538 -91 948 565 
Q 359 1222 359 2328 
Q 359 3434 948 4092 
Q 1538 4750 2522 4750 
z
" transform="scale(0.015625)"/>
      <path id="DejaVuSans-29" d="M 628 4666 
L 3309 4666 
L 3309 4134 
L 1259 4134 
L 1259 2759 
L 3109 2759 
L 3109 2228 
L 1259 2228 
L 1259 0 
L 628 0 
L 628 4666 
z
" transform="scale(0.015625)"/>
      <path id="DejaVuSans-20" d="M 678 2906 
L 4684 2906 
L 4684 2381 
L 678 2381 
L 678 2906 
z
M 678 1631 
L 4684 1631 
L 4684 1100 
L 678 1100 
L 678 1631 
z
" transform="scale(0.015625)"/>
      <path id="DejaVuSans-13" d="M 2034 4250 
Q 1547 4250 1301 3770 
Q 1056 3291 1056 2328 
Q 1056 1369 1301 889 
Q 1547 409 2034 409 
Q 2525 409 2770 889 
Q 3016 1369 3016 2328 
Q 3016 3291 2770 3770 
Q 2525 4250 2034 4250 
z
M 2034 4750 
Q 2819 4750 3233 4129 
Q 3647 3509 3647 2328 
Q 3647 1150 3233 529 
Q 2819 -91 2034 -91 
Q 1250 -91 836 529 
Q 422 1150 422 2328 
Q 422 3509 836 4129 
Q 1250 4750 2034 4750 
z
" transform="scale(0.015625)"/>
     </defs>
     <use xlink:href="#DejaVuSans-44"/>
     <use xlink:href="#DejaVuSans-4f" transform="translate(61.28125 0)"/>
     <use xlink:href="#DejaVuSans-4f" transform="translate(89.0625 0)"/>
     <use xlink:href="#DejaVuSans-3" transform="translate(116.84375 0)"/>
     <use xlink:href="#DejaVuSans-19" transform="translate(148.625 0)"/>
     <use xlink:href="#DejaVuSans-3" transform="translate(212.25 0)"/>
     <use xlink:href="#DejaVuSans-27" transform="translate(244.03125 0)"/>
     <use xlink:href="#DejaVuSans-32" transform="translate(321.03125 0)"/>
     <use xlink:href="#DejaVuSans-29" transform="translate(399.75 0)"/>
     <use xlink:href="#DejaVuSans-3" transform="translate(457.265625 0)"/>
     <use xlink:href="#DejaVuSans-20" transform="translate(489.046875 0)"/>
     <use xlink:href="#DejaVuSans-3" transform="translate(572.84375 0)"/>
     <use xlink:href="#DejaVuSans-13" transform="translate(604.625 0)"/>
    </g>
   </g>
   <g id="text_2">
    <!-- lift  $l(y)$  (elliptical) -->
    <g style="fill: #1f77b4" transform="translate(175.201936 39.918935) scale(0.1 -0.1)">
     <defs>
      <path id="DejaVuSans-4c" d="M 603 3500 
L 1178 3500 
L 1178 0 
L 603 0 
L 603 3500 
z
M 603 4863 
L 1178 4863 
L 1178 4134 
L 603 4134 
L 603 4863 
z
" transform="scale(0.015625)"/>
      <path id="DejaVuSans-49" d="M 2375 4863 
L 2375 4384 
L 1825 4384 
Q 1516 4384 1395 4259 
Q 1275 4134 1275 3809 
L 1275 3500 
L 2222 3500 
L 2222 3053 
L 1275 3053 
L 1275 0 
L 697 0 
L 697 3053 
L 147 3053 
L 147 3500 
L 697 3500 
L 697 3744 
Q 697 4328 969 4595 
Q 1241 4863 1831 4863 
L 2375 4863 
z
" transform="scale(0.015625)"/>
      <path id="DejaVuSans-Oblique-4f" d="M 1172 4863 
L 1747 4863 
L 800 0 
L 225 0 
L 1172 4863 
z
" transform="scale(0.015625)"/>
      <path id="DejaVuSans-b" d="M 1984 4856 
Q 1566 4138 1362 3434 
Q 1159 2731 1159 2009 
Q 1159 1288 1364 580 
Q 1569 -128 1984 -844 
L 1484 -844 
Q 1016 -109 783 600 
Q 550 1309 550 2009 
Q 550 2706 781 3412 
Q 1013 4119 1484 4856 
L 1984 4856 
z
" transform="scale(0.015625)"/>
      <path id="DejaVuSans-Oblique-5c" d="M 1588 -325 
Q 1188 -997 936 -1164 
Q 684 -1331 294 -1331 
L -159 -1331 
L -63 -850 
L 269 -850 
Q 509 -850 678 -719 
Q 847 -588 1056 -206 
L 1234 128 
L 459 3500 
L 1069 3500 
L 1650 819 
L 3256 3500 
L 3859 3500 
L 1588 -325 
z
" transform="scale(0.015625)"/>
      <path id="DejaVuSans-c" d="M 513 4856 
L 1013 4856 
Q 1481 4119 1714 3412 
Q 1947 2706 1947 2009 
Q 1947 1309 1714 600 
Q 1481 -109 1013 -844 
L 513 -844 
Q 928 -128 1133 580 
Q 1338 1288 1338 2009 
Q 1338 2731 1133 3434 
Q 928 4138 513 4856 
z
" transform="scale(0.015625)"/>
     </defs>
     <use xlink:href="#DejaVuSans-4f" transform="translate(0 0.015625)"/>
     <use xlink:href="#DejaVuSans-4c" transform="translate(27.783203 0.015625)"/>
     <use xlink:href="#DejaVuSans-49" transform="translate(55.566406 0.015625)"/>
     <use xlink:href="#DejaVuSans-57" transform="translate(88.771484 0.015625)"/>
     <use xlink:href="#DejaVuSans-3" transform="translate(127.980469 0.015625)"/>
     <use xlink:href="#DejaVuSans-3" transform="translate(159.767578 0.015625)"/>
     <use xlink:href="#DejaVuSans-Oblique-4f" transform="translate(191.554688 0.015625)"/>
     <use xlink:href="#DejaVuSans-b" transform="translate(219.337891 0.015625)"/>
     <use xlink:href="#DejaVuSans-Oblique-5c" transform="translate(258.351562 0.015625)"/>
     <use xlink:href="#DejaVuSans-c" transform="translate(317.53125 0.015625)"/>
     <use xlink:href="#DejaVuSans-3" transform="translate(356.544922 0.015625)"/>
     <use xlink:href="#DejaVuSans-3" transform="translate(388.332031 0.015625)"/>
     <use xlink:href="#DejaVuSans-b" transform="translate(420.119141 0.015625)"/>
     <use xlink:href="#DejaVuSans-48" transform="translate(459.132812 0.015625)"/>
     <use xlink:href="#DejaVuSans-4f" transform="translate(520.65625 0.015625)"/>
     <use xlink:href="#DejaVuSans-4f" transform="translate(548.439453 0.015625)"/>
     <use xlink:href="#DejaVuSans-4c" transform="translate(576.222656 0.015625)"/>
     <use xlink:href="#DejaVuSans-53" transform="translate(604.005859 0.015625)"/>
     <use xlink:href="#DejaVuSans-57" transform="translate(667.482422 0.015625)"/>
     <use xlink:href="#DejaVuSans-4c" transform="translate(706.691406 0.015625)"/>
     <use xlink:href="#DejaVuSans-46" transform="translate(734.474609 0.015625)"/>
     <use xlink:href="#DejaVuSans-44" transform="translate(789.455078 0.015625)"/>
     <use xlink:href="#DejaVuSans-4f" transform="translate(850.734375 0.015625)"/>
     <use xlink:href="#DejaVuSans-c" transform="translate(878.517578 0.015625)"/>
    </g>
   </g>
   <g id="text_3">
    <!-- deformed -->
    <g style="fill: #666666" transform="translate(343.844936 199.297885) scale(0.09 -0.09)">
     <use xlink:href="#DejaVuSans-47"/>
     <use xlink:href="#DejaVuSans-48" transform="translate(63.484375 0)"/>
     <use xlink:href="#DejaVuSans-49" transform="translate(125.015625 0)"/>
     <use xlink:href="#DejaVuSans-52" transform="translate(160.21875 0)"/>
     <use xlink:href="#DejaVuSans-55" transform="translate(221.40625 0)"/>
     <use xlink:href="#DejaVuSans-50" transform="translate(260.765625 0)"/>
     <use xlink:href="#DejaVuSans-48" transform="translate(358.171875 0)"/>
     <use xlink:href="#DejaVuSans-47" transform="translate(419.703125 0)"/>
    </g>
   </g>
   <g id="text_4">
    <!-- span  $y$ -->
    <g transform="translate(137.009175 235.86574) scale(0.09 -0.09)">
     <defs>
      <path id="DejaVuSans-56" d="M 2834 3397 
L 2834 2853 
Q 2591 2978 2328 3040 
Q 2066 3103 1784 3103 
Q 1356 3103 1142 2972 
Q 928 2841 928 2578 
Q 928 2378 1081 2264 
Q 1234 2150 1697 2047 
L 1894 2003 
Q 2506 1872 2764 1633 
Q 3022 1394 3022 966 
Q 3022 478 2636 193 
Q 2250 -91 1575 -91 
Q 1294 -91 989 -36 
Q 684 19 347 128 
L 347 722 
Q 666 556 975 473 
Q 1284 391 1588 391 
Q 1994 391 2212 530 
Q 2431 669 2431 922 
Q 2431 1156 2273 1281 
Q 2116 1406 1581 1522 
L 1381 1569 
Q 847 1681 609 1914 
Q 372 2147 372 2553 
Q 372 3047 722 3315 
Q 1072 3584 1716 3584 
Q 2034 3584 2315 3537 
Q 2597 3491 2834 3397 
z
" transform="scale(0.015625)"/>
      <path id="DejaVuSans-51" d="M 3513 2113 
L 3513 0 
L 2938 0 
L 2938 2094 
Q 2938 2591 2744 2837 
Q 2550 3084 2163 3084 
Q 1697 3084 1428 2787 
Q 1159 2491 1159 1978 
L 1159 0 
L 581 0 
L 581 3500 
L 1159 3500 
L 1159 2956 
Q 1366 3272 1645 3428 
Q 1925 3584 2291 3584 
Q 2894 3584 3203 3211 
Q 3513 2838 3513 2113 
z
" transform="scale(0.015625)"/>
     </defs>
     <use xlink:href="#DejaVuSans-56"/>
     <use xlink:href="#DejaVuSans-53" transform="translate(52.099609 0)"/>
     <use xlink:href="#DejaVuSans-44" transform="translate(115.576172 0)"/>
     <use xlink:href="#DejaVuSans-51" transform="translate(176.855469 0)"/>
     <use xlink:href="#DejaVuSans-3" transform="translate(240.234375 0)"/>
     <use xlink:href="#DejaVuSans-3" transform="translate(272.021484 0)"/>
     <use xlink:href="#DejaVuSans-Oblique-5c" transform="translate(303.808594 0)"/>
    </g>
   </g>
   <g id="text_5">
    <!-- lift  $z$ -->
    <g transform="translate(60.738997 182.4746) scale(0.09 -0.09)">
     <defs>
      <path id="DejaVuSans-Oblique-5d" d="M 744 3500 
L 3475 3500 
L 3372 2975 
L 738 459 
L 2913 459 
L 2822 0 
L -19 0 
L 84 525 
L 2719 3041 
L 653 3041 
L 744 3500 
z
" transform="scale(0.015625)"/>
     </defs>
     <use xlink:href="#DejaVuSans-4f" transform="translate(0 0.015625)"/>
     <use xlink:href="#DejaVuSans-4c" transform="translate(27.783203 0.015625)"/>
     <use xlink:href="#DejaVuSans-49" transform="translate(55.566406 0.015625)"/>
     <use xlink:href="#DejaVuSans-57" transform="translate(88.771484 0.015625)"/>
     <use xlink:href="#DejaVuSans-3" transform="translate(127.980469 0.015625)"/>
     <use xlink:href="#DejaVuSans-3" transform="translate(159.767578 0.015625)"/>
     <use xlink:href="#DejaVuSans-Oblique-5d" transform="translate(191.554688 0.015625)"/>
    </g>
   </g>
   <g id="text_6">
    <!-- (a)  side view — cantilever bending under lift -->
    <g transform="translate(85.855373 16.318125) scale(0.12 -0.12)">
     <defs>
      <path id="DejaVuSans-59" d="M 191 3500 
L 800 3500 
L 1894 563 
L 2988 3500 
L 3597 3500 
L 2284 0 
L 1503 0 
L 191 3500 
z
" transform="scale(0.015625)"/>
      <path id="DejaVuSans-5a" d="M 269 3500 
L 844 3500 
L 1563 769 
L 2278 3500 
L 2956 3500 
L 3675 769 
L 4391 3500 
L 4966 3500 
L 4050 0 
L 3372 0 
L 2619 2869 
L 1863 0 
L 1184 0 
L 269 3500 
z
" transform="scale(0.015625)"/>
      <path id="DejaVuSans-af6" d="M 313 1978 
L 6088 1978 
L 6088 1528 
L 313 1528 
L 313 1978 
z
" transform="scale(0.015625)"/>
      <path id="DejaVuSans-45" d="M 3116 1747 
Q 3116 2381 2855 2742 
Q 2594 3103 2138 3103 
Q 1681 3103 1420 2742 
Q 1159 2381 1159 1747 
Q 1159 1113 1420 752 
Q 1681 391 2138 391 
Q 2594 391 2855 752 
Q 3116 1113 3116 1747 
z
M 1159 2969 
Q 1341 3281 1617 3432 
Q 1894 3584 2278 3584 
Q 2916 3584 3314 3078 
Q 3713 2572 3713 1747 
Q 3713 922 3314 415 
Q 2916 -91 2278 -91 
Q 1894 -91 1617 61 
Q 1341 213 1159 525 
L 1159 0 
L 581 0 
L 581 4863 
L 1159 4863 
L 1159 2969 
z
" transform="scale(0.015625)"/>
      <path id="DejaVuSans-4a" d="M 2906 1791 
Q 2906 2416 2648 2759 
Q 2391 3103 1925 3103 
Q 1463 3103 1205 2759 
Q 947 2416 947 1791 
Q 947 1169 1205 825 
Q 1463 481 1925 481 
Q 2391 481 2648 825 
Q 2906 1169 2906 1791 
z
M 3481 434 
Q 3481 -459 3084 -895 
Q 2688 -1331 1869 -1331 
Q 1566 -1331 1297 -1286 
Q 1028 -1241 775 -1147 
L 775 -588 
Q 1028 -725 1275 -790 
Q 1522 -856 1778 -856 
Q 2344 -856 2625 -561 
Q 2906 -266 2906 331 
L 2906 616 
Q 2728 306 2450 153 
Q 2172 0 1784 0 
Q 1141 0 747 490 
Q 353 981 353 1791 
Q 353 2603 747 3093 
Q 1141 3584 1784 3584 
Q 2172 3584 2450 3431 
Q 2728 3278 2906 2969 
L 2906 3500 
L 3481 3500 
L 3481 434 
z
" transform="scale(0.015625)"/>
      <path id="DejaVuSans-58" d="M 544 1381 
L 544 3500 
L 1119 3500 
L 1119 1403 
Q 1119 906 1312 657 
Q 1506 409 1894 409 
Q 2359 409 2629 706 
Q 2900 1003 2900 1516 
L 2900 3500 
L 3475 3500 
L 3475 0 
L 2900 0 
L 2900 538 
Q 2691 219 2414 64 
Q 2138 -91 1772 -91 
Q 1169 -91 856 284 
Q 544 659 544 1381 
z
M 1991 3584 
L 1991 3584 
z
" transform="scale(0.015625)"/>
     </defs>
     <use xlink:href="#DejaVuSans-b"/>
     <use xlink:href="#DejaVuSans-44" transform="translate(39.015625 0)"/>
     <use xlink:href="#DejaVuSans-c" transform="translate(100.296875 0)"/>
     <use xlink:href="#DejaVuSans-3" transform="translate(139.3125 0)"/>
     <use xlink:href="#DejaVuSans-3" transform="translate(171.09375 0)"/>
     <use xlink:href="#DejaVuSans-56" transform="translate(202.875 0)"/>
     <use xlink:href="#DejaVuSans-4c" transform="translate(254.96875 0)"/>
     <use xlink:href="#DejaVuSans-47" transform="translate(282.75 0)"/>
     <use xlink:href="#DejaVuSans-48" transform="translate(346.234375 0)"/>
     <use xlink:href="#DejaVuSans-3" transform="translate(407.765625 0)"/>
     <use xlink:href="#DejaVuSans-59" transform="translate(439.546875 0)"/>
     <use xlink:href="#DejaVuSans-4c" transform="translate(498.734375 0)"/>
     <use xlink:href="#DejaVuSans-48" transform="translate(526.515625 0)"/>
     <use xlink:href="#DejaVuSans-5a" transform="translate(588.046875 0)"/>
     <use xlink:href="#DejaVuSans-3" transform="translate(669.828125 0)"/>
     <use xlink:href="#DejaVuSans-af6" transform="translate(701.609375 0)"/>
     <use xlink:href="#DejaVuSans-3" transform="translate(801.609375 0)"/>
     <use xlink:href="#DejaVuSans-46" transform="translate(833.390625 0)"/>
     <use xlink:href="#DejaVuSans-44" transform="translate(888.375 0)"/>
     <use xlink:href="#DejaVuSans-51" transform="translate(949.65625 0)"/>
     <use xlink:href="#DejaVuSans-57" transform="translate(1013.03125 0)"/>
     <use xlink:href="#DejaVuSans-4c" transform="translate(1052.234375 0)"/>
     <use xlink:href="#DejaVuSans-4f" transform="translate(1080.015625 0)"/>
     <use xlink:href="#DejaVuSans-48" transform="translate(1107.796875 0)"/>
     <use xlink:href="#DejaVuSans-59" transform="translate(1169.328125 0)"/>
     <use xlink:href="#DejaVuSans-48" transform="translate(1228.515625 0)"/>
     <use xlink:href="#DejaVuSans-55" transform="translate(1290.046875 0)"/>
     <use xlink:href="#DejaVuSans-3" transform="translate(1331.15625 0)"/>
     <use xlink:href="#DejaVuSans-45" transform="translate(1362.9375 0)"/>
     <use xlink:href="#DejaVuSans-48" transform="translate(1426.421875 0)"/>
     <use xlink:href="#DejaVuSans-51" transform="translate(1487.953125 0)"/>
     <use xlink:href="#DejaVuSans-47" transform="translate(1551.328125 0)"/>
     <use xlink:href="#DejaVuSans-4c" transform="translate(1614.8125 0)"/>
     <use xlink:href="#DejaVuSans-51" transform="translate(1642.59375 0)"/>
     <use xlink:href="#DejaVuSans-4a" transform="translate(1705.96875 0)"/>
     <use xlink:href="#DejaVuSans-3" transform="translate(1769.453125 0)"/>
     <use xlink:href="#DejaVuSans-58" transform="translate(1801.234375 0)"/>
     <use xlink:href="#DejaVuSans-51" transform="translate(1864.609375 0)"/>
     <use xlink:href="#DejaVuSans-47" transform="translate(1927.984375 0)"/>
     <use xlink:href="#DejaVuSans-48" transform="translate(1991.46875 0)"/>
     <use xlink:href="#DejaVuSans-55" transform="translate(2053 0)"/>
     <use xlink:href="#DejaVuSans-3" transform="translate(2094.109375 0)"/>
     <use xlink:href="#DejaVuSans-4f" transform="translate(2125.890625 0)"/>
     <use xlink:href="#DejaVuSans-4c" transform="translate(2153.671875 0)"/>
     <use xlink:href="#DejaVuSans-49" transform="translate(2181.453125 0)"/>
     <use xlink:href="#DejaVuSans-57" transform="translate(2214.90625 0)"/>
    </g>
   </g>
   <g id="line2d_5">
    <defs>
     <path id="mf48361fdc0" d="M 0 2.5 
C 0.663008 2.5 1.29895 2.236584 1.767767 1.767767 
C 2.236584 1.29895 2.5 0.663008 2.5 0 
C 2.5 -0.663008 2.236584 -1.29895 1.767767 -1.767767 
C 1.29895 -2.236584 0.663008 -2.5 0 -2.5 
C -0.663008 -2.5 -1.29895 -2.236584 -1.767767 -1.767767 
C -2.236584 -1.29895 -2.5 -0.663008 -2.5 0 
C -2.5 0.663008 -2.236584 1.29895 -1.767767 1.767767 
C -1.29895 2.236584 -0.663008 2.5 0 2.5 
z
" style="stroke: #000000"/>
    </defs>
    <g clip-path="url(#p0436241133)">
     <use xlink:href="#mf48361fdc0" x="54.87206" y="131.834278" style="stroke: #000000"/>
     <use xlink:href="#mf48361fdc0" x="96.429529" y="131.834278" style="stroke: #000000"/>
     <use xlink:href="#mf48361fdc0" x="137.986998" y="131.834278" style="stroke: #000000"/>
     <use xlink:href="#mf48361fdc0" x="179.544467" y="131.834278" style="stroke: #000000"/>
     <use xlink:href="#mf48361fdc0" x="221.101936" y="131.834278" style="stroke: #000000"/>
     <use xlink:href="#mf48361fdc0" x="262.659405" y="131.834278" style="stroke: #000000"/>
     <use xlink:href="#mf48361fdc0" x="304.216874" y="131.834278" style="stroke: #000000"/>
     <use xlink:href="#mf48361fdc0" x="345.774343" y="131.834278" style="stroke: #000000"/>
     <use xlink:href="#mf48361fdc0" x="387.331811" y="131.834278" style="stroke: #000000"/>
    </g>
   </g>
   <g id="patch_3">
    <path d="M 54.87206 131.834278 
Q 54.87206 92.721366 54.87206 55.397309 
" clip-path="url(#p0436241133)" style="fill: none; stroke: #1f77b4; stroke-width: 1.6; stroke-linecap: round"/>
    <path d="M 52.07206 60.997309 
L 54.87206 55.397309 
L 57.67206 60.997309 
z
" clip-path="url(#p0436241133)" style="fill: #1f77b4; stroke: #1f77b4; stroke-width: 1.6; stroke-linecap: round"/>
   </g>
   <g id="patch_4">
    <path d="M 96.429529 131.834278 
Q 96.429529 93.028139 96.429529 56.010854 
" clip-path="url(#p0436241133)" style="fill: none; stroke: #1f77b4; stroke-width: 1.6; stroke-linecap: round"/>
    <path d="M 93.629529 61.610854 
L 96.429529 56.010854 
L 99.229529 61.610854 
z
" clip-path="url(#p0436241133)" style="fill: #1f77b4; stroke: #1f77b4; stroke-width: 1.6; stroke-linecap: round"/>
   </g>
   <g id="patch_5">
    <path d="M 137.986998 131.834278 
Q 137.986998 93.963364 137.986998 57.881304 
" clip-path="url(#p0436241133)" style="fill: none; stroke: #1f77b4; stroke-width: 1.6; stroke-linecap: round"/>
    <path d="M 135.186998 63.481304 
L 137.986998 57.881304 
L 140.786998 63.481304 
z
" clip-path="url(#p0436241133)" style="fill: #1f77b4; stroke: #1f77b4; stroke-width: 1.6; stroke-linecap: round"/>
   </g>
   <g id="patch_6">
    <path d="M 179.544467 131.834278 
Q 179.544467 95.575639 179.544467 61.105853 
" clip-path="url(#p0436241133)" style="fill: none; stroke: #1f77b4; stroke-width: 1.6; stroke-linecap: round"/>
    <path d="M 176.744467 66.705853 
L 179.544467 61.105853 
L 182.344467 66.705853 
z
" clip-path="url(#p0436241133)" style="fill: #1f77b4; stroke: #1f77b4; stroke-width: 1.6; stroke-linecap: round"/>
   </g>
   <g id="patch_7">
    <path d="M 221.101936 131.834278 
Q 221.101936 97.961503 221.101936 65.877582 
" clip-path="url(#p0436241133)" style="fill: none; stroke: #1f77b4; stroke-width: 1.6; stroke-linecap: round"/>
    <path d="M 218.301936 71.477582 
L 221.101936 65.877582 
L 223.901936 71.477582 
z
" clip-path="url(#p0436241133)" style="fill: #1f77b4; stroke: #1f77b4; stroke-width: 1.6; stroke-linecap: round"/>
   </g>
   <g id="patch_8">
    <path d="M 262.659405 131.834278 
Q 262.659405 101.301771 262.659405 72.558119 
" clip-path="url(#p0436241133)" style="fill: none; stroke: #1f77b4; stroke-width: 1.6; stroke-linecap: round"/>
    <path d="M 259.859405 78.158119 
L 262.659405 72.558119 
L 265.459405 78.158119 
z
" clip-path="url(#p0436241133)" style="fill: #1f77b4; stroke: #1f77b4; stroke-width: 1.6; stroke-linecap: round"/>
   </g>
   <g id="patch_9">
    <path d="M 304.216874 131.834278 
Q 304.216874 105.963519 304.216874 81.881614 
" clip-path="url(#p0436241133)" style="fill: none; stroke: #1f77b4; stroke-width: 1.6; stroke-linecap: round"/>
    <path d="M 301.416874 87.481614 
L 304.216874 81.881614 
L 307.016874 87.481614 
z
" clip-path="url(#p0436241133)" style="fill: #1f77b4; stroke: #1f77b4; stroke-width: 1.6; stroke-linecap: round"/>
   </g>
   <g id="patch_10">
    <path d="M 345.774343 131.834278 
Q 345.774343 112.898821 345.774343 95.752219 
" clip-path="url(#p0436241133)" style="fill: none; stroke: #1f77b4; stroke-width: 1.6; stroke-linecap: round"/>
    <path d="M 342.974343 101.352219 
L 345.774343 95.752219 
L 348.574343 101.352219 
z
" clip-path="url(#p0436241133)" style="fill: #1f77b4; stroke: #1f77b4; stroke-width: 1.6; stroke-linecap: round"/>
   </g>
   <g id="patch_11">
    <path d="M 54.87206 233.527849 
Q 93.984972 233.527849 131.085423 233.527849 
" clip-path="url(#p0436241133)" style="fill: none; stroke: #000000; stroke-width: 1.8; stroke-linecap: round"/>
    <path d="M 126.285423 231.127849 
L 131.085423 233.527849 
L 126.285423 235.927849 
z
" clip-path="url(#p0436241133)" style="stroke: #000000; stroke-width: 1.8; stroke-linecap: round"/>
   </g>
   <g id="patch_12">
    <path d="M 54.87206 233.527849 
Q 54.87206 210.060102 54.87206 188.604816 
" clip-path="url(#p0436241133)" style="fill: none; stroke: #000000; stroke-width: 1.8; stroke-linecap: round"/>
    <path d="M 52.47206 193.404816 
L 54.87206 188.604816 
L 57.27206 193.404816 
z
" clip-path="url(#p0436241133)" style="stroke: #000000; stroke-width: 1.8; stroke-linecap: round"/>
   </g>
  </g>
  <g id="axes_2">
   <g id="FillBetweenPolyCollection_1">
    <defs>
     <path id="m0cab8a6390" d="M 491.157115 -110.676221 
L 491.157115 -199.015023 
L 531.965801 -183.258946 
L 572.774487 -167.502869 
L 613.583172 -151.746791 
L 654.391858 -135.990714 
L 695.200544 -120.234637 
L 736.009229 -104.47856 
L 776.817915 -88.722483 
L 817.626601 -72.966406 
L 817.626601 -34.558231 
L 817.626601 -34.558231 
L 776.817915 -44.07298 
L 736.009229 -53.587729 
L 695.200544 -63.102477 
L 654.391858 -72.617226 
L 613.583172 -82.131975 
L 572.774487 -91.646723 
L 531.965801 -101.161472 
L 491.157115 -110.676221 
z
" style="stroke: #eaf2fb"/>
    </defs>
    <g clip-path="url(#p938166949c)">
     <use xlink:href="#m0cab8a6390" x="0" y="256.373014" style="fill: #eaf2fb; stroke: #eaf2fb"/>
    </g>
   </g>
   <g id="patch_13">
    <path d="M 552.610195 92.693512 
C 552.610195 95.912841 552.35722 99.127198 551.853606 102.306892 
C 551.349992 105.486585 550.597295 108.621794 549.602467 111.683558 
" clip-path="url(#p938166949c)" style="fill: none; stroke: #666666; stroke-linejoin: miter"/>
   </g>
   <g id="line2d_6">
    <path d="M 491.157115 57.357991 
L 531.965801 73.114068 
L 572.774487 88.870145 
L 613.583172 104.626222 
L 654.391858 120.3823 
L 695.200544 136.138377 
L 736.009229 151.894454 
L 776.817915 167.650531 
L 817.626601 183.406608 
" clip-path="url(#p938166949c)" style="fill: none; stroke: #000000; stroke-width: 1.5; stroke-linecap: square"/>
   </g>
   <g id="line2d_7">
    <path d="M 491.157115 145.696793 
L 531.965801 155.211542 
L 572.774487 164.72629 
L 613.583172 174.241039 
L 654.391858 183.755788 
L 695.200544 193.270537 
L 736.009229 202.785285 
L 776.817915 212.300034 
L 817.626601 221.814783 
" clip-path="url(#p938166949c)" style="fill: none; stroke: #000000; stroke-width: 1.5; stroke-linecap: square"/>
   </g>
   <g id="line2d_8">
    <path d="M 491.157115 57.357991 
L 491.157115 145.696793 
" clip-path="url(#p938166949c)" style="fill: none; stroke: #000000; stroke-width: 1.5; stroke-linecap: square"/>
   </g>
   <g id="line2d_9">
    <path d="M 817.626601 183.406608 
L 817.626601 221.814783 
" clip-path="url(#p938166949c)" style="fill: none; stroke: #000000; stroke-width: 1.5; stroke-linecap: square"/>
   </g>
   <g id="patch_14">
    <path d="M 456.589758 49.676356 
L 491.157115 49.676356 
L 491.157115 153.378428 
L 456.589758 153.378428 
z
" clip-path="url(#p938166949c)" style="fill: url(#h6a82a943dc); stroke: #000000; stroke-linejoin: miter"/>
   </g>
   <g id="line2d_10">
    <path d="M 491.157115 92.693512 
L 654.391858 92.693512 
" clip-path="url(#p938166949c)" style="fill: none; stroke-dasharray: 1,1.65; stroke-dashoffset: 0; stroke: #808080"/>
   </g>
   <g id="patch_15">
    <path d="M 695.200544 153.53545 
Q 695.200544 154.704452 695.200544 155.873454 
" style="fill: none; stroke: #333333; stroke-linecap: round"/>
    <path d="M 693.200544 157.53545 
L 695.200544 153.53545 
L 697.200544 157.53545 
" style="fill: none; stroke: #333333; stroke-linecap: round"/>
    <path d="M 697.200544 151.873454 
L 695.200544 155.873454 
L 693.200544 151.873454 
" style="fill: none; stroke: #333333; stroke-linecap: round"/>
   </g>
   <g id="text_7">
    <!-- $e$ -->
    <g transform="translate(699.809525 154.706329) scale(0.11 -0.11)">
     <defs>
      <path id="DejaVuSans-Oblique-48" d="M 3078 2063 
Q 3088 2113 3092 2166 
Q 3097 2219 3097 2272 
Q 3097 2653 2873 2875 
Q 2650 3097 2266 3097 
Q 1838 3097 1509 2826 
Q 1181 2556 1013 2059 
L 3078 2063 
z
M 3578 1613 
L 903 1613 
Q 884 1494 878 1425 
Q 872 1356 872 1306 
Q 872 872 1139 634 
Q 1406 397 1894 397 
Q 2269 397 2603 481 
Q 2938 566 3225 728 
L 3116 159 
Q 2806 34 2476 -28 
Q 2147 -91 1806 -91 
Q 1078 -91 686 257 
Q 294 606 294 1247 
Q 294 1794 489 2264 
Q 684 2734 1063 3103 
Q 1306 3334 1642 3459 
Q 1978 3584 2356 3584 
Q 2950 3584 3301 3228 
Q 3653 2872 3653 2272 
Q 3653 2128 3634 1964 
Q 3616 1800 3578 1613 
z
" transform="scale(0.015625)"/>
     </defs>
     <use xlink:href="#DejaVuSans-Oblique-48"/>
    </g>
   </g>
   <g id="text_8">
    <!-- torque  $q(y)=l(y)\,e$ -->
    <g style="fill: #d62728" transform="translate(749.452091 128.081385) scale(0.1 -0.1)">
     <defs>
      <path id="DejaVuSans-54" d="M 947 1747 
Q 947 1113 1208 752 
Q 1469 391 1925 391 
Q 2381 391 2643 752 
Q 2906 1113 2906 1747 
Q 2906 2381 2643 2742 
Q 2381 3103 1925 3103 
Q 1469 3103 1208 2742 
Q 947 2381 947 1747 
z
M 2906 525 
Q 2725 213 2448 61 
Q 2172 -91 1784 -91 
Q 1150 -91 751 415 
Q 353 922 353 1747 
Q 353 2572 751 3078 
Q 1150 3584 1784 3584 
Q 2172 3584 2448 3432 
Q 2725 3281 2906 2969 
L 2906 3500 
L 3481 3500 
L 3481 -1331 
L 2906 -1331 
L 2906 525 
z
" transform="scale(0.015625)"/>
      <path id="DejaVuSans-Oblique-54" d="M 2669 525 
Q 2438 222 2123 65 
Q 1809 -91 1428 -91 
Q 897 -91 595 267 
Q 294 625 294 1253 
Q 294 1759 480 2231 
Q 666 2703 1013 3078 
Q 1238 3322 1530 3453 
Q 1822 3584 2144 3584 
Q 2531 3584 2781 3431 
Q 3031 3278 3144 2969 
L 3244 3494 
L 3822 3494 
L 2888 -1319 
L 2309 -1319 
L 2669 525 
z
M 891 1338 
Q 891 875 1084 633 
Q 1278 391 1644 391 
Q 2188 391 2572 911 
Q 2956 1431 2956 2175 
Q 2956 2625 2757 2864 
Q 2559 3103 2188 3103 
Q 1916 3103 1684 2976 
Q 1453 2850 1281 2606 
Q 1100 2350 995 2006 
Q 891 1663 891 1338 
z
" transform="scale(0.015625)"/>
     </defs>
     <use xlink:href="#DejaVuSans-57" transform="translate(0 0.015625)"/>
     <use xlink:href="#DejaVuSans-52" transform="translate(39.208984 0.015625)"/>
     <use xlink:href="#DejaVuSans-55" transform="translate(100.390625 0.015625)"/>
     <use xlink:href="#DejaVuSans-54" transform="translate(139.503906 0.015625)"/>
     <use xlink:href="#DejaVuSans-58" transform="translate(202.980469 0.015625)"/>
     <use xlink:href="#DejaVuSans-48" transform="translate(266.359375 0.015625)"/>
     <use xlink:href="#DejaVuSans-3" transform="translate(327.882812 0.015625)"/>
     <use xlink:href="#DejaVuSans-3" transform="translate(359.669922 0.015625)"/>
     <use xlink:href="#DejaVuSans-Oblique-54" transform="translate(391.457031 0.015625)"/>
     <use xlink:href="#DejaVuSans-b" transform="translate(454.933594 0.015625)"/>
     <use xlink:href="#DejaVuSans-Oblique-5c" transform="translate(493.947266 0.015625)"/>
     <use xlink:href="#DejaVuSans-c" transform="translate(553.126953 0.015625)"/>
     <use xlink:href="#DejaVuSans-20" transform="translate(611.623047 0.015625)"/>
     <use xlink:href="#DejaVuSans-Oblique-4f" transform="translate(714.894531 0.015625)"/>
     <use xlink:href="#DejaVuSans-b" transform="translate(742.677734 0.015625)"/>
     <use xlink:href="#DejaVuSans-Oblique-5c" transform="translate(781.691406 0.015625)"/>
     <use xlink:href="#DejaVuSans-c" transform="translate(840.871094 0.015625)"/>
     <use xlink:href="#DejaVuSans-Oblique-48" transform="translate(896.120442 0.015625)"/>
    </g>
   </g>
   <g id="text_9">
    <!-- $\Lambda$ (sweep) -->
    <g style="fill: #4c4c4c" transform="translate(562.212239 103.447801) scale(0.09 -0.09)">
     <defs>
      <path id="DejaVuSans-330" d="M 716 0 
L 50 0 
L 1831 4666 
L 2547 4666 
L 4325 0 
L 3669 0 
L 2188 4044 
L 716 0 
z
" transform="scale(0.015625)"/>
     </defs>
     <use xlink:href="#DejaVuSans-330" transform="translate(0 0.125)"/>
     <use xlink:href="#DejaVuSans-3" transform="translate(68.408203 0.125)"/>
     <use xlink:href="#DejaVuSans-b" transform="translate(100.195312 0.125)"/>
     <use xlink:href="#DejaVuSans-56" transform="translate(139.208984 0.125)"/>
     <use xlink:href="#DejaVuSans-5a" transform="translate(191.308594 0.125)"/>
     <use xlink:href="#DejaVuSans-48" transform="translate(273.095703 0.125)"/>
     <use xlink:href="#DejaVuSans-48" transform="translate(334.619141 0.125)"/>
     <use xlink:href="#DejaVuSans-53" transform="translate(396.142578 0.125)"/>
     <use xlink:href="#DejaVuSans-c" transform="translate(459.619141 0.125)"/>
    </g>
   </g>
   <g id="text_10">
    <!-- span  $y$ -->
    <g transform="translate(571.814282 171.079589) scale(0.09 -0.09)">
     <use xlink:href="#DejaVuSans-56"/>
     <use xlink:href="#DejaVuSans-53" transform="translate(52.099609 0)"/>
     <use xlink:href="#DejaVuSans-44" transform="translate(115.576172 0)"/>
     <use xlink:href="#DejaVuSans-51" transform="translate(176.855469 0)"/>
     <use xlink:href="#DejaVuSans-3" transform="translate(240.234375 0)"/>
     <use xlink:href="#DejaVuSans-3" transform="translate(272.021484 0)"/>
     <use xlink:href="#DejaVuSans-Oblique-5c" transform="translate(303.808594 0)"/>
    </g>
   </g>
   <g id="text_11">
    <!-- chord  $x$ -->
    <g transform="translate(495.766096 137.173523) scale(0.09 -0.09)">
     <defs>
      <path id="DejaVuSans-4b" d="M 3513 2113 
L 3513 0 
L 2938 0 
L 2938 2094 
Q 2938 2591 2744 2837 
Q 2550 3084 2163 3084 
Q 1697 3084 1428 2787 
Q 1159 2491 1159 1978 
L 1159 0 
L 581 0 
L 581 4863 
L 1159 4863 
L 1159 2956 
Q 1366 3272 1645 3428 
Q 1925 3584 2291 3584 
Q 2894 3584 3203 3211 
Q 3513 2838 3513 2113 
z
" transform="scale(0.015625)"/>
      <path id="DejaVuSans-Oblique-5b" d="M 3841 3500 
L 2234 1784 
L 3219 0 
L 2559 0 
L 1819 1388 
L 531 0 
L -166 0 
L 1556 1844 
L 641 3500 
L 1300 3500 
L 1972 2234 
L 3144 3500 
L 3841 3500 
z
" transform="scale(0.015625)"/>
     </defs>
     <use xlink:href="#DejaVuSans-46" transform="translate(0 0.015625)"/>
     <use xlink:href="#DejaVuSans-4b" transform="translate(54.980469 0.015625)"/>
     <use xlink:href="#DejaVuSans-52" transform="translate(118.359375 0.015625)"/>
     <use xlink:href="#DejaVuSans-55" transform="translate(179.541016 0.015625)"/>
     <use xlink:href="#DejaVuSans-47" transform="translate(218.654297 0.015625)"/>
     <use xlink:href="#DejaVuSans-3" transform="translate(282.130859 0.015625)"/>
     <use xlink:href="#DejaVuSans-3" transform="translate(313.917969 0.015625)"/>
     <use xlink:href="#DejaVuSans-Oblique-5b" transform="translate(345.705078 0.015625)"/>
    </g>
   </g>
   <g id="text_12">
    <!-- (b)  top view — sweep, and the lift/elastic-axis offset $e$ -->
    <g transform="translate(494.612676 35.069435) scale(0.12 -0.12)">
     <defs>
      <path id="DejaVuSansDisplay-4" d="M 313 1978 
L 6088 1978 
L 6088 1528 
L 313 1528 
L 313 1978 
z
" transform="scale(0.015625)"/>
      <path id="DejaVuSans-f" d="M 750 794 
L 1409 794 
L 1409 256 
L 897 -744 
L 494 -744 
L 750 256 
L 750 794 
z
" transform="scale(0.015625)"/>
      <path id="DejaVuSans-12" d="M 1625 4666 
L 2156 4666 
L 531 -594 
L 0 -594 
L 1625 4666 
z
" transform="scale(0.015625)"/>
      <path id="DejaVuSans-10" d="M 313 2009 
L 1997 2009 
L 1997 1497 
L 313 1497 
L 313 2009 
z
" transform="scale(0.015625)"/>
      <path id="DejaVuSans-5b" d="M 3513 3500 
L 2247 1797 
L 3578 0 
L 2900 0 
L 1881 1375 
L 863 0 
L 184 0 
L 1544 1831 
L 300 3500 
L 978 3500 
L 1906 2253 
L 2834 3500 
L 3513 3500 
z
" transform="scale(0.015625)"/>
     </defs>
     <use xlink:href="#DejaVuSans-b" transform="translate(0 0.015625)"/>
     <use xlink:href="#DejaVuSans-45" transform="translate(39.013672 0.015625)"/>
     <use xlink:href="#DejaVuSans-c" transform="translate(102.490234 0.015625)"/>
     <use xlink:href="#DejaVuSans-3" transform="translate(141.503906 0.015625)"/>
     <use xlink:href="#DejaVuSans-3" transform="translate(173.291016 0.015625)"/>
     <use xlink:href="#DejaVuSans-57" transform="translate(205.078125 0.015625)"/>
     <use xlink:href="#DejaVuSans-52" transform="translate(244.287109 0.015625)"/>
     <use xlink:href="#DejaVuSans-53" transform="translate(305.46875 0.015625)"/>
     <use xlink:href="#DejaVuSans-3" transform="translate(368.945312 0.015625)"/>
     <use xlink:href="#DejaVuSans-59" transform="translate(400.732422 0.015625)"/>
     <use xlink:href="#DejaVuSans-4c" transform="translate(459.912109 0.015625)"/>
     <use xlink:href="#DejaVuSans-48" transform="translate(487.695312 0.015625)"/>
     <use xlink:href="#DejaVuSans-5a" transform="translate(549.21875 0.015625)"/>
     <use xlink:href="#DejaVuSans-3" transform="translate(631.005859 0.015625)"/>
     <use xlink:href="#DejaVuSansDisplay-4" transform="translate(662.792969 0.015625)"/>
     <use xlink:href="#DejaVuSans-3" transform="translate(762.792969 0.015625)"/>
     <use xlink:href="#DejaVuSans-56" transform="translate(794.580078 0.015625)"/>
     <use xlink:href="#DejaVuSans-5a" transform="translate(846.679688 0.015625)"/>
     <use xlink:href="#DejaVuSans-48" transform="translate(928.466797 0.015625)"/>
     <use xlink:href="#DejaVuSans-48" transform="translate(989.990234 0.015625)"/>
     <use xlink:href="#DejaVuSans-53" transform="translate(1051.513672 0.015625)"/>
     <use xlink:href="#DejaVuSans-f" transform="translate(1114.990234 0.015625)"/>
     <use xlink:href="#DejaVuSans-3" transform="translate(1146.777344 0.015625)"/>
     <use xlink:href="#DejaVuSans-44" transform="translate(1178.564453 0.015625)"/>
     <use xlink:href="#DejaVuSans-51" transform="translate(1239.84375 0.015625)"/>
     <use xlink:href="#DejaVuSans-47" transform="translate(1303.222656 0.015625)"/>
     <use xlink:href="#DejaVuSans-3" transform="translate(1366.699219 0.015625)"/>
     <use xlink:href="#DejaVuSans-57" transform="translate(1398.486328 0.015625)"/>
     <use xlink:href="#DejaVuSans-4b" transform="translate(1437.695312 0.015625)"/>
     <use xlink:href="#DejaVuSans-48" transform="translate(1501.074219 0.015625)"/>
     <use xlink:href="#DejaVuSans-3" transform="translate(1562.597656 0.015625)"/>
     <use xlink:href="#DejaVuSans-4f" transform="translate(1594.384766 0.015625)"/>
     <use xlink:href="#DejaVuSans-4c" transform="translate(1622.167969 0.015625)"/>
     <use xlink:href="#DejaVuSans-49" transform="translate(1649.951172 0.015625)"/>
     <use xlink:href="#DejaVuSans-57" transform="translate(1683.15625 0.015625)"/>
     <use xlink:href="#DejaVuSans-12" transform="translate(1722.365234 0.015625)"/>
     <use xlink:href="#DejaVuSans-48" transform="translate(1756.056641 0.015625)"/>
     <use xlink:href="#DejaVuSans-4f" transform="translate(1817.580078 0.015625)"/>
     <use xlink:href="#DejaVuSans-44" transform="translate(1845.363281 0.015625)"/>
     <use xlink:href="#DejaVuSans-56" transform="translate(1906.642578 0.015625)"/>
     <use xlink:href="#DejaVuSans-57" transform="translate(1958.742188 0.015625)"/>
     <use xlink:href="#DejaVuSans-4c" transform="translate(1997.951172 0.015625)"/>
     <use xlink:href="#DejaVuSans-46" transform="translate(2025.734375 0.015625)"/>
     <use xlink:href="#DejaVuSans-10" transform="translate(2080.714844 0.015625)"/>
     <use xlink:href="#DejaVuSans-44" transform="translate(2116.798828 0.015625)"/>
     <use xlink:href="#DejaVuSans-5b" transform="translate(2178.078125 0.015625)"/>
     <use xlink:href="#DejaVuSans-4c" transform="translate(2237.257812 0.015625)"/>
     <use xlink:href="#DejaVuSans-56" transform="translate(2265.041016 0.015625)"/>
     <use xlink:href="#DejaVuSans-3" transform="translate(2317.140625 0.015625)"/>
     <use xlink:href="#DejaVuSans-52" transform="translate(2348.927734 0.015625)"/>
     <use xlink:href="#DejaVuSans-49" transform="translate(2410.109375 0.015625)"/>
     <use xlink:href="#DejaVuSans-49" transform="translate(2445.314453 0.015625)"/>
     <use xlink:href="#DejaVuSans-56" transform="translate(2480.519531 0.015625)"/>
     <use xlink:href="#DejaVuSans-48" transform="translate(2532.619141 0.015625)"/>
     <use xlink:href="#DejaVuSans-57" transform="translate(2594.142578 0.015625)"/>
     <use xlink:href="#DejaVuSans-3" transform="translate(2633.351562 0.015625)"/>
     <use xlink:href="#DejaVuSans-Oblique-48" transform="translate(2665.138672 0.015625)"/>
    </g>
   </g>
   <g id="line2d_11">
    <path d="M 491.157115 92.693512 
L 531.965801 105.953058 
L 572.774487 119.212603 
L 613.583172 132.472149 
L 654.391858 145.731695 
L 695.200544 158.991241 
L 736.009229 172.250786 
L 776.817915 185.510332 
L 817.626601 198.769878 
" clip-path="url(#p938166949c)" style="fill: none; stroke: #d62728; stroke-width: 2; stroke-linecap: square"/>
   </g>
   <g id="line2d_12">
    <path d="M 491.157115 79.442692 
L 531.965801 93.638437 
L 572.774487 107.834182 
L 613.583172 122.029927 
L 654.391858 136.225672 
L 695.200544 150.421417 
L 736.009229 164.617162 
L 776.817915 178.812907 
L 817.626601 193.008652 
" clip-path="url(#p938166949c)" style="fill: none; stroke-dasharray: 6.66,2.88; stroke-dashoffset: 0; stroke: #1f77b4; stroke-width: 1.8"/>
   </g>
   <g id="patch_16">
    <path d="M 629.247505 139.776547 
C 628.234643 141.948636 626.780979 143.886496 624.979094 145.466707 
C 623.177208 147.046918 621.066186 148.235205 618.780475 148.955886 
C 616.494764 149.676568 614.083942 149.914014 611.701552 149.653099 
C 609.319163 149.392185 607.016879 148.638571 604.941333 147.440254 
C 602.865787 146.241937 601.061996 144.624908 599.644843 142.692155 
C 598.22769 140.759402 597.227913 138.552847 596.709186 136.213022 
C 596.190459 133.873197 596.164035 131.450855 596.631595 129.100271 
C 597.099155 126.749687 598.050559 124.521846 599.425212 122.558638 
" clip-path="url(#p938166949c)" style="fill: none; stroke: #d62728; stroke-width: 1.8; stroke-linejoin: miter"/>
   </g>
   <g id="patch_17">
    <path d="M 595.955483 127.513925 
Q 597.690347 125.036281 598.270911 124.20715 
" clip-path="url(#p938166949c)" style="fill: none; stroke: #d62728; stroke-width: 1.8; stroke-linecap: round"/>
    <path d="M 593.55178 126.762496 
L 598.270911 124.20715 
L 597.483709 129.515663 
z
" clip-path="url(#p938166949c)" style="fill: #d62728; stroke: #d62728; stroke-width: 1.8; stroke-linecap: round"/>
   </g>
   <g id="patch_18">
    <path d="M 751.673562 179.555185 
C 750.6607 181.727273 749.207036 183.665133 747.405151 185.245344 
C 745.603265 186.825555 743.492243 188.013842 741.206532 188.734524 
C 738.920821 189.455206 736.509999 189.692651 734.127609 189.431737 
C 731.74522 189.170823 729.442936 188.417208 727.36739 187.218891 
C 725.291844 186.020574 723.488053 184.403545 722.0709 182.470792 
C 720.653747 180.538039 719.65397 178.331484 719.135243 175.991659 
C 718.616516 173.651834 718.590092 171.229492 719.057652 168.878908 
C 719.525212 166.528324 720.476616 164.300484 721.851269 162.337276 
" clip-path="url(#p938166949c)" style="fill: none; stroke: #d62728; stroke-width: 1.8; stroke-linejoin: miter"/>
   </g>
   <g id="patch_19">
    <path d="M 718.38154 167.292562 
Q 720.116404 164.814919 720.696968 163.985787 
" clip-path="url(#p938166949c)" style="fill: none; stroke: #d62728; stroke-width: 1.8; stroke-linecap: round"/>
    <path d="M 715.977837 166.541134 
L 720.696968 163.985787 
L 719.909766 169.294301 
z
" clip-path="url(#p938166949c)" style="fill: #d62728; stroke: #d62728; stroke-width: 1.8; stroke-linecap: round"/>
   </g>
   <g id="patch_20">
    <path d="M 491.157115 168.741698 
Q 529.56529 168.741698 565.961004 168.741698 
" clip-path="url(#p938166949c)" style="fill: none; stroke: #000000; stroke-width: 1.8; stroke-linecap: round"/>
    <path d="M 561.161004 166.341698 
L 565.961004 168.741698 
L 561.161004 171.141698 
z
" clip-path="url(#p938166949c)" style="stroke: #000000; stroke-width: 1.8; stroke-linecap: round"/>
   </g>
   <g id="patch_21">
    <path d="M 491.157115 168.741698 
Q 491.157115 149.537611 491.157115 132.345984 
" clip-path="url(#p938166949c)" style="fill: none; stroke: #000000; stroke-width: 1.8; stroke-linecap: round"/>
    <path d="M 488.757115 137.145984 
L 491.157115 132.345984 
L 493.557115 137.145984 
z
" clip-path="url(#p938166949c)" style="stroke: #000000; stroke-width: 1.8; stroke-linecap: round"/>
   </g>
   <g id="legend_1">
    <g id="patch_22">
     <path d="M 672.519295 226.421704 
L 865.798045 226.421704 
Q 867.398045 226.421704 867.398045 224.821704 
L 867.398045 201.620454 
Q 867.398045 200.020454 865.798045 200.020454 
L 672.519295 200.020454 
Q 670.919295 200.020454 670.919295 201.620454 
L 670.919295 224.821704 
Q 670.919295 226.421704 672.519295 226.421704 
z
" style="fill: #ffffff; opacity: 0.95; stroke: #cccccc; stroke-linejoin: miter"/>
    </g>
    <g id="line2d_13">
     <path d="M 674.119295 206.499204 
L 682.119295 206.499204 
L 690.119295 206.499204 
" style="fill: none; stroke: #d62728; stroke-width: 2; stroke-linecap: square"/>
    </g>
    <g id="text_13">
     <!-- elastic axis (beam, through EC) -->
     <g transform="translate(696.519295 209.299204) scale(0.08 -0.08)">
      <defs>
       <path id="DejaVuSans-28" d="M 628 4666 
L 3578 4666 
L 3578 4134 
L 1259 4134 
L 1259 2753 
L 3481 2753 
L 3481 2222 
L 1259 2222 
L 1259 531 
L 3634 531 
L 3634 0 
L 628 0 
L 628 4666 
z
" transform="scale(0.015625)"/>
       <path id="DejaVuSans-26" d="M 4122 4306 
L 4122 3641 
Q 3803 3938 3442 4084 
Q 3081 4231 2675 4231 
Q 1875 4231 1450 3742 
Q 1025 3253 1025 2328 
Q 1025 1406 1450 917 
Q 1875 428 2675 428 
Q 3081 428 3442 575 
Q 3803 722 4122 1019 
L 4122 359 
Q 3791 134 3420 21 
Q 3050 -91 2638 -91 
Q 1578 -91 968 557 
Q 359 1206 359 2328 
Q 359 3453 968 4101 
Q 1578 4750 2638 4750 
Q 3056 4750 3426 4639 
Q 3797 4528 4122 4306 
z
" transform="scale(0.015625)"/>
      </defs>
      <use xlink:href="#DejaVuSans-48"/>
      <use xlink:href="#DejaVuSans-4f" transform="translate(61.53125 0)"/>
      <use xlink:href="#DejaVuSans-44" transform="translate(89.3125 0)"/>
      <use xlink:href="#DejaVuSans-56" transform="translate(150.59375 0)"/>
      <use xlink:href="#DejaVuSans-57" transform="translate(202.6875 0)"/>
      <use xlink:href="#DejaVuSans-4c" transform="translate(241.890625 0)"/>
      <use xlink:href="#DejaVuSans-46" transform="translate(269.671875 0)"/>
      <use xlink:href="#DejaVuSans-3" transform="translate(324.65625 0)"/>
      <use xlink:href="#DejaVuSans-44" transform="translate(356.4375 0)"/>
      <use xlink:href="#DejaVuSans-5b" transform="translate(417.71875 0)"/>
      <use xlink:href="#DejaVuSans-4c" transform="translate(476.90625 0)"/>
      <use xlink:href="#DejaVuSans-56" transform="translate(504.6875 0)"/>
      <use xlink:href="#DejaVuSans-3" transform="translate(556.78125 0)"/>
      <use xlink:href="#DejaVuSans-b" transform="translate(588.5625 0)"/>
      <use xlink:href="#DejaVuSans-45" transform="translate(627.578125 0)"/>
      <use xlink:href="#DejaVuSans-48" transform="translate(691.0625 0)"/>
      <use xlink:href="#DejaVuSans-44" transform="translate(752.59375 0)"/>
      <use xlink:href="#DejaVuSans-50" transform="translate(813.875 0)"/>
      <use xlink:href="#DejaVuSans-f" transform="translate(911.28125 0)"/>
      <use xlink:href="#DejaVuSans-3" transform="translate(943.0625 0)"/>
      <use xlink:href="#DejaVuSans-57" transform="translate(974.84375 0)"/>
      <use xlink:href="#DejaVuSans-4b" transform="translate(1014.046875 0)"/>
      <use xlink:href="#DejaVuSans-55" transform="translate(1077.421875 0)"/>
      <use xlink:href="#DejaVuSans-52" transform="translate(1116.328125 0)"/>
      <use xlink:href="#DejaVuSans-58" transform="translate(1177.515625 0)"/>
      <use xlink:href="#DejaVuSans-4a" transform="translate(1240.890625 0)"/>
      <use xlink:href="#DejaVuSans-4b" transform="translate(1304.375 0)"/>
      <use xlink:href="#DejaVuSans-3" transform="translate(1367.75 0)"/>
      <use xlink:href="#DejaVuSans-28" transform="translate(1399.53125 0)"/>
      <use xlink:href="#DejaVuSans-26" transform="translate(1462.71875 0)"/>
      <use xlink:href="#DejaVuSans-c" transform="translate(1532.546875 0)"/>
     </g>
    </g>
    <g id="line2d_14">
     <path d="M 674.119295 218.499829 
L 682.119295 218.499829 
L 690.119295 218.499829 
" style="fill: none; stroke-dasharray: 6.66,2.88; stroke-dashoffset: 0; stroke: #1f77b4; stroke-width: 1.8"/>
    </g>
    <g id="text_14">
     <!-- aerodynamic axis (¼-chord, lift acts here) -->
     <g transform="translate(696.519295 221.299829) scale(0.08 -0.08)">
      <defs>
       <path id="DejaVuSans-5c" d="M 2059 -325 
Q 1816 -950 1584 -1140 
Q 1353 -1331 966 -1331 
L 506 -1331 
L 506 -850 
L 844 -850 
Q 1081 -850 1212 -737 
Q 1344 -625 1503 -206 
L 1606 56 
L 191 3500 
L 800 3500 
L 1894 763 
L 2988 3500 
L 3597 3500 
L 2059 -325 
z
" transform="scale(0.015625)"/>
       <path id="DejaVuSans-7e" d="M 488 2431 
L 1125 2431 
L 1125 4341 
L 428 4213 
L 428 4575 
L 1147 4697 
L 1575 4697 
L 1575 2431 
L 2216 2431 
L 2216 2088 
L 488 2088 
L 488 2431 
z
M 5125 2231 
L 4159 921 
L 5125 921 
L 5125 2231 
z
M 5056 2609 
L 5575 2609 
L 5575 921 
L 5997 921 
L 5997 581 
L 5575 581 
L 5575 0 
L 5125 0 
L 5125 581 
L 3831 581 
L 3831 959 
L 5056 2609 
z
M 4307 4750 
L 4807 4750 
L 1894 -91 
L 1394 -91 
L 4307 4750 
z
" transform="scale(0.015625)"/>
      </defs>
      <use xlink:href="#DejaVuSans-44"/>
      <use xlink:href="#DejaVuSans-48" transform="translate(61.28125 0)"/>
      <use xlink:href="#DejaVuSans-55" transform="translate(122.8125 0)"/>
      <use xlink:href="#DejaVuSans-52" transform="translate(161.71875 0)"/>
      <use xlink:href="#DejaVuSans-47" transform="translate(222.90625 0)"/>
      <use xlink:href="#DejaVuSans-5c" transform="translate(286.390625 0)"/>
      <use xlink:href="#DejaVuSans-51" transform="translate(345.578125 0)"/>
      <use xlink:href="#DejaVuSans-44" transform="translate(408.953125 0)"/>
      <use xlink:href="#DejaVuSans-50" transform="translate(470.234375 0)"/>
      <use xlink:href="#DejaVuSans-4c" transform="translate(567.640625 0)"/>
      <use xlink:href="#DejaVuSans-46" transform="translate(595.421875 0)"/>
      <use xlink:href="#DejaVuSans-3" transform="translate(650.40625 0)"/>
      <use xlink:href="#DejaVuSans-44" transform="translate(682.1875 0)"/>
      <use xlink:href="#DejaVuSans-5b" transform="translate(743.46875 0)"/>
      <use xlink:href="#DejaVuSans-4c" transform="translate(802.65625 0)"/>
      <use xlink:href="#DejaVuSans-56" transform="translate(830.4375 0)"/>
      <use xlink:href="#DejaVuSans-3" transform="translate(882.53125 0)"/>
      <use xlink:href="#DejaVuSans-b" transform="translate(914.3125 0)"/>
      <use xlink:href="#DejaVuSans-7e" transform="translate(953.328125 0)"/>
      <use xlink:href="#DejaVuSans-10" transform="translate(1050.25 0)"/>
      <use xlink:href="#DejaVuSans-46" transform="translate(1086.328125 0)"/>
      <use xlink:href="#DejaVuSans-4b" transform="translate(1141.3125 0)"/>
      <use xlink:href="#DejaVuSans-52" transform="translate(1204.6875 0)"/>
      <use xlink:href="#DejaVuSans-55" transform="translate(1265.875 0)"/>
      <use xlink:href="#DejaVuSans-47" transform="translate(1305.234375 0)"/>
      <use xlink:href="#DejaVuSans-f" transform="translate(1368.71875 0)"/>
      <use xlink:href="#DejaVuSans-3" transform="translate(1400.5 0)"/>
      <use xlink:href="#DejaVuSans-4f" transform="translate(1432.28125 0)"/>
      <use xlink:href="#DejaVuSans-4c" transform="translate(1460.0625 0)"/>
      <use xlink:href="#DejaVuSans-49" transform="translate(1487.84375 0)"/>
      <use xlink:href="#DejaVuSans-57" transform="translate(1521.296875 0)"/>
      <use xlink:href="#DejaVuSans-3" transform="translate(1560.5 0)"/>
      <use xlink:href="#DejaVuSans-44" transform="translate(1592.28125 0)"/>
      <use xlink:href="#DejaVuSans-46" transform="translate(1653.5625 0)"/>
      <use xlink:href="#DejaVuSans-57" transform="translate(1708.546875 0)"/>
      <use xlink:href="#DejaVuSans-56" transform="translate(1747.75 0)"/>
      <use xlink:href="#DejaVuSans-3" transform="translate(1799.84375 0)"/>
      <use xlink:href="#DejaVuSans-4b" transform="translate(1831.625 0)"/>
      <use xlink:href="#DejaVuSans-48" transform="translate(1895 0)"/>
      <use xlink:href="#DejaVuSans-55" transform="translate(1956.53125 0)"/>
      <use xlink:href="#DejaVuSans-48" transform="translate(1995.4375 0)"/>
      <use xlink:href="#DejaVuSans-c" transform="translate(2056.96875 0)"/>
     </g>
    </g>
   </g>
  </g>
 </g>
 <defs>
  <clipPath id="p0436241133">
   <rect x="7.936566" y="22.318125" width="426.33074" height="226.854889"/>
  </clipPath>
  <clipPath id="p938166949c">
   <rect x="445.067306" y="41.069435" width="426.33074" height="189.352269"/>
  </clipPath>
 </defs>
 <defs>
  <pattern id="h6a82a943dc" patternUnits="userSpaceOnUse" x="0" y="0" width="72" height="72">
   <rect x="0" y="0" width="73" height="73" fill="#d9d9d9"/>
   <path d="M -36 36 
L 36 -36 
M -33 39 
L 39 -33 
M -30 42 
L 42 -30 
M -27 45 
L 45 -27 
M -24 48 
L 48 -24 
M -21 51 
L 51 -21 
M -18 54 
L 54 -18 
M -15 57 
L 57 -15 
M -12 60 
L 60 -12 
M -9 63 
L 63 -9 
M -6 66 
L 66 -6 
M -3 69 
L 69 -3 
M 0 72 
L 72 0 
M 3 75 
L 75 3 
M 6 78 
L 78 6 
M 9 81 
L 81 9 
M 12 84 
L 84 12 
M 15 87 
L 87 15 
M 18 90 
L 90 18 
M 21 93 
L 93 21 
M 24 96 
L 96 24 
M 27 99 
L 99 27 
M 30 102 
L 102 30 
M 33 105 
L 105 33 
M 36 108 
L 108 36 
" style="fill: #000000; stroke: #000000; stroke-width: 1.0; stroke-linecap: butt; stroke-linejoin: miter"/>
  </pattern>
 </defs>
</svg>
